<svg xmlns="http://www.w3.org/2000/svg" xmlns:xlink="http://www.w3.org/1999/xlink" version="1.1"><metadata>Created by FontForge 20201107 at Fri Apr 1 07:00:00 2022 By Unknown Copyright (c) October 2022 Discord Inc.</metadata><defs><font id="ggsans-Normal" horiz-adv-x="0"><font-face x-height="470" ascent="800" bbox="-343 -211 990 1089" cap-height="690" descent="-200" font-family="gg sans Normal" font-stretch="normal" font-weight="400" panose-1="0 0 5 0 0 0 0 0 0 0" underline-position="-100" underline-thickness="50" unicode-range="U+0020-FB02" units-per-em="1000"/><glyph d="M114 0v412h-100v58h100v133q0 66 32.5 103.5t107.5 37.5q22 0 43 -4t32 -8v-61q-12 6 -34 10.5t-40 4.5q-43 0 -58 -20t-15 -63v-133h125v-58h-125v-412h-68zM418 600q-13 13 -13 33t13 33t33 13t33 -13t13 -33t-13 -33t-33 -13t-33 13zM485 0h-68v470h68v-470z" glyph-name="f_i.liga" horiz-adv-x="565" unicode="fi"/><glyph d="M114 0v412h-100v58h100v133q0 66 32.5 103.5t107.5 37.5q22 0 43 -4t32 -8v-61q-12 6 -34 10.5t-40 4.5q-43 0 -58 -20t-15 -63v-133h125v-58h-125v-412h-68zM444 18.5q-27 26.5 -27 76.5v635h68v-631q0 -27 10.5 -38t33.5 -11q24 0 37 9v-59q-11 -4 -22 -6t-26 -2 q-47 0 -74 26.5z" glyph-name="f_l.liga" horiz-adv-x="590" unicode="fl"/><glyph glyph-name=".notdef" horiz-adv-x="600"/><glyph glyph-name="glyph1" horiz-adv-x="600"/><glyph glyph-name="space" horiz-adv-x="220"/><glyph d="M626 0h-78l-70 188h-312l-70 -188h-78l264 690h80zM322 609l-131 -352h262z" glyph-name="A" horiz-adv-x="644" unicode="A"/><glyph d="M626 0h-78l-70 188h-312l-70 -188h-78l264 690h80zM322 609l-131 -352h262zM352 766h-60l77 144h82z" glyph-name="Aacute" horiz-adv-x="644" unicode="Á"/><glyph d="M626 0h-78l-70 188h-312l-70 -188h-78l264 690h80zM322 609l-131 -352h262zM229 803.5q-32 37.5 -32 106.5h53q0 -42 17.5 -67t54.5 -25t54.5 25t17.5 67h53q0 -69 -32 -106.5t-93 -37.5t-93 37.5z" glyph-name="Abreve" horiz-adv-x="644" unicode="Ă"/><glyph d="M626 0h-78l-70 188h-312l-70 -188h-78l264 690h80zM322 609l-131 -352h262zM229 803.5q-32 37.5 -32 106.5h53q0 -42 17.5 -67t54.5 -25t54.5 25t17.5 67h53q0 -69 -32 -106.5t-93 -37.5t-93 37.5zM352 943h-60l77 144h82z" glyph-name="uni1EAE" horiz-adv-x="644" unicode="Ắ"/><glyph d="M626 0h-78l-70 188h-312l-70 -188h-78l264 690h80zM322 609l-131 -352h262zM289 -131q-13 13 -13 33t13 33t33 13t33 -13t13 -33t-13 -33t-33 -13t-33 13zM229 803.5q-32 37.5 -32 106.5h53q0 -42 17.5 -67t54.5 -25t54.5 25t17.5 67h53q0 -69 -32 -106.5t-93 -37.5 t-93 37.5z" glyph-name="uni1EB6" horiz-adv-x="644" unicode="Ặ"/><glyph d="M626 0h-78l-70 188h-312l-70 -188h-78l264 690h80zM322 609l-131 -352h262zM229 803.5q-32 37.5 -32 106.5h53q0 -42 17.5 -67t54.5 -25t54.5 25t17.5 67h53q0 -69 -32 -106.5t-93 -37.5t-93 37.5zM352 943h-60l-99 144h82z" glyph-name="uni1EB0" horiz-adv-x="644" unicode="Ằ"/><glyph d="M626 0h-78l-70 188h-312l-70 -188h-78l264 690h80zM322 609l-131 -352h262zM229 803.5q-32 37.5 -32 106.5h53q0 -42 17.5 -67t54.5 -25t54.5 25t17.5 67h53q0 -69 -32 -106.5t-93 -37.5t-93 37.5zM329 957q11 22 11 40q0 17 -11 26.5t-28 9.5q-21 0 -39 -12l-19 44 q27 24 69 24q43 0 66 -21.5t23 -56.5q0 -44 -36 -77z" glyph-name="uni1EB2" horiz-adv-x="644" unicode="Ẳ"/><glyph d="M626 0h-78l-70 188h-312l-70 -188h-78l264 690h80zM322 609l-131 -352h262zM229 803.5q-32 37.5 -32 106.5h53q0 -42 17.5 -67t54.5 -25t54.5 25t17.5 67h53q0 -69 -32 -106.5t-93 -37.5t-93 37.5zM344.5 976q-14.5 6 -32.5 17q-13 9 -22 13t-18 4q-19 0 -32.5 -9.5 t-27.5 -30.5l-33 40q30 56 89 56q17 0 31.5 -6t32.5 -17q13 -9 22 -13t18 -4q19 0 33 9t27 31l33 -40q-30 -56 -89 -56q-17 0 -31.5 6z" glyph-name="uni1EB4" horiz-adv-x="644" unicode="Ẵ"/><glyph d="M626 0h-78l-70 188h-312l-70 -188h-78l264 690h80zM322 609l-131 -352h262zM250 766h-57l100 144h57l100 -144h-57l-71 88z" glyph-name="Acircumflex" horiz-adv-x="644" unicode="Â"/><glyph d="M626 0h-78l-70 188h-312l-70 -188h-78l264 690h80zM322 609l-131 -352h262zM458 910h-60l57 144h76zM250 766h-57l100 144h57l100 -144h-57l-71 88z" glyph-name="uni1EA4" horiz-adv-x="644" unicode="Ấ"/><glyph d="M626 0h-78l-70 188h-312l-70 -188h-78l264 690h80zM322 609l-131 -352h262zM289 -131q-13 13 -13 33t13 33t33 13t33 -13t13 -33t-13 -33t-33 -13t-33 13zM250 766h-57l100 144h57l100 -144h-57l-71 88z" glyph-name="uni1EAC" horiz-adv-x="644" unicode="Ậ"/><glyph d="M626 0h-78l-70 188h-312l-70 -188h-78l264 690h80zM322 609l-131 -352h262zM471 910h-60l-73 144h76zM250 766h-57l100 144h57l100 -144h-57l-71 88z" glyph-name="uni1EA6" horiz-adv-x="644" unicode="Ầ"/><glyph d="M626 0h-78l-70 188h-312l-70 -188h-78l264 690h80zM322 609l-131 -352h262zM394 926q11 22 11 40q0 17 -11 26.5t-28 9.5q-21 0 -39 -12l-19 44q27 24 69 24q43 0 66 -21.5t23 -56.5q0 -44 -36 -77zM250 766h-57l100 144h57l100 -144h-57l-71 88z" glyph-name="uni1EA8" horiz-adv-x="644" unicode="Ẩ"/><glyph d="M626 0h-78l-70 188h-312l-70 -188h-78l264 690h80zM322 609l-131 -352h262zM179 997q30 56 89 56q17 0 31.5 -6t32.5 -17q13 -9 22 -13t18 -4q19 0 33 9t27 31l33 -40q-30 -56 -89 -56q-17 0 -31.5 6t-32.5 17q-13 9 -22 13t-18 4q-19 0 -32.5 -9.5t-27.5 -30.5zM250 766 h-57l100 144h57l100 -144h-57l-71 88z" glyph-name="uni1EAA" horiz-adv-x="644" unicode="Ẫ"/><glyph d="M626 0h-78l-70 188h-312l-70 -188h-78l264 690h80zM322 609l-131 -352h262zM214 798q-13 13 -13 33t13 33t33 13t33 -13t13 -33t-13 -33t-33 -13t-33 13zM364 798q-13 13 -13 33t13 33t33 13t33 -13t13 -33t-13 -33t-33 -13t-33 13z" glyph-name="Adieresis" horiz-adv-x="644" unicode="Ä"/><glyph d="M626 0h-78l-70 188h-312l-70 -188h-78l264 690h80zM322 609l-131 -352h262zM289 -131q-13 13 -13 33t13 33t33 13t33 -13t13 -33t-13 -33t-33 -13t-33 13z" glyph-name="uni1EA0" horiz-adv-x="644" unicode="Ạ"/><glyph d="M626 0h-78l-70 188h-312l-70 -188h-78l264 690h80zM322 609l-131 -352h262zM352 766h-60l-99 144h82z" glyph-name="Agrave" horiz-adv-x="644" unicode="À"/><glyph d="M626 0h-78l-70 188h-312l-70 -188h-78l264 690h80zM322 609l-131 -352h262zM329 780q11 22 11 40q0 17 -11 26.5t-28 9.5q-21 0 -39 -12l-19 44q27 24 69 24q43 0 66 -21.5t23 -56.5q0 -44 -36 -77z" glyph-name="uni1EA2" horiz-adv-x="644" unicode="Ả"/><glyph d="M626 0h-78l-70 188h-312l-70 -188h-78l264 690h80zM322 609l-131 -352h262zM448 826h-253v60h253v-60z" glyph-name="Amacron" horiz-adv-x="644" unicode="Ā"/><glyph d="M635 -169q-12 -9 -24.5 -13t-34.5 -4q-37 0 -62 22.5t-25 61.5q0 34 15.5 58t43.5 45l-70 187h-312l-70 -188h-78l264 690h80l264 -690q-35 -18 -52 -41t-17 -43q0 -17 9.5 -26t25.5 -9q14 0 31 7zM322 609l-131 -352h262z" glyph-name="Aogonek" horiz-adv-x="644" unicode="Ą"/><glyph d="M626 0h-78l-70 188h-312l-70 -188h-78l264 690h80zM322 609l-131 -352h262zM254 779q-27 27 -27 71t27 71t68 27t68 -27t27 -71t-27 -71t-68 -27t-68 27zM356.5 810.5q12.5 14.5 12.5 39.5t-12.5 39.5t-34.5 14.5t-34.5 -14.5t-12.5 -39.5t12.5 -39.5t34.5 -14.5 t34.5 14.5z" glyph-name="Aring" horiz-adv-x="644" unicode="Å"/><glyph d="M626 0h-78l-70 188h-312l-70 -188h-78l264 690h80zM322 609l-131 -352h262zM344.5 813q-14.5 6 -32.5 17q-13 9 -22 13t-18 4q-19 0 -32.5 -9.5t-27.5 -30.5l-33 40q30 56 89 56q17 0 31.5 -6t32.5 -17q13 -9 22 -13t18 -4q19 0 33 9t27 31l33 -40q-30 -56 -89 -56 q-17 0 -31.5 6z" glyph-name="Atilde" horiz-adv-x="644" unicode="Ã"/><glyph d="M531 318v-250h352v-68h-424v188h-260l-99 -188h-82l370 690h485v-68h-342v-236h288v-68h-288zM428 622l-192 -365h223v365h-31z" glyph-name="AE" horiz-adv-x="934" unicode="Æ"/><glyph d="M531 318v-250h352v-68h-424v188h-260l-99 -188h-82l370 690h485v-68h-342v-236h288v-68h-288zM428 622l-192 -365h223v365h-31zM627 766h-60l77 144h82z" glyph-name="AEacute" horiz-adv-x="934" unicode="Ǽ"/><glyph d="M85 0v690h269q81 0 129 -48t48 -127q0 -60 -27 -98t-67 -56q125 -34 125 -170q0 -98 -56 -144.5t-160 -46.5h-261zM332 388q60 0 93.5 29.5t33.5 88.5t-33.5 88.5t-93.5 29.5h-175v-236h175zM359 66q63 0 97 32.5t34 95.5t-34.5 95.5t-96.5 32.5h-202v-256h202z" glyph-name="B" horiz-adv-x="612" unicode="B"/><glyph d="M196 25.5q-68 39.5 -109 120.5t-41 199q0 113 40.5 194t109 123t151.5 42q88 0 152 -40.5t101 -119.5l-59 -41q-29 67 -80.5 100t-113.5 33q-66 0 -118 -34.5t-81.5 -100.5t-29.5 -156q0 -81 28 -147.5t79.5 -105t120.5 -38.5q132 0 195 133l59 -41q-37 -78 -102 -119 t-152 -41q-82 0 -150 39.5z" glyph-name="C" horiz-adv-x="636" unicode="C"/><glyph d="M196 25.5q-68 39.5 -109 120.5t-41 199q0 113 40.5 194t109 123t151.5 42q88 0 152 -40.5t101 -119.5l-59 -41q-29 67 -80.5 100t-113.5 33q-66 0 -118 -34.5t-81.5 -100.5t-29.5 -156q0 -81 28 -147.5t79.5 -105t120.5 -38.5q132 0 195 133l59 -41q-37 -78 -102 -119 t-152 -41q-82 0 -150 39.5zM377 766h-60l77 144h82z" glyph-name="Cacute" horiz-adv-x="636" unicode="Ć"/><glyph d="M196 25.5q-68 39.5 -109 120.5t-41 199q0 113 40.5 194t109 123t151.5 42q88 0 152 -40.5t101 -119.5l-59 -41q-29 67 -80.5 100t-113.5 33q-66 0 -118 -34.5t-81.5 -100.5t-29.5 -156q0 -81 28 -147.5t79.5 -105t120.5 -38.5q132 0 195 133l59 -41q-37 -78 -102 -119 t-152 -41q-82 0 -150 39.5zM375 766h-57l-100 144h57l72 -88l71 88h57z" glyph-name="Ccaron" horiz-adv-x="636" unicode="Č"/><glyph d="M541 187l59 -41q-34 -71 -91.5 -111.5t-134.5 -47.5l-30 -44h3q38 0 58.5 -17.5t20.5 -51.5q0 -33 -21 -52t-61 -19q-45 0 -77 21l25 37q24 -15 52 -15q32 0 32 28q0 12 -9 20t-22 8t-29 -6l-31 22l33 69q-76 7 -137.5 48.5t-98 120t-36.5 189.5q0 113 40.5 194t109 123 t151.5 42q88 0 152 -40.5t101 -119.5l-59 -41q-29 67 -80.5 100t-113.5 33q-66 0 -118 -34.5t-81.5 -100.5t-29.5 -156q0 -81 28 -147.5t79.5 -105t120.5 -38.5q132 0 195 133z" glyph-name="Ccedilla" horiz-adv-x="636" unicode="Ç"/><glyph d="M196 25.5q-68 39.5 -109 120.5t-41 199q0 113 40.5 194t109 123t151.5 42q88 0 152 -40.5t101 -119.5l-59 -41q-29 67 -80.5 100t-113.5 33q-66 0 -118 -34.5t-81.5 -100.5t-29.5 -156q0 -81 28 -147.5t79.5 -105t120.5 -38.5q132 0 195 133l59 -41q-37 -78 -102 -119 t-152 -41q-82 0 -150 39.5zM275 766h-57l100 144h57l100 -144h-57l-71 88z" glyph-name="Ccircumflex" horiz-adv-x="636" unicode="Ĉ"/><glyph d="M196 25.5q-68 39.5 -109 120.5t-41 199q0 113 40.5 194t109 123t151.5 42q88 0 152 -40.5t101 -119.5l-59 -41q-29 67 -80.5 100t-113.5 33q-66 0 -118 -34.5t-81.5 -100.5t-29.5 -156q0 -81 28 -147.5t79.5 -105t120.5 -38.5q132 0 195 133l59 -41q-37 -78 -102 -119 t-152 -41q-82 0 -150 39.5zM314 820q-13 13 -13 33t13 33t33 13t33 -13t13 -33t-13 -33t-33 -13t-33 13z" glyph-name="Cdotaccent" horiz-adv-x="636" unicode="Ċ"/><glyph d="M85 0v690h211q96 0 167 -39t110 -116.5t39 -189.5q0 -111 -39 -188.5t-110.5 -117t-166.5 -39.5h-211zM296 68q117 0 180.5 70.5t63.5 206.5q0 137 -63.5 207t-180.5 70h-139v-554h139z" glyph-name="D" horiz-adv-x="658" unicode="D"/><glyph d="M326 690q96 0 167 -39t110 -116.5t39 -189.5q0 -111 -39 -188.5t-110.5 -117t-166.5 -39.5h-211v314h-87v62h87v314h211zM326 68q117 0 180.5 70.5t63.5 206.5q0 137 -63.5 207t-180.5 70h-139v-246h178v-62h-178v-246h139z" glyph-name="Eth" horiz-adv-x="688" unicode="Ð"/><glyph d="M85 0v690h211q96 0 167 -39t110 -116.5t39 -189.5q0 -111 -39 -188.5t-110.5 -117t-166.5 -39.5h-211zM296 68q117 0 180.5 70.5t63.5 206.5q0 137 -63.5 207t-180.5 70h-139v-554h139zM307 766h-57l-100 144h57l72 -88l71 88h57z" glyph-name="Dcaron" horiz-adv-x="658" unicode="Ď"/><glyph d="M326 690q96 0 167 -39t110 -116.5t39 -189.5q0 -111 -39 -188.5t-110.5 -117t-166.5 -39.5h-211v314h-87v62h87v314h211zM326 68q117 0 180.5 70.5t63.5 206.5q0 137 -63.5 207t-180.5 70h-139v-246h178v-62h-178v-246h139z" glyph-name="Dcroat" horiz-adv-x="688" unicode="Đ"/><glyph d="M509 0h-424v690h414v-68h-342v-236h288v-68h-288v-250h352v-68z" glyph-name="E" horiz-adv-x="560" unicode="E"/><glyph d="M509 0h-424v690h414v-68h-342v-236h288v-68h-288v-250h352v-68zM322 766h-60l77 144h82z" glyph-name="Eacute" horiz-adv-x="560" unicode="É"/><glyph d="M509 0h-424v690h414v-68h-342v-236h288v-68h-288v-250h352v-68zM199 803.5q-32 37.5 -32 106.5h53q0 -42 17.5 -67t54.5 -25t54.5 25t17.5 67h53q0 -69 -32 -106.5t-93 -37.5t-93 37.5z" glyph-name="Ebreve" horiz-adv-x="560" unicode="Ĕ"/><glyph d="M509 0h-424v690h414v-68h-342v-236h288v-68h-288v-250h352v-68zM320 766h-57l-100 144h57l72 -88l71 88h57z" glyph-name="Ecaron" horiz-adv-x="560" unicode="Ě"/><glyph d="M509 0h-424v690h414v-68h-342v-236h288v-68h-288v-250h352v-68zM220 766h-57l100 144h57l100 -144h-57l-71 88z" glyph-name="Ecircumflex" horiz-adv-x="560" unicode="Ê"/><glyph d="M509 0h-424v690h414v-68h-342v-236h288v-68h-288v-250h352v-68zM428 910h-60l57 144h76zM220 766h-57l100 144h57l100 -144h-57l-71 88z" glyph-name="uni1EBE" horiz-adv-x="560" unicode="Ế"/><glyph d="M509 0h-424v690h414v-68h-342v-236h288v-68h-288v-250h352v-68zM264 -131q-13 13 -13 33t13 33t33 13t33 -13t13 -33t-13 -33t-33 -13t-33 13zM220 766h-57l100 144h57l100 -144h-57l-71 88z" glyph-name="uni1EC6" horiz-adv-x="560" unicode="Ệ"/><glyph d="M509 0h-424v690h414v-68h-342v-236h288v-68h-288v-250h352v-68zM441 910h-60l-73 144h76zM220 766h-57l100 144h57l100 -144h-57l-71 88z" glyph-name="uni1EC0" horiz-adv-x="560" unicode="Ề"/><glyph d="M509 0h-424v690h414v-68h-342v-236h288v-68h-288v-250h352v-68zM364 926q11 22 11 40q0 17 -11 26.5t-28 9.5q-21 0 -39 -12l-19 44q27 24 69 24q43 0 66 -21.5t23 -56.5q0 -44 -36 -77zM220 766h-57l100 144h57l100 -144h-57l-71 88z" glyph-name="uni1EC2" horiz-adv-x="560" unicode="Ể"/><glyph d="M509 0h-424v690h414v-68h-342v-236h288v-68h-288v-250h352v-68zM149 997q30 56 89 56q17 0 31.5 -6t32.5 -17q13 -9 22 -13t18 -4q19 0 33 9t27 31l33 -40q-30 -56 -89 -56q-17 0 -31.5 6t-32.5 17q-13 9 -22 13t-18 4q-19 0 -32.5 -9.5t-27.5 -30.5zM220 766h-57 l100 144h57l100 -144h-57l-71 88z" glyph-name="uni1EC4" horiz-adv-x="560" unicode="Ễ"/><glyph d="M509 0h-424v690h414v-68h-342v-236h288v-68h-288v-250h352v-68zM184 798q-13 13 -13 33t13 33t33 13t33 -13t13 -33t-13 -33t-33 -13t-33 13zM334 798q-13 13 -13 33t13 33t33 13t33 -13t13 -33t-13 -33t-33 -13t-33 13z" glyph-name="Edieresis" horiz-adv-x="560" unicode="Ë"/><glyph d="M509 0h-424v690h414v-68h-342v-236h288v-68h-288v-250h352v-68zM259 820q-13 13 -13 33t13 33t33 13t33 -13t13 -33t-13 -33t-33 -13t-33 13z" glyph-name="Edotaccent" horiz-adv-x="560" unicode="Ė"/><glyph d="M509 0h-424v690h414v-68h-342v-236h288v-68h-288v-250h352v-68zM264 -131q-13 13 -13 33t13 33t33 13t33 -13t13 -33t-13 -33t-33 -13t-33 13z" glyph-name="uni1EB8" horiz-adv-x="560" unicode="Ẹ"/><glyph d="M509 0h-424v690h414v-68h-342v-236h288v-68h-288v-250h352v-68zM322 766h-60l-99 144h82z" glyph-name="Egrave" horiz-adv-x="560" unicode="È"/><glyph d="M509 0h-424v690h414v-68h-342v-236h288v-68h-288v-250h352v-68zM299 780q11 22 11 40q0 17 -11 26.5t-28 9.5q-21 0 -39 -12l-19 44q27 24 69 24q43 0 66 -21.5t23 -56.5q0 -44 -36 -77z" glyph-name="uni1EBA" horiz-adv-x="560" unicode="Ẻ"/><glyph d="M509 0h-424v690h414v-68h-342v-236h288v-68h-288v-250h352v-68zM418 826h-253v60h253v-60z" glyph-name="Emacron" horiz-adv-x="560" unicode="Ē"/><glyph d="M518 -169q-12 -9 -24.5 -13t-34.5 -4q-37 0 -62 22.5t-25 61.5q0 34 15.5 58t42.5 44h-345v690h414v-68h-342v-236h288v-68h-288v-250h352v-68q-35 -18 -52 -41t-17 -43q0 -17 9.5 -26t25.5 -9q14 0 31 7z" glyph-name="Eogonek" horiz-adv-x="560" unicode="Ę"/><glyph d="M509 0h-424v690h414v-68h-342v-236h288v-68h-288v-250h352v-68zM314.5 813q-14.5 6 -32.5 17q-13 9 -22 13t-18 4q-19 0 -32.5 -9.5t-27.5 -30.5l-33 40q30 56 89 56q17 0 31.5 -6t32.5 -17q13 -9 22 -13t18 -4q19 0 33 9t27 31l33 -40q-30 -56 -89 -56q-17 0 -31.5 6z" glyph-name="uni1EBC" horiz-adv-x="560" unicode="Ẽ"/><glyph d="M157 0h-72v690h416v-68h-344v-267h295v-68h-295v-287z" glyph-name="F" horiz-adv-x="545" unicode="F"/><glyph d="M191.5 28.5q-67.5 42.5 -106.5 124t-39 192.5q0 117 42 197.5t113 121t159 40.5q82 0 141 -35.5t103 -109.5l-59 -41q-30 55 -79 86.5t-113 31.5q-63 0 -116.5 -34t-86 -100t-32.5 -157q0 -83 28 -149.5t80 -104t121 -37.5q62 0 114 27t82 68v138h-207v68h274v-355h-59 l-8 77q-33 -44 -85.5 -67.5t-115.5 -23.5q-83 0 -150.5 42.5z" glyph-name="G" horiz-adv-x="670" unicode="G"/><glyph d="M191.5 28.5q-67.5 42.5 -106.5 124t-39 192.5q0 117 42 197.5t113 121t159 40.5q82 0 141 -35.5t103 -109.5l-59 -41q-30 55 -79 86.5t-113 31.5q-63 0 -116.5 -34t-86 -100t-32.5 -157q0 -83 28 -149.5t80 -104t121 -37.5q62 0 114 27t82 68v138h-207v68h274v-355h-59 l-8 77q-33 -44 -85.5 -67.5t-115.5 -23.5q-83 0 -150.5 42.5zM259 803.5q-32 37.5 -32 106.5h53q0 -42 17.5 -67t54.5 -25t54.5 25t17.5 67h53q0 -69 -32 -106.5t-93 -37.5t-93 37.5z" glyph-name="Gbreve" horiz-adv-x="670" unicode="Ğ"/><glyph d="M191.5 28.5q-67.5 42.5 -106.5 124t-39 192.5q0 117 42 197.5t113 121t159 40.5q82 0 141 -35.5t103 -109.5l-59 -41q-30 55 -79 86.5t-113 31.5q-63 0 -116.5 -34t-86 -100t-32.5 -157q0 -83 28 -149.5t80 -104t121 -37.5q62 0 114 27t82 68v138h-207v68h274v-355h-59 l-8 77q-33 -44 -85.5 -67.5t-115.5 -23.5q-83 0 -150.5 42.5zM280 766h-57l100 144h57l100 -144h-57l-71 88z" glyph-name="Gcircumflex" horiz-adv-x="670" unicode="Ĝ"/><glyph d="M191.5 28.5q-67.5 42.5 -106.5 124t-39 192.5q0 117 42 197.5t113 121t159 40.5q82 0 141 -35.5t103 -109.5l-59 -41q-30 55 -79 86.5t-113 31.5q-63 0 -116.5 -34t-86 -100t-32.5 -157q0 -83 28 -149.5t80 -104t121 -37.5q62 0 114 27t82 68v138h-207v68h274v-355h-59 l-8 77q-33 -44 -85.5 -67.5t-115.5 -23.5q-83 0 -150.5 42.5zM307 -185q22 12 32.5 23t12.5 26q-18 0 -31 11.5t-13 30.5q0 20 12.5 31t31.5 11q20 0 32.5 -13.5t12.5 -38.5q0 -39 -15 -64t-43 -43z" glyph-name="uni0122" horiz-adv-x="670" unicode="Ģ"/><glyph d="M191.5 28.5q-67.5 42.5 -106.5 124t-39 192.5q0 117 42 197.5t113 121t159 40.5q82 0 141 -35.5t103 -109.5l-59 -41q-30 55 -79 86.5t-113 31.5q-63 0 -116.5 -34t-86 -100t-32.5 -157q0 -83 28 -149.5t80 -104t121 -37.5q62 0 114 27t82 68v138h-207v68h274v-355h-59 l-8 77q-33 -44 -85.5 -67.5t-115.5 -23.5q-83 0 -150.5 42.5zM319 820q-13 13 -13 33t13 33t33 13t33 -13t13 -33t-13 -33t-33 -13t-33 13z" glyph-name="Gdotaccent" horiz-adv-x="670" unicode="Ġ"/><glyph d="M157 0h-72v690h72v-299h356v299h72v-690h-72v325h-356v-325z" glyph-name="H" horiz-adv-x="670" unicode="H"/><glyph d="M605 589h77v-62h-77v-527h-72v325h-356v-325h-72v527h-79v62h79v101h72v-101h356v101h72v-101zM177 391h356v136h-356v-136z" glyph-name="Hbar" horiz-adv-x="708" unicode="Ħ"/><glyph d="M157 0h-72v690h72v-299h356v299h72v-690h-72v325h-356v-325zM263 766h-57l100 144h57l100 -144h-57l-71 88z" glyph-name="Hcircumflex" horiz-adv-x="670" unicode="Ĥ"/><glyph d="M157 0h-72v690h72v-690z" glyph-name="I" horiz-adv-x="242" unicode="I"/><glyph d="M157 0h-72v690h72v-690zM361 17.5q-51 31.5 -80 90.5l54 45q28 -49 63 -74t81 -25q57 0 88 39t31 120v477h72v-469q0 -118 -53 -176.5t-140 -58.5q-65 0 -116 31.5z" glyph-name="IJ" horiz-adv-x="755" unicode="Ĳ"/><glyph d="M157 0h-72v690h72v-690zM151 766h-60l77 144h82z" glyph-name="Iacute" horiz-adv-x="242" unicode="Í"/><glyph d="M157 0h-72v690h72v-690zM28 803.5q-32 37.5 -32 106.5h53q0 -42 17.5 -67t54.5 -25t54.5 25t17.5 67h53q0 -69 -32 -106.5t-93 -37.5t-93 37.5z" glyph-name="Ibreve" horiz-adv-x="242" unicode="Ĭ"/><glyph d="M157 0h-72v690h72v-690zM49 766h-57l100 144h57l100 -144h-57l-71 88z" glyph-name="Icircumflex" horiz-adv-x="242" unicode="Î"/><glyph d="M157 0h-72v690h72v-690zM13 798q-13 13 -13 33t13 33t33 13t33 -13t13 -33t-13 -33t-33 -13t-33 13zM163 798q-13 13 -13 33t13 33t33 13t33 -13t13 -33t-13 -33t-33 -13t-33 13z" glyph-name="Idieresis" horiz-adv-x="242" unicode="Ï"/><glyph d="M157 0h-72v690h72v-690zM88 820q-13 13 -13 33t13 33t33 13t33 -13t13 -33t-13 -33t-33 -13t-33 13z" glyph-name="Idotaccent" horiz-adv-x="242" unicode="İ"/><glyph d="M157 0h-72v690h72v-690zM88 -131q-13 13 -13 33t13 33t33 13t33 -13t13 -33t-13 -33t-33 -13t-33 13z" glyph-name="uni1ECA" horiz-adv-x="242" unicode="Ị"/><glyph d="M157 0h-72v690h72v-690zM151 766h-60l-99 144h82z" glyph-name="Igrave" horiz-adv-x="242" unicode="Ì"/><glyph d="M157 0h-72v690h72v-690zM128 780q11 22 11 40q0 17 -11 26.5t-28 9.5q-21 0 -39 -12l-19 44q27 24 69 24q43 0 66 -21.5t23 -56.5q0 -44 -36 -77z" glyph-name="uni1EC8" horiz-adv-x="242" unicode="Ỉ"/><glyph d="M157 0h-72v690h72v-690zM247 826h-253v60h253v-60z" glyph-name="Imacron" horiz-adv-x="242" unicode="Ī"/><glyph d="M166 -169q-12 -9 -24.5 -13t-34.5 -4q-37 0 -62 22.5t-25 61.5q0 36 17 61t48 46v685h72v-690q-35 -18 -52 -41t-17 -43q0 -17 9.5 -26t25.5 -9q14 0 31 7z" glyph-name="Iogonek" horiz-adv-x="242" unicode="Į"/><glyph d="M157 0h-72v690h72v-690zM143.5 813q-14.5 6 -32.5 17q-13 9 -22 13t-18 4q-19 0 -32.5 -9.5t-27.5 -30.5l-33 40q30 56 89 56q17 0 31.5 -6t32.5 -17q13 -9 22 -13t18 -4q19 0 33 9t27 31l33 -40q-30 -56 -89 -56q-17 0 -31.5 6z" glyph-name="Itilde" horiz-adv-x="242" unicode="Ĩ"/><glyph d="M119 17.5q-51 31.5 -80 90.5l54 45q28 -49 63 -74t81 -25q57 0 88 39t31 120v477h72v-469q0 -118 -53 -176.5t-140 -58.5q-65 0 -116 31.5z" glyph-name="J" horiz-adv-x="513" unicode="J"/><glyph d="M119 17.5q-51 31.5 -80 90.5l54 45q28 -49 63 -74t81 -25q57 0 88 39t31 120v477h72v-469q0 -118 -53 -176.5t-140 -58.5q-65 0 -116 31.5zM320 766h-57l100 144h57l100 -144h-57l-71 88z" glyph-name="Jcircumflex" horiz-adv-x="513" unicode="Ĵ"/><glyph d="M85 0v690h72v-338l322 338h93l-244 -258q85 -102 142.5 -208.5t94.5 -223.5h-78q-58 208 -208 380l-122 -129v-251h-72z" glyph-name="K" horiz-adv-x="605" unicode="K"/><glyph d="M85 0v690h72v-338l322 338h93l-244 -258q85 -102 142.5 -208.5t94.5 -223.5h-78q-58 208 -208 380l-122 -129v-251h-72zM252 -185q22 12 32.5 23t12.5 26q-18 0 -31 11.5t-13 30.5q0 20 12.5 31t31.5 11q20 0 32.5 -13.5t12.5 -38.5q0 -39 -15 -64t-43 -43z" glyph-name="uni0136" horiz-adv-x="605" unicode="Ķ"/><glyph d="M512 0h-427v690h72v-622h355v-68z" glyph-name="L" horiz-adv-x="556" unicode="L"/><glyph d="M512 0h-427v690h72v-622h355v-68zM151 766h-60l77 144h82z" glyph-name="Lacute" horiz-adv-x="556" unicode="Ĺ"/><glyph d="M512 0h-427v690h72v-622h355v-68zM355 497q30 26 47 49t20 46q-23 0 -38 15t-15 38t15 38t39 15q23 0 38.5 -18.5t15.5 -51.5q0 -98 -85 -162z" glyph-name="Lcaron" horiz-adv-x="556" unicode="Ľ"/><glyph d="M512 0h-427v690h72v-622h355v-68zM241 -185q22 12 32.5 23t12.5 26q-18 0 -31 11.5t-13 30.5q0 20 12.5 31t31.5 11q20 0 32.5 -13.5t12.5 -38.5q0 -39 -15 -64t-43 -43z" glyph-name="uni013B" horiz-adv-x="556" unicode="Ļ"/><glyph d="M512 0h-427v690h72v-622h355v-68zM362.5 307q-14.5 15 -14.5 38t14.5 38t38.5 15t38.5 -15t14.5 -38t-14.5 -38t-38.5 -15t-38.5 15z" glyph-name="Ldot" horiz-adv-x="532" unicode="Ŀ"/><glyph d="M187 262v-194h355v-68h-427v226l-106 -52v71l106 52v393h72v-357l191 94v-71z" glyph-name="Lslash" horiz-adv-x="586" unicode="Ł"/><glyph d="M129 0h-70l82 690h97l181 -511l181 511h97l82 -690h-71l-70 607l-177 -494h-84l-177 494z" glyph-name="M" horiz-adv-x="838" unicode="M"/><glyph d="M157 0h-72v690h88l351 -581v581h72v-690h-80l-359 584v-584z" glyph-name="N" horiz-adv-x="681" unicode="N"/><glyph d="M157 0h-72v690h88l351 -581v581h72v-690h-80l-359 584v-584zM371 766h-60l77 144h82z" glyph-name="Nacute" horiz-adv-x="681" unicode="Ń"/><glyph d="M157 0h-72v690h88l351 -581v581h72v-690h-80l-359 584v-584zM369 766h-57l-100 144h57l72 -88l71 88h57z" glyph-name="Ncaron" horiz-adv-x="681" unicode="Ň"/><glyph d="M157 0h-72v690h88l351 -581v581h72v-690h-80l-359 584v-584zM296 -185q22 12 32.5 23t12.5 26q-18 0 -31 11.5t-13 30.5q0 20 12.5 31t31.5 11q20 0 32.5 -13.5t12.5 -38.5q0 -39 -15 -64t-43 -43z" glyph-name="uni0145" horiz-adv-x="681" unicode="Ņ"/><glyph d="M382.5 -200q-17.5 3 -27.5 7v68q12 -4 30 -7t31 -3q59 0 83.5 30t24.5 105l-367 584v-584h-72v690h88l351 -557v557h72v-690q0 -109 -44.5 -156t-137.5 -47q-14 0 -31.5 3z" glyph-name="Eng" horiz-adv-x="681" unicode="Ŋ"/><glyph d="M157 0h-72v690h88l351 -581v581h72v-690h-80l-359 584v-584zM363.5 813q-14.5 6 -32.5 17q-13 9 -22 13t-18 4q-19 0 -32.5 -9.5t-27.5 -30.5l-33 40q30 56 89 56q17 0 31.5 -6t32.5 -17q13 -9 22 -13t18 -4q19 0 33 9t27 31l33 -40q-30 -56 -89 -56q-17 0 -31.5 6z" glyph-name="Ntilde" horiz-adv-x="681" unicode="Ñ"/><glyph d="M188 27.5q-67 41.5 -104.5 122t-37.5 195.5t37.5 195.5t104.5 122t154 41.5q88 0 154.5 -41t104 -122t37.5 -196t-37.5 -196t-104 -122t-154.5 -41q-87 0 -154 41.5zM506 128.5q60 76.5 60 216.5t-60 216.5t-164 76.5t-164 -76.5t-60 -216.5t60 -216.5t164 -76.5 t164 76.5z" glyph-name="O" horiz-adv-x="684" unicode="O"/><glyph d="M188 27.5q-67 41.5 -104.5 122t-37.5 195.5t37.5 195.5t104.5 122t154 41.5q88 0 154.5 -41t104 -122t37.5 -196t-37.5 -196t-104 -122t-154.5 -41q-87 0 -154 41.5zM506 128.5q60 76.5 60 216.5t-60 216.5t-164 76.5t-164 -76.5t-60 -216.5t60 -216.5t164 -76.5 t164 76.5zM372 766h-60l77 144h82z" glyph-name="Oacute" horiz-adv-x="684" unicode="Ó"/><glyph d="M188 27.5q-67 41.5 -104.5 122t-37.5 195.5t37.5 195.5t104.5 122t154 41.5q88 0 154.5 -41t104 -122t37.5 -196t-37.5 -196t-104 -122t-154.5 -41q-87 0 -154 41.5zM506 128.5q60 76.5 60 216.5t-60 216.5t-164 76.5t-164 -76.5t-60 -216.5t60 -216.5t164 -76.5 t164 76.5zM249 803.5q-32 37.5 -32 106.5h53q0 -42 17.5 -67t54.5 -25t54.5 25t17.5 67h53q0 -69 -32 -106.5t-93 -37.5t-93 37.5z" glyph-name="Obreve" horiz-adv-x="684" unicode="Ŏ"/><glyph d="M188 27.5q-67 41.5 -104.5 122t-37.5 195.5t37.5 195.5t104.5 122t154 41.5q88 0 154.5 -41t104 -122t37.5 -196t-37.5 -196t-104 -122t-154.5 -41q-87 0 -154 41.5zM506 128.5q60 76.5 60 216.5t-60 216.5t-164 76.5t-164 -76.5t-60 -216.5t60 -216.5t164 -76.5 t164 76.5zM270 766h-57l100 144h57l100 -144h-57l-71 88z" glyph-name="Ocircumflex" horiz-adv-x="684" unicode="Ô"/><glyph d="M188 27.5q-67 41.5 -104.5 122t-37.5 195.5t37.5 195.5t104.5 122t154 41.5q88 0 154.5 -41t104 -122t37.5 -196t-37.5 -196t-104 -122t-154.5 -41q-87 0 -154 41.5zM506 128.5q60 76.5 60 216.5t-60 216.5t-164 76.5t-164 -76.5t-60 -216.5t60 -216.5t164 -76.5 t164 76.5zM478 910h-60l57 144h76zM270 766h-57l100 144h57l100 -144h-57l-71 88z" glyph-name="uni1ED0" horiz-adv-x="684" unicode="Ố"/><glyph d="M188 27.5q-67 41.5 -104.5 122t-37.5 195.5t37.5 195.5t104.5 122t154 41.5q88 0 154.5 -41t104 -122t37.5 -196t-37.5 -196t-104 -122t-154.5 -41q-87 0 -154 41.5zM506 128.5q60 76.5 60 216.5t-60 216.5t-164 76.5t-164 -76.5t-60 -216.5t60 -216.5t164 -76.5 t164 76.5zM309 -131q-13 13 -13 33t13 33t33 13t33 -13t13 -33t-13 -33t-33 -13t-33 13zM270 766h-57l100 144h57l100 -144h-57l-71 88z" glyph-name="uni1ED8" horiz-adv-x="684" unicode="Ộ"/><glyph d="M188 27.5q-67 41.5 -104.5 122t-37.5 195.5t37.5 195.5t104.5 122t154 41.5q88 0 154.5 -41t104 -122t37.5 -196t-37.5 -196t-104 -122t-154.5 -41q-87 0 -154 41.5zM506 128.5q60 76.5 60 216.5t-60 216.5t-164 76.5t-164 -76.5t-60 -216.5t60 -216.5t164 -76.5 t164 76.5zM491 910h-60l-73 144h76zM270 766h-57l100 144h57l100 -144h-57l-71 88z" glyph-name="uni1ED2" horiz-adv-x="684" unicode="Ồ"/><glyph d="M188 27.5q-67 41.5 -104.5 122t-37.5 195.5t37.5 195.5t104.5 122t154 41.5q88 0 154.5 -41t104 -122t37.5 -196t-37.5 -196t-104 -122t-154.5 -41q-87 0 -154 41.5zM506 128.5q60 76.5 60 216.5t-60 216.5t-164 76.5t-164 -76.5t-60 -216.5t60 -216.5t164 -76.5 t164 76.5zM414 926q11 22 11 40q0 17 -11 26.5t-28 9.5q-21 0 -39 -12l-19 44q27 24 69 24q43 0 66 -21.5t23 -56.5q0 -44 -36 -77zM270 766h-57l100 144h57l100 -144h-57l-71 88z" glyph-name="uni1ED4" horiz-adv-x="684" unicode="Ổ"/><glyph d="M188 27.5q-67 41.5 -104.5 122t-37.5 195.5t37.5 195.5t104.5 122t154 41.5q88 0 154.5 -41t104 -122t37.5 -196t-37.5 -196t-104 -122t-154.5 -41q-87 0 -154 41.5zM506 128.5q60 76.5 60 216.5t-60 216.5t-164 76.5t-164 -76.5t-60 -216.5t60 -216.5t164 -76.5 t164 76.5zM199 997q30 56 89 56q17 0 31.5 -6t32.5 -17q13 -9 22 -13t18 -4q19 0 33 9t27 31l33 -40q-30 -56 -89 -56q-17 0 -31.5 6t-32.5 17q-13 9 -22 13t-18 4q-19 0 -32.5 -9.5t-27.5 -30.5zM270 766h-57l100 144h57l100 -144h-57l-71 88z" glyph-name="uni1ED6" horiz-adv-x="684" unicode="Ỗ"/><glyph d="M188 27.5q-67 41.5 -104.5 122t-37.5 195.5t37.5 195.5t104.5 122t154 41.5q88 0 154.5 -41t104 -122t37.5 -196t-37.5 -196t-104 -122t-154.5 -41q-87 0 -154 41.5zM506 128.5q60 76.5 60 216.5t-60 216.5t-164 76.5t-164 -76.5t-60 -216.5t60 -216.5t164 -76.5 t164 76.5zM234 798q-13 13 -13 33t13 33t33 13t33 -13t13 -33t-13 -33t-33 -13t-33 13zM384 798q-13 13 -13 33t13 33t33 13t33 -13t13 -33t-13 -33t-33 -13t-33 13z" glyph-name="Odieresis" horiz-adv-x="684" unicode="Ö"/><glyph d="M188 27.5q-67 41.5 -104.5 122t-37.5 195.5t37.5 195.5t104.5 122t154 41.5q88 0 154.5 -41t104 -122t37.5 -196t-37.5 -196t-104 -122t-154.5 -41q-87 0 -154 41.5zM506 128.5q60 76.5 60 216.5t-60 216.5t-164 76.5t-164 -76.5t-60 -216.5t60 -216.5t164 -76.5 t164 76.5zM309 -131q-13 13 -13 33t13 33t33 13t33 -13t13 -33t-13 -33t-33 -13t-33 13z" glyph-name="uni1ECC" horiz-adv-x="684" unicode="Ọ"/><glyph d="M188 27.5q-67 41.5 -104.5 122t-37.5 195.5t37.5 195.5t104.5 122t154 41.5q88 0 154.5 -41t104 -122t37.5 -196t-37.5 -196t-104 -122t-154.5 -41q-87 0 -154 41.5zM506 128.5q60 76.5 60 216.5t-60 216.5t-164 76.5t-164 -76.5t-60 -216.5t60 -216.5t164 -76.5 t164 76.5zM372 766h-60l-99 144h82z" glyph-name="Ograve" horiz-adv-x="684" unicode="Ò"/><glyph d="M188 27.5q-67 41.5 -104.5 122t-37.5 195.5t37.5 195.5t104.5 122t154 41.5q88 0 154.5 -41t104 -122t37.5 -196t-37.5 -196t-104 -122t-154.5 -41q-87 0 -154 41.5zM506 128.5q60 76.5 60 216.5t-60 216.5t-164 76.5t-164 -76.5t-60 -216.5t60 -216.5t164 -76.5 t164 76.5zM349 780q11 22 11 40q0 17 -11 26.5t-28 9.5q-21 0 -39 -12l-19 44q27 24 69 24q43 0 66 -21.5t23 -56.5q0 -44 -36 -77z" glyph-name="uni1ECE" horiz-adv-x="684" unicode="Ỏ"/><glyph d="M647 784q0 -71 -32.5 -107.5t-83.5 -36.5h-3q52 -45 81 -120t29 -175q0 -115 -37.5 -196t-104 -122t-154.5 -41q-87 0 -154 41.5t-104.5 122t-37.5 195.5t37.5 195.5t104.5 122t154 41.5h179q29 0 43.5 17t14.5 54v59h68v-50zM506 561.5q-60 76.5 -164 76.5t-164 -76.5 t-60 -216.5t60 -216.5t164 -76.5t164 76.5t60 216.5t-60 216.5z" glyph-name="Ohorn" horiz-adv-x="684" unicode="Ơ"/><glyph d="M647 784q0 -71 -32.5 -107.5t-83.5 -36.5h-3q52 -45 81 -120t29 -175q0 -115 -37.5 -196t-104 -122t-154.5 -41q-87 0 -154 41.5t-104.5 122t-37.5 195.5t37.5 195.5t104.5 122t154 41.5h179q29 0 43.5 17t14.5 54v59h68v-50zM506 561.5q-60 76.5 -164 76.5t-164 -76.5 t-60 -216.5t60 -216.5t164 -76.5t164 76.5t60 216.5t-60 216.5zM372 766h-60l77 144h82z" glyph-name="uni1EDA" horiz-adv-x="684" unicode="Ớ"/><glyph d="M647 784q0 -71 -32.5 -107.5t-83.5 -36.5h-3q52 -45 81 -120t29 -175q0 -115 -37.5 -196t-104 -122t-154.5 -41q-87 0 -154 41.5t-104.5 122t-37.5 195.5t37.5 195.5t104.5 122t154 41.5h179q29 0 43.5 17t14.5 54v59h68v-50zM506 561.5q-60 76.5 -164 76.5t-164 -76.5 t-60 -216.5t60 -216.5t164 -76.5t164 76.5t60 216.5t-60 216.5zM309 -131q-13 13 -13 33t13 33t33 13t33 -13t13 -33t-13 -33t-33 -13t-33 13z" glyph-name="uni1EE2" horiz-adv-x="684" unicode="Ợ"/><glyph d="M647 784q0 -71 -32.5 -107.5t-83.5 -36.5h-3q52 -45 81 -120t29 -175q0 -115 -37.5 -196t-104 -122t-154.5 -41q-87 0 -154 41.5t-104.5 122t-37.5 195.5t37.5 195.5t104.5 122t154 41.5h179q29 0 43.5 17t14.5 54v59h68v-50zM506 561.5q-60 76.5 -164 76.5t-164 -76.5 t-60 -216.5t60 -216.5t164 -76.5t164 76.5t60 216.5t-60 216.5zM372 766h-60l-99 144h82z" glyph-name="uni1EDC" horiz-adv-x="684" unicode="Ờ"/><glyph d="M647 784q0 -71 -32.5 -107.5t-83.5 -36.5h-3q52 -45 81 -120t29 -175q0 -115 -37.5 -196t-104 -122t-154.5 -41q-87 0 -154 41.5t-104.5 122t-37.5 195.5t37.5 195.5t104.5 122t154 41.5h179q29 0 43.5 17t14.5 54v59h68v-50zM506 561.5q-60 76.5 -164 76.5t-164 -76.5 t-60 -216.5t60 -216.5t164 -76.5t164 76.5t60 216.5t-60 216.5zM349 780q11 22 11 40q0 17 -11 26.5t-28 9.5q-21 0 -39 -12l-19 44q27 24 69 24q43 0 66 -21.5t23 -56.5q0 -44 -36 -77z" glyph-name="uni1EDE" horiz-adv-x="684" unicode="Ở"/><glyph d="M647 784q0 -71 -32.5 -107.5t-83.5 -36.5h-3q52 -45 81 -120t29 -175q0 -115 -37.5 -196t-104 -122t-154.5 -41q-87 0 -154 41.5t-104.5 122t-37.5 195.5t37.5 195.5t104.5 122t154 41.5h179q29 0 43.5 17t14.5 54v59h68v-50zM506 561.5q-60 76.5 -164 76.5t-164 -76.5 t-60 -216.5t60 -216.5t164 -76.5t164 76.5t60 216.5t-60 216.5zM364.5 813q-14.5 6 -32.5 17q-13 9 -22 13t-18 4q-19 0 -32.5 -9.5t-27.5 -30.5l-33 40q30 56 89 56q17 0 31.5 -6t32.5 -17q13 -9 22 -13t18 -4q19 0 33 9t27 31l33 -40q-30 -56 -89 -56q-17 0 -31.5 6z" glyph-name="uni1EE0" horiz-adv-x="684" unicode="Ỡ"/><glyph d="M188 27.5q-67 41.5 -104.5 122t-37.5 195.5t37.5 195.5t104.5 122t154 41.5q88 0 154.5 -41t104 -122t37.5 -196t-37.5 -196t-104 -122t-154.5 -41q-87 0 -154 41.5zM506 128.5q60 76.5 60 216.5t-60 216.5t-164 76.5t-164 -76.5t-60 -216.5t60 -216.5t164 -76.5 t164 76.5zM298 766h-56l47 144h76zM442 766h-56l47 144h76z" glyph-name="Ohungarumlaut" horiz-adv-x="684" unicode="Ő"/><glyph d="M188 27.5q-67 41.5 -104.5 122t-37.5 195.5t37.5 195.5t104.5 122t154 41.5q88 0 154.5 -41t104 -122t37.5 -196t-37.5 -196t-104 -122t-154.5 -41q-87 0 -154 41.5zM506 128.5q60 76.5 60 216.5t-60 216.5t-164 76.5t-164 -76.5t-60 -216.5t60 -216.5t164 -76.5 t164 76.5zM468 826h-253v60h253v-60z" glyph-name="Omacron" horiz-adv-x="684" unicode="Ō"/><glyph d="M498 662q66 -42 103 -122.5t37 -194.5q0 -115 -37.5 -196t-104 -122t-154.5 -41q-53 0 -98 15l-43 -111h-68l53 138q-66 42 -103 123t-37 194q0 115 37.5 195.5t104.5 122t154 41.5q53 0 98 -15l43 111h68zM142 193.5q24 -63.5 70 -99.5l204 532q-35 12 -74 12 q-104 0 -164 -76.5t-60 -216.5q0 -88 24 -151.5zM506 128.5q60 76.5 60 216.5q0 88 -24 151.5t-70 99.5l-204 -532q35 -12 74 -12q104 0 164 76.5z" glyph-name="Oslash" horiz-adv-x="684" unicode="Ø"/><glyph d="M188 27.5q-67 41.5 -104.5 122t-37.5 195.5t37.5 195.5t104.5 122t154 41.5q88 0 154.5 -41t104 -122t37.5 -196t-37.5 -196t-104 -122t-154.5 -41q-87 0 -154 41.5zM506 128.5q60 76.5 60 216.5t-60 216.5t-164 76.5t-164 -76.5t-60 -216.5t60 -216.5t164 -76.5 t164 76.5zM364.5 813q-14.5 6 -32.5 17q-13 9 -22 13t-18 4q-19 0 -32.5 -9.5t-27.5 -30.5l-33 40q30 56 89 56q17 0 31.5 -6t32.5 -17q13 -9 22 -13t18 -4q19 0 33 9t27 31l33 -40q-30 -56 -89 -56q-17 0 -31.5 6z" glyph-name="Otilde" horiz-adv-x="684" unicode="Õ"/><glyph d="M185.5 27.5q-65.5 41.5 -102.5 122t-37 195.5t37 195.5t102.5 122t150.5 41.5q76 0 133.5 -29t96.5 -92v107h414v-68h-342v-236h288v-68h-288v-250h352v-68h-424v107q-39 -63 -96.5 -92t-133.5 -29q-85 0 -150.5 41.5zM506 128.5q60 76.5 60 216.5t-60 216.5t-164 76.5 t-164 -76.5t-60 -216.5t60 -216.5t164 -76.5t164 76.5z" glyph-name="OE" horiz-adv-x="1041" unicode="Œ"/><glyph d="M85 0v690h269q97 0 151.5 -58.5t54.5 -158.5t-54.5 -158.5t-151.5 -58.5h-197v-256h-72zM351 324q65 0 101 36.5t36 112.5t-36 112.5t-101 36.5h-194v-298h194z" glyph-name="P" horiz-adv-x="607" unicode="P"/><glyph d="M85 0v690h72v-128h197q97 0 151.5 -58.5t54.5 -158.5t-54.5 -158.5t-151.5 -58.5h-197v-128h-72zM351 196q65 0 101 36.5t36 112.5t-36 112.5t-101 36.5h-194v-298h194z" glyph-name="Thorn" horiz-adv-x="607" unicode="Þ"/><glyph d="M263 -4q-101 36 -159 122t-58 227q0 115 37.5 195.5t104.5 122t154 41.5q88 0 154.5 -41t104 -122t37.5 -196q0 -141 -57 -230t-155 -117l180 -51v-71zM506 128.5q60 76.5 60 216.5t-60 216.5t-164 76.5t-164 -76.5t-60 -216.5t60 -216.5t164 -76.5t164 76.5z" glyph-name="Q" horiz-adv-x="684" unicode="Q"/><glyph d="M85 0v690h292q89 0 143 -53t54 -142q0 -74 -36.5 -123t-100.5 -65q107 -165 147 -307h-79q-52 170 -143 300h-205v-300h-72zM374 368q61 0 94.5 31.5t33.5 96.5q0 126 -128 126h-217v-254h217z" glyph-name="R" horiz-adv-x="623" unicode="R"/><glyph d="M85 0v690h292q89 0 143 -53t54 -142q0 -74 -36.5 -123t-100.5 -65q107 -165 147 -307h-79q-52 170 -143 300h-205v-300h-72zM374 368q61 0 94.5 31.5t33.5 96.5q0 126 -128 126h-217v-254h217zM327 766h-60l77 144h82z" glyph-name="Racute" horiz-adv-x="623" unicode="Ŕ"/><glyph d="M85 0v690h292q89 0 143 -53t54 -142q0 -74 -36.5 -123t-100.5 -65q107 -165 147 -307h-79q-52 170 -143 300h-205v-300h-72zM374 368q61 0 94.5 31.5t33.5 96.5q0 126 -128 126h-217v-254h217zM325 766h-57l-100 144h57l72 -88l71 88h57z" glyph-name="Rcaron" horiz-adv-x="623" unicode="Ř"/><glyph d="M85 0v690h292q89 0 143 -53t54 -142q0 -74 -36.5 -123t-100.5 -65q107 -165 147 -307h-79q-52 170 -143 300h-205v-300h-72zM374 368q61 0 94.5 31.5t33.5 96.5q0 126 -128 126h-217v-254h217zM262 -185q22 12 32.5 23t12.5 26q-18 0 -31 11.5t-13 30.5q0 20 12.5 31 t31.5 11q20 0 32.5 -13.5t12.5 -38.5q0 -39 -15 -64t-43 -43z" glyph-name="uni0156" horiz-adv-x="623" unicode="Ŗ"/><glyph d="M124.5 24.5q-61.5 38.5 -95.5 100.5l57 48q35 -60 78.5 -89.5t117.5 -29.5q77 0 119 35t42 100q0 56 -46.5 86t-134.5 52q-93 23 -148 65.5t-55 129.5q0 56 30 97.5t80 63t109 21.5q75 0 134.5 -34t95.5 -94l-52 -44q-40 56 -78.5 80t-99.5 24q-65 0 -107 -29t-42 -85 q0 -39 20.5 -63t56 -39t94.5 -30q102 -26 158.5 -69t56.5 -130q0 -94 -64 -149.5t-177 -55.5q-88 0 -149.5 38.5z" glyph-name="S" horiz-adv-x="556" unicode="S"/><glyph d="M124.5 24.5q-61.5 38.5 -95.5 100.5l57 48q35 -60 78.5 -89.5t117.5 -29.5q77 0 119 35t42 100q0 56 -46.5 86t-134.5 52q-93 23 -148 65.5t-55 129.5q0 56 30 97.5t80 63t109 21.5q75 0 134.5 -34t95.5 -94l-52 -44q-40 56 -78.5 80t-99.5 24q-65 0 -107 -29t-42 -85 q0 -39 20.5 -63t56 -39t94.5 -30q102 -26 158.5 -69t56.5 -130q0 -94 -64 -149.5t-177 -55.5q-88 0 -149.5 38.5zM308 766h-60l77 144h82z" glyph-name="Sacute" horiz-adv-x="556" unicode="Ś"/><glyph d="M124.5 24.5q-61.5 38.5 -95.5 100.5l57 48q35 -60 78.5 -89.5t117.5 -29.5q77 0 119 35t42 100q0 56 -46.5 86t-134.5 52q-93 23 -148 65.5t-55 129.5q0 56 30 97.5t80 63t109 21.5q75 0 134.5 -34t95.5 -94l-52 -44q-40 56 -78.5 80t-99.5 24q-65 0 -107 -29t-42 -85 q0 -39 20.5 -63t56 -39t94.5 -30q102 -26 158.5 -69t56.5 -130q0 -94 -64 -149.5t-177 -55.5q-88 0 -149.5 38.5zM306 766h-57l-100 144h57l72 -88l71 88h57z" glyph-name="Scaron" horiz-adv-x="556" unicode="Š"/><glyph d="M460 49.5q-55 -54.5 -155 -62.5l-30 -44h3q38 0 58.5 -17.5t20.5 -51.5q0 -33 -21 -52t-61 -19q-45 0 -77 21l25 37q24 -15 52 -15q32 0 32 28q0 12 -9 20t-22 8t-29 -6l-31 22l33 69q-78 6 -133.5 43.5t-86.5 94.5l57 48q35 -60 78.5 -89.5t117.5 -29.5q77 0 119 35 t42 100q0 56 -46.5 86t-134.5 52q-93 23 -148 65.5t-55 129.5q0 56 30 97.5t80 63t109 21.5q75 0 134.5 -34t95.5 -94l-52 -44q-40 56 -78.5 80t-99.5 24q-65 0 -107 -29t-42 -85q0 -39 20.5 -63t56 -39t94.5 -30q102 -26 158.5 -69t56.5 -130t-55 -141.5z" glyph-name="Scedilla" horiz-adv-x="556" unicode="Ş"/><glyph d="M124.5 24.5q-61.5 38.5 -95.5 100.5l57 48q35 -60 78.5 -89.5t117.5 -29.5q77 0 119 35t42 100q0 56 -46.5 86t-134.5 52q-93 23 -148 65.5t-55 129.5q0 56 30 97.5t80 63t109 21.5q75 0 134.5 -34t95.5 -94l-52 -44q-40 56 -78.5 80t-99.5 24q-65 0 -107 -29t-42 -85 q0 -39 20.5 -63t56 -39t94.5 -30q102 -26 158.5 -69t56.5 -130q0 -94 -64 -149.5t-177 -55.5q-88 0 -149.5 38.5zM206 766h-57l100 144h57l100 -144h-57l-71 88z" glyph-name="Scircumflex" horiz-adv-x="556" unicode="Ŝ"/><glyph d="M124.5 24.5q-61.5 38.5 -95.5 100.5l57 48q35 -60 78.5 -89.5t117.5 -29.5q77 0 119 35t42 100q0 56 -46.5 86t-134.5 52q-93 23 -148 65.5t-55 129.5q0 56 30 97.5t80 63t109 21.5q75 0 134.5 -34t95.5 -94l-52 -44q-40 56 -78.5 80t-99.5 24q-65 0 -107 -29t-42 -85 q0 -39 20.5 -63t56 -39t94.5 -30q102 -26 158.5 -69t56.5 -130q0 -94 -64 -149.5t-177 -55.5q-88 0 -149.5 38.5zM233 -185q22 12 32.5 23t12.5 26q-18 0 -31 11.5t-13 30.5q0 20 12.5 31t31.5 11q20 0 32.5 -13.5t12.5 -38.5q0 -39 -15 -64t-43 -43z" glyph-name="uni0218" horiz-adv-x="556" unicode="Ș"/><glyph d="M285 -10q-23 4 -47 14v69q18 -13 45.5 -21t53.5 -8q68 0 103.5 39t35.5 115q0 64 -36.5 95.5t-116.5 31.5h-31v58l154 239h-166q-58 0 -90.5 -28.5t-32.5 -84.5v-509h-72v509q0 82 52.5 131.5t141.5 49.5h245v-72l-149 -231q47 -2 86.5 -25.5t63 -65.5t23.5 -97 q0 -107 -59 -160t-152 -53q-29 0 -52 4z" glyph-name="uni1E9E" horiz-adv-x="611" unicode="ẞ"/><glyph d="M302 0h-72v622h-214v68h500v-68h-214v-622z" glyph-name="T" horiz-adv-x="532" unicode="T"/><glyph d="M516 690v-68h-214v-263h142v-62h-142v-297h-72v297h-142v62h142v263h-214v68h500z" glyph-name="Tbar" horiz-adv-x="532" unicode="Ŧ"/><glyph d="M302 0h-72v622h-214v68h500v-68h-214v-622zM294 766h-57l-100 144h57l72 -88l71 88h57z" glyph-name="Tcaron" horiz-adv-x="532" unicode="Ť"/><glyph d="M302 0h-72v622h-214v68h500v-68h-214v-622zM324.5 -74.5q20.5 -17.5 20.5 -51.5q0 -33 -21 -52t-61 -19q-45 0 -77 21l25 37q24 -15 52 -15q32 0 32 28q0 12 -9 20t-22 8t-29 -6l-31 22l39 82h59l-39 -57h3q38 0 58.5 -17.5z" glyph-name="uni0162" horiz-adv-x="532" unicode="Ţ"/><glyph d="M302 0h-72v622h-214v68h500v-68h-214v-622zM221 -185q22 12 32.5 23t12.5 26q-18 0 -31 11.5t-13 30.5q0 20 12.5 31t31.5 11q20 0 32.5 -13.5t12.5 -38.5q0 -39 -15 -64t-43 -43z" glyph-name="uni021A" horiz-adv-x="532" unicode="Ț"/><glyph d="M150 54q-65 68 -65 210v426h72v-439q0 -100 46.5 -148.5t130.5 -48.5t130.5 48.5t46.5 148.5v439h72v-426q0 -142 -65 -210t-184 -68t-184 68z" glyph-name="U" horiz-adv-x="668" unicode="U"/><glyph d="M150 54q-65 68 -65 210v426h72v-439q0 -100 46.5 -148.5t130.5 -48.5t130.5 48.5t46.5 148.5v439h72v-426q0 -142 -65 -210t-184 -68t-184 68zM364 766h-60l77 144h82z" glyph-name="Uacute" horiz-adv-x="668" unicode="Ú"/><glyph d="M150 54q-65 68 -65 210v426h72v-439q0 -100 46.5 -148.5t130.5 -48.5t130.5 48.5t46.5 148.5v439h72v-426q0 -142 -65 -210t-184 -68t-184 68zM241 803.5q-32 37.5 -32 106.5h53q0 -42 17.5 -67t54.5 -25t54.5 25t17.5 67h53q0 -69 -32 -106.5t-93 -37.5t-93 37.5z" glyph-name="Ubreve" horiz-adv-x="668" unicode="Ŭ"/><glyph d="M150 54q-65 68 -65 210v426h72v-439q0 -100 46.5 -148.5t130.5 -48.5t130.5 48.5t46.5 148.5v439h72v-426q0 -142 -65 -210t-184 -68t-184 68zM262 766h-57l100 144h57l100 -144h-57l-71 88z" glyph-name="Ucircumflex" horiz-adv-x="668" unicode="Û"/><glyph d="M150 54q-65 68 -65 210v426h72v-439q0 -100 46.5 -148.5t130.5 -48.5t130.5 48.5t46.5 148.5v439h72v-426q0 -142 -65 -210t-184 -68t-184 68zM226 798q-13 13 -13 33t13 33t33 13t33 -13t13 -33t-13 -33t-33 -13t-33 13zM376 798q-13 13 -13 33t13 33t33 13t33 -13 t13 -33t-13 -33t-33 -13t-33 13z" glyph-name="Udieresis" horiz-adv-x="668" unicode="Ü"/><glyph d="M150 54q-65 68 -65 210v426h72v-439q0 -100 46.5 -148.5t130.5 -48.5t130.5 48.5t46.5 148.5v439h72v-426q0 -142 -65 -210t-184 -68t-184 68zM301 -131q-13 13 -13 33t13 33t33 13t33 -13t13 -33t-13 -33t-33 -13t-33 13z" glyph-name="uni1EE4" horiz-adv-x="668" unicode="Ụ"/><glyph d="M150 54q-65 68 -65 210v426h72v-439q0 -100 46.5 -148.5t130.5 -48.5t130.5 48.5t46.5 148.5v439h72v-426q0 -142 -65 -210t-184 -68t-184 68zM364 766h-60l-99 144h82z" glyph-name="Ugrave" horiz-adv-x="668" unicode="Ù"/><glyph d="M150 54q-65 68 -65 210v426h72v-439q0 -100 46.5 -148.5t130.5 -48.5t130.5 48.5t46.5 148.5v439h72v-426q0 -142 -65 -210t-184 -68t-184 68zM341 780q11 22 11 40q0 17 -11 26.5t-28 9.5q-21 0 -39 -12l-19 44q27 24 69 24q43 0 66 -21.5t23 -56.5q0 -44 -36 -77z" glyph-name="uni1EE6" horiz-adv-x="668" unicode="Ủ"/><glyph d="M638 820h68v-50q0 -71 -32.5 -107.5t-83.5 -36.5h-7v-362q0 -142 -65 -210t-184 -68t-184 68t-65 210v426h72v-439q0 -100 46.5 -148.5t130.5 -48.5t130.5 48.5t46.5 148.5v439h69q29 0 43.5 17t14.5 54v59z" glyph-name="Uhorn" horiz-adv-x="668" unicode="Ư"/><glyph d="M638 820h68v-50q0 -71 -32.5 -107.5t-83.5 -36.5h-7v-362q0 -142 -65 -210t-184 -68t-184 68t-65 210v426h72v-439q0 -100 46.5 -148.5t130.5 -48.5t130.5 48.5t46.5 148.5v439h69q29 0 43.5 17t14.5 54v59zM364 766h-60l77 144h82z" glyph-name="uni1EE8" horiz-adv-x="668" unicode="Ứ"/><glyph d="M638 820h68v-50q0 -71 -32.5 -107.5t-83.5 -36.5h-7v-362q0 -142 -65 -210t-184 -68t-184 68t-65 210v426h72v-439q0 -100 46.5 -148.5t130.5 -48.5t130.5 48.5t46.5 148.5v439h69q29 0 43.5 17t14.5 54v59zM301 -131q-13 13 -13 33t13 33t33 13t33 -13t13 -33t-13 -33 t-33 -13t-33 13z" glyph-name="uni1EF0" horiz-adv-x="668" unicode="Ự"/><glyph d="M638 820h68v-50q0 -71 -32.5 -107.5t-83.5 -36.5h-7v-362q0 -142 -65 -210t-184 -68t-184 68t-65 210v426h72v-439q0 -100 46.5 -148.5t130.5 -48.5t130.5 48.5t46.5 148.5v439h69q29 0 43.5 17t14.5 54v59zM364 766h-60l-99 144h82z" glyph-name="uni1EEA" horiz-adv-x="668" unicode="Ừ"/><glyph d="M638 820h68v-50q0 -71 -32.5 -107.5t-83.5 -36.5h-7v-362q0 -142 -65 -210t-184 -68t-184 68t-65 210v426h72v-439q0 -100 46.5 -148.5t130.5 -48.5t130.5 48.5t46.5 148.5v439h69q29 0 43.5 17t14.5 54v59zM341 780q11 22 11 40q0 17 -11 26.5t-28 9.5q-21 0 -39 -12 l-19 44q27 24 69 24q43 0 66 -21.5t23 -56.5q0 -44 -36 -77z" glyph-name="uni1EEC" horiz-adv-x="668" unicode="Ử"/><glyph d="M638 820h68v-50q0 -71 -32.5 -107.5t-83.5 -36.5h-7v-362q0 -142 -65 -210t-184 -68t-184 68t-65 210v426h72v-439q0 -100 46.5 -148.5t130.5 -48.5t130.5 48.5t46.5 148.5v439h69q29 0 43.5 17t14.5 54v59zM356.5 813q-14.5 6 -32.5 17q-13 9 -22 13t-18 4 q-19 0 -32.5 -9.5t-27.5 -30.5l-33 40q30 56 89 56q17 0 31.5 -6t32.5 -17q13 -9 22 -13t18 -4q19 0 33 9t27 31l33 -40q-30 -56 -89 -56q-17 0 -31.5 6z" glyph-name="uni1EEE" horiz-adv-x="668" unicode="Ữ"/><glyph d="M150 54q-65 68 -65 210v426h72v-439q0 -100 46.5 -148.5t130.5 -48.5t130.5 48.5t46.5 148.5v439h72v-426q0 -142 -65 -210t-184 -68t-184 68zM290 766h-56l47 144h76zM434 766h-56l47 144h76z" glyph-name="Uhungarumlaut" horiz-adv-x="668" unicode="Ű"/><glyph d="M150 54q-65 68 -65 210v426h72v-439q0 -100 46.5 -148.5t130.5 -48.5t130.5 48.5t46.5 148.5v439h72v-426q0 -142 -65 -210t-184 -68t-184 68zM460 826h-253v60h253v-60z" glyph-name="Umacron" horiz-adv-x="668" unicode="Ū"/><glyph d="M511 690h72v-426q0 -216 -153 -264q-34 -18 -51 -41t-17 -43q0 -17 9.5 -26t25.5 -9q14 0 31 7l12 -57q-12 -9 -24.5 -13t-34.5 -4q-37 0 -62 22.5t-25 61.5q0 51 40 88q-119 0 -184 68t-65 210v426h72v-439q0 -100 46.5 -148.5t130.5 -48.5t130.5 48.5t46.5 148.5v439z" glyph-name="Uogonek" horiz-adv-x="668" unicode="Ų"/><glyph d="M150 54q-65 68 -65 210v426h72v-439q0 -100 46.5 -148.5t130.5 -48.5t130.5 48.5t46.5 148.5v439h72v-426q0 -142 -65 -210t-184 -68t-184 68zM266 779q-27 27 -27 71t27 71t68 27t68 -27t27 -71t-27 -71t-68 -27t-68 27zM368.5 810.5q12.5 14.5 12.5 39.5t-12.5 39.5 t-34.5 14.5t-34.5 -14.5t-12.5 -39.5t12.5 -39.5t34.5 -14.5t34.5 14.5z" glyph-name="Uring" horiz-adv-x="668" unicode="Ů"/><glyph d="M150 54q-65 68 -65 210v426h72v-439q0 -100 46.5 -148.5t130.5 -48.5t130.5 48.5t46.5 148.5v439h72v-426q0 -142 -65 -210t-184 -68t-184 68zM356.5 813q-14.5 6 -32.5 17q-13 9 -22 13t-18 4q-19 0 -32.5 -9.5t-27.5 -30.5l-33 40q30 56 89 56q17 0 31.5 -6t32.5 -17 q13 -9 22 -13t18 -4q19 0 33 9t27 31l33 -40q-30 -56 -89 -56q-17 0 -31.5 6z" glyph-name="Utilde" horiz-adv-x="668" unicode="Ũ"/><glyph d="M344 0h-86l-238 690h75l206 -605l206 605h75z" glyph-name="V" horiz-adv-x="602" unicode="V"/><glyph d="M256 0h-91l-145 690h74l119 -602l151 502h88l151 -502l119 602h74l-145 -690h-91l-152 517z" glyph-name="W" horiz-adv-x="816" unicode="W"/><glyph d="M256 0h-91l-145 690h74l119 -602l151 502h88l151 -502l119 602h74l-145 -690h-91l-152 517zM438 766h-60l77 144h82z" glyph-name="Wacute" horiz-adv-x="816" unicode="Ẃ"/><glyph d="M256 0h-91l-145 690h74l119 -602l151 502h88l151 -502l119 602h74l-145 -690h-91l-152 517zM336 766h-57l100 144h57l100 -144h-57l-71 88z" glyph-name="Wcircumflex" horiz-adv-x="816" unicode="Ŵ"/><glyph d="M256 0h-91l-145 690h74l119 -602l151 502h88l151 -502l119 602h74l-145 -690h-91l-152 517zM300 798q-13 13 -13 33t13 33t33 13t33 -13t13 -33t-13 -33t-33 -13t-33 13zM450 798q-13 13 -13 33t13 33t33 13t33 -13t13 -33t-13 -33t-33 -13t-33 13z" glyph-name="Wdieresis" horiz-adv-x="816" unicode="Ẅ"/><glyph d="M256 0h-91l-145 690h74l119 -602l151 502h88l151 -502l119 602h74l-145 -690h-91l-152 517zM438 766h-60l-99 144h82z" glyph-name="Wgrave" horiz-adv-x="816" unicode="Ẁ"/><glyph d="M104 0h-84l231 361l-211 329h86l168 -273l167 273h86l-210 -329l231 -361h-83l-192 302z" glyph-name="X" horiz-adv-x="588" unicode="X"/><glyph d="M331 0h-72v273l-239 417h83l192 -344l191 344h84l-239 -417v-273z" glyph-name="Y" horiz-adv-x="590" unicode="Y"/><glyph d="M331 0h-72v273l-239 417h83l192 -344l191 344h84l-239 -417v-273zM325 766h-60l77 144h82z" glyph-name="Yacute" horiz-adv-x="590" unicode="Ý"/><glyph d="M331 0h-72v273l-239 417h83l192 -344l191 344h84l-239 -417v-273zM223 766h-57l100 144h57l100 -144h-57l-71 88z" glyph-name="Ycircumflex" horiz-adv-x="590" unicode="Ŷ"/><glyph d="M331 0h-72v273l-239 417h83l192 -344l191 344h84l-239 -417v-273zM187 798q-13 13 -13 33t13 33t33 13t33 -13t13 -33t-13 -33t-33 -13t-33 13zM337 798q-13 13 -13 33t13 33t33 13t33 -13t13 -33t-13 -33t-33 -13t-33 13z" glyph-name="Ydieresis" horiz-adv-x="590" unicode="Ÿ"/><glyph d="M331 0h-72v273l-239 417h83l192 -344l191 344h84l-239 -417v-273zM262 -131q-13 13 -13 33t13 33t33 13t33 -13t13 -33t-13 -33t-33 -13t-33 13z" glyph-name="uni1EF4" horiz-adv-x="590" unicode="Ỵ"/><glyph d="M331 0h-72v273l-239 417h83l192 -344l191 344h84l-239 -417v-273zM325 766h-60l-99 144h82z" glyph-name="Ygrave" horiz-adv-x="590" unicode="Ỳ"/><glyph d="M331 0h-72v273l-239 417h83l192 -344l191 344h84l-239 -417v-273zM302 780q11 22 11 40q0 17 -11 26.5t-28 9.5q-21 0 -39 -12l-19 44q27 24 69 24q43 0 66 -21.5t23 -56.5q0 -44 -36 -77z" glyph-name="uni1EF6" horiz-adv-x="590" unicode="Ỷ"/><glyph d="M331 0h-72v273l-239 417h83l192 -344l191 344h84l-239 -417v-273zM317.5 813q-14.5 6 -32.5 17q-13 9 -22 13t-18 4q-19 0 -32.5 -9.5t-27.5 -30.5l-33 40q30 56 89 56q17 0 31.5 -6t32.5 -17q13 -9 22 -13t18 -4q19 0 33 9t27 31l33 -40q-30 -56 -89 -56q-17 0 -31.5 6z" glyph-name="uni1EF8" horiz-adv-x="590" unicode="Ỹ"/><glyph d="M499 0h-448v70l359 552h-348v68h427v-70l-361 -552h371v-68z" glyph-name="Z" horiz-adv-x="551" unicode="Z"/><glyph d="M499 0h-448v70l359 552h-348v68h427v-70l-361 -552h371v-68zM306 766h-60l77 144h82z" glyph-name="Zacute" horiz-adv-x="551" unicode="Ź"/><glyph d="M499 0h-448v70l359 552h-348v68h427v-70l-361 -552h371v-68zM304 766h-57l-100 144h57l72 -88l71 88h57z" glyph-name="Zcaron" horiz-adv-x="551" unicode="Ž"/><glyph d="M499 0h-448v70l359 552h-348v68h427v-70l-361 -552h371v-68zM243 820q-13 13 -13 33t13 33t33 13t33 -13t13 -33t-13 -33t-33 -13t-33 13z" glyph-name="Zdotaccent" horiz-adv-x="551" unicode="Ż"/><glyph d="M288 314l-162 -246h373v-68h-448v70l160 244h-114v62h154l161 246h-350v68h427v-70l-160 -244h124v-62h-165z" glyph-name="uni01B5" horiz-adv-x="551" unicode="Ƶ"/><glyph d="M479 690h93l-261 -274l259 -416h-78l-229 365l-106 -111v-254h-72v690h72v-339z" glyph-name="glyph177" horiz-adv-x="605"/><glyph d="M479 690h93l-261 -274l259 -416h-78l-229 365l-106 -111v-254h-72v690h72v-339zM252 -185q22 12 32.5 23t12.5 26q-18 0 -31 11.5t-13 30.5q0 20 12.5 31t31.5 11q20 0 32.5 -13.5t12.5 -38.5q0 -39 -15 -64t-43 -43z" glyph-name="glyph178" horiz-adv-x="605"/><glyph d="M584 0h-77l-145 300h-205v-300h-72v690h292q89 0 143 -53t54 -142q0 -74 -36.5 -123t-100.5 -65zM157 622v-254h217q61 0 94.5 31.5t33.5 96.5q0 126 -128 126h-217z" glyph-name="glyph179" horiz-adv-x="623"/><glyph d="M584 0h-77l-145 300h-205v-300h-72v690h292q89 0 143 -53t54 -142q0 -74 -36.5 -123t-100.5 -65zM157 622v-254h217q61 0 94.5 31.5t33.5 96.5q0 126 -128 126h-217zM327 766h-60l77 144h82z" glyph-name="glyph180" horiz-adv-x="623"/><glyph d="M584 0h-77l-145 300h-205v-300h-72v690h292q89 0 143 -53t54 -142q0 -74 -36.5 -123t-100.5 -65zM157 622v-254h217q61 0 94.5 31.5t33.5 96.5q0 126 -128 126h-217zM325 766h-57l-100 144h57l72 -88l71 88h57z" glyph-name="glyph181" horiz-adv-x="623"/><glyph d="M584 0h-77l-145 300h-205v-300h-72v690h292q89 0 143 -53t54 -142q0 -74 -36.5 -123t-100.5 -65zM157 622v-254h217q61 0 94.5 31.5t33.5 96.5q0 126 -128 126h-217zM252 -185q22 12 32.5 23t12.5 26q-18 0 -31 11.5t-13 30.5q0 20 12.5 31t31.5 11q20 0 32.5 -13.5 t12.5 -38.5q0 -39 -15 -64t-43 -43z" glyph-name="glyph182" horiz-adv-x="623"/><glyph d="M129 0h-70l82 690h97l181 -624l181 624h97l82 -690h-71l-70 607l-177 -607h-84l-177 607z" glyph-name="glyph183" horiz-adv-x="838"/><glyph d="M256 0h-91l-145 690h74l119 -602l151 602h88l151 -602l119 602h74l-145 -690h-91l-152 617z" glyph-name="glyph184" horiz-adv-x="816"/><glyph d="M256 0h-91l-145 690h74l119 -602l151 602h88l151 -602l119 602h74l-145 -690h-91l-152 617zM438 766h-60l77 144h82z" glyph-name="glyph185" horiz-adv-x="816"/><glyph d="M256 0h-91l-145 690h74l119 -602l151 602h88l151 -602l119 602h74l-145 -690h-91l-152 617zM336 766h-57l100 144h57l100 -144h-57l-71 88z" glyph-name="glyph186" horiz-adv-x="816"/><glyph d="M256 0h-91l-145 690h74l119 -602l151 602h88l151 -602l119 602h74l-145 -690h-91l-152 617zM300 798q-13 13 -13 33t13 33t33 13t33 -13t13 -33t-13 -33t-33 -13t-33 13zM450 798q-13 13 -13 33t13 33t33 13t33 -13t13 -33t-13 -33t-33 -13t-33 13z" glyph-name="glyph187" horiz-adv-x="816"/><glyph d="M256 0h-91l-145 690h74l119 -602l151 602h88l151 -602l119 602h74l-145 -690h-91l-152 617zM438 766h-60l-99 144h82z" glyph-name="glyph188" horiz-adv-x="816"/><glyph d="M105 20.5q-44 34.5 -44 102.5q0 85 77.5 124t226.5 41v31q0 52 -28 79.5t-82 27.5q-37 0 -74 -17t-66 -48l-40 46q31 34 79 55.5t100 21.5q87 0 133 -41.5t46 -123.5v-319h-59l-9 70q-21 -35 -64 -59.5t-90 -24.5q-62 0 -106 34.5zM365 134v101q-122 -2 -178.5 -28.5 t-56.5 -81.5q0 -40 25 -60.5t69 -20.5q85 0 141 90z" glyph-name="a" horiz-adv-x="509" unicode="a"/><glyph d="M105 20.5q-44 34.5 -44 102.5q0 85 77.5 124t226.5 41v31q0 52 -28 79.5t-82 27.5q-37 0 -74 -17t-66 -48l-40 46q31 34 79 55.5t100 21.5q87 0 133 -41.5t46 -123.5v-319h-59l-9 70q-21 -35 -64 -59.5t-90 -24.5q-62 0 -106 34.5zM365 134v101q-122 -2 -178.5 -28.5 t-56.5 -81.5q0 -40 25 -60.5t69 -20.5q85 0 141 90zM277 546h-60l77 144h82z" glyph-name="aacute" horiz-adv-x="509" unicode="á"/><glyph d="M105 20.5q-44 34.5 -44 102.5q0 85 77.5 124t226.5 41v31q0 52 -28 79.5t-82 27.5q-37 0 -74 -17t-66 -48l-40 46q31 34 79 55.5t100 21.5q87 0 133 -41.5t46 -123.5v-319h-59l-9 70q-21 -35 -64 -59.5t-90 -24.5q-62 0 -106 34.5zM365 134v101q-122 -2 -178.5 -28.5 t-56.5 -81.5q0 -40 25 -60.5t69 -20.5q85 0 141 90zM154 583.5q-32 37.5 -32 106.5h53q0 -42 17.5 -67t54.5 -25t54.5 25t17.5 67h53q0 -69 -32 -106.5t-93 -37.5t-93 37.5z" glyph-name="abreve" horiz-adv-x="509" unicode="ă"/><glyph d="M105 20.5q-44 34.5 -44 102.5q0 85 77.5 124t226.5 41v31q0 52 -28 79.5t-82 27.5q-37 0 -74 -17t-66 -48l-40 46q31 34 79 55.5t100 21.5q87 0 133 -41.5t46 -123.5v-319h-59l-9 70q-21 -35 -64 -59.5t-90 -24.5q-62 0 -106 34.5zM365 134v101q-122 -2 -178.5 -28.5 t-56.5 -81.5q0 -40 25 -60.5t69 -20.5q85 0 141 90zM154 583.5q-32 37.5 -32 106.5h53q0 -42 17.5 -67t54.5 -25t54.5 25t17.5 67h53q0 -69 -32 -106.5t-93 -37.5t-93 37.5zM277 723h-60l77 144h82z" glyph-name="uni1EAF" horiz-adv-x="509" unicode="ắ"/><glyph d="M105 20.5q-44 34.5 -44 102.5q0 85 77.5 124t226.5 41v31q0 52 -28 79.5t-82 27.5q-37 0 -74 -17t-66 -48l-40 46q31 34 79 55.5t100 21.5q87 0 133 -41.5t46 -123.5v-319h-59l-9 70q-21 -35 -64 -59.5t-90 -24.5q-62 0 -106 34.5zM365 134v101q-122 -2 -178.5 -28.5 t-56.5 -81.5q0 -40 25 -60.5t69 -20.5q85 0 141 90zM222 -131q-13 13 -13 33t13 33t33 13t33 -13t13 -33t-13 -33t-33 -13t-33 13zM154 583.5q-32 37.5 -32 106.5h53q0 -42 17.5 -67t54.5 -25t54.5 25t17.5 67h53q0 -69 -32 -106.5t-93 -37.5t-93 37.5z" glyph-name="uni1EB7" horiz-adv-x="509" unicode="ặ"/><glyph d="M105 20.5q-44 34.5 -44 102.5q0 85 77.5 124t226.5 41v31q0 52 -28 79.5t-82 27.5q-37 0 -74 -17t-66 -48l-40 46q31 34 79 55.5t100 21.5q87 0 133 -41.5t46 -123.5v-319h-59l-9 70q-21 -35 -64 -59.5t-90 -24.5q-62 0 -106 34.5zM365 134v101q-122 -2 -178.5 -28.5 t-56.5 -81.5q0 -40 25 -60.5t69 -20.5q85 0 141 90zM154 583.5q-32 37.5 -32 106.5h53q0 -42 17.5 -67t54.5 -25t54.5 25t17.5 67h53q0 -69 -32 -106.5t-93 -37.5t-93 37.5zM277 723h-60l-99 144h82z" glyph-name="uni1EB1" horiz-adv-x="509" unicode="ằ"/><glyph d="M105 20.5q-44 34.5 -44 102.5q0 85 77.5 124t226.5 41v31q0 52 -28 79.5t-82 27.5q-37 0 -74 -17t-66 -48l-40 46q31 34 79 55.5t100 21.5q87 0 133 -41.5t46 -123.5v-319h-59l-9 70q-21 -35 -64 -59.5t-90 -24.5q-62 0 -106 34.5zM365 134v101q-122 -2 -178.5 -28.5 t-56.5 -81.5q0 -40 25 -60.5t69 -20.5q85 0 141 90zM154 583.5q-32 37.5 -32 106.5h53q0 -42 17.5 -67t54.5 -25t54.5 25t17.5 67h53q0 -69 -32 -106.5t-93 -37.5t-93 37.5zM254 737q11 22 11 40q0 17 -11 26.5t-28 9.5q-21 0 -39 -12l-19 44q27 24 69 24q43 0 66 -21.5 t23 -56.5q0 -44 -36 -77z" glyph-name="uni1EB3" horiz-adv-x="509" unicode="ẳ"/><glyph d="M105 20.5q-44 34.5 -44 102.5q0 85 77.5 124t226.5 41v31q0 52 -28 79.5t-82 27.5q-37 0 -74 -17t-66 -48l-40 46q31 34 79 55.5t100 21.5q87 0 133 -41.5t46 -123.5v-319h-59l-9 70q-21 -35 -64 -59.5t-90 -24.5q-62 0 -106 34.5zM365 134v101q-122 -2 -178.5 -28.5 t-56.5 -81.5q0 -40 25 -60.5t69 -20.5q85 0 141 90zM154 583.5q-32 37.5 -32 106.5h53q0 -42 17.5 -67t54.5 -25t54.5 25t17.5 67h53q0 -69 -32 -106.5t-93 -37.5t-93 37.5zM269.5 756q-14.5 6 -32.5 17q-13 9 -22 13t-18 4q-19 0 -32.5 -9.5t-27.5 -30.5l-33 40 q30 56 89 56q17 0 31.5 -6t32.5 -17q13 -9 22 -13t18 -4q19 0 33 9t27 31l33 -40q-30 -56 -89 -56q-17 0 -31.5 6z" glyph-name="uni1EB5" horiz-adv-x="509" unicode="ẵ"/><glyph d="M105 20.5q-44 34.5 -44 102.5q0 85 77.5 124t226.5 41v31q0 52 -28 79.5t-82 27.5q-37 0 -74 -17t-66 -48l-40 46q31 34 79 55.5t100 21.5q87 0 133 -41.5t46 -123.5v-319h-59l-9 70q-21 -35 -64 -59.5t-90 -24.5q-62 0 -106 34.5zM365 134v101q-122 -2 -178.5 -28.5 t-56.5 -81.5q0 -40 25 -60.5t69 -20.5q85 0 141 90zM175 546h-57l100 144h57l100 -144h-57l-71 88z" glyph-name="acircumflex" horiz-adv-x="509" unicode="â"/><glyph d="M105 20.5q-44 34.5 -44 102.5q0 85 77.5 124t226.5 41v31q0 52 -28 79.5t-82 27.5q-37 0 -74 -17t-66 -48l-40 46q31 34 79 55.5t100 21.5q87 0 133 -41.5t46 -123.5v-319h-59l-9 70q-21 -35 -64 -59.5t-90 -24.5q-62 0 -106 34.5zM365 134v101q-122 -2 -178.5 -28.5 t-56.5 -81.5q0 -40 25 -60.5t69 -20.5q85 0 141 90zM383 690h-60l57 144h76zM175 546h-57l100 144h57l100 -144h-57l-71 88z" glyph-name="uni1EA5" horiz-adv-x="509" unicode="ấ"/><glyph d="M105 20.5q-44 34.5 -44 102.5q0 85 77.5 124t226.5 41v31q0 52 -28 79.5t-82 27.5q-37 0 -74 -17t-66 -48l-40 46q31 34 79 55.5t100 21.5q87 0 133 -41.5t46 -123.5v-319h-59l-9 70q-21 -35 -64 -59.5t-90 -24.5q-62 0 -106 34.5zM365 134v101q-122 -2 -178.5 -28.5 t-56.5 -81.5q0 -40 25 -60.5t69 -20.5q85 0 141 90zM222 -131q-13 13 -13 33t13 33t33 13t33 -13t13 -33t-13 -33t-33 -13t-33 13zM175 546h-57l100 144h57l100 -144h-57l-71 88z" glyph-name="uni1EAD" horiz-adv-x="509" unicode="ậ"/><glyph d="M105 20.5q-44 34.5 -44 102.5q0 85 77.5 124t226.5 41v31q0 52 -28 79.5t-82 27.5q-37 0 -74 -17t-66 -48l-40 46q31 34 79 55.5t100 21.5q87 0 133 -41.5t46 -123.5v-319h-59l-9 70q-21 -35 -64 -59.5t-90 -24.5q-62 0 -106 34.5zM365 134v101q-122 -2 -178.5 -28.5 t-56.5 -81.5q0 -40 25 -60.5t69 -20.5q85 0 141 90zM396 690h-60l-73 144h76zM175 546h-57l100 144h57l100 -144h-57l-71 88z" glyph-name="uni1EA7" horiz-adv-x="509" unicode="ầ"/><glyph d="M105 20.5q-44 34.5 -44 102.5q0 85 77.5 124t226.5 41v31q0 52 -28 79.5t-82 27.5q-37 0 -74 -17t-66 -48l-40 46q31 34 79 55.5t100 21.5q87 0 133 -41.5t46 -123.5v-319h-59l-9 70q-21 -35 -64 -59.5t-90 -24.5q-62 0 -106 34.5zM365 134v101q-122 -2 -178.5 -28.5 t-56.5 -81.5q0 -40 25 -60.5t69 -20.5q85 0 141 90zM319 706q11 22 11 40q0 17 -11 26.5t-28 9.5q-21 0 -39 -12l-19 44q27 24 69 24q43 0 66 -21.5t23 -56.5q0 -44 -36 -77zM175 546h-57l100 144h57l100 -144h-57l-71 88z" glyph-name="uni1EA9" horiz-adv-x="509" unicode="ẩ"/><glyph d="M105 20.5q-44 34.5 -44 102.5q0 85 77.5 124t226.5 41v31q0 52 -28 79.5t-82 27.5q-37 0 -74 -17t-66 -48l-40 46q31 34 79 55.5t100 21.5q87 0 133 -41.5t46 -123.5v-319h-59l-9 70q-21 -35 -64 -59.5t-90 -24.5q-62 0 -106 34.5zM365 134v101q-122 -2 -178.5 -28.5 t-56.5 -81.5q0 -40 25 -60.5t69 -20.5q85 0 141 90zM104 777q30 56 89 56q17 0 31.5 -6t32.5 -17q13 -9 22 -13t18 -4q19 0 33 9t27 31l33 -40q-30 -56 -89 -56q-17 0 -31.5 6t-32.5 17q-13 9 -22 13t-18 4q-19 0 -32.5 -9.5t-27.5 -30.5zM175 546h-57l100 144h57l100 -144 h-57l-71 88z" glyph-name="uni1EAB" horiz-adv-x="509" unicode="ẫ"/><glyph d="M105 20.5q-44 34.5 -44 102.5q0 85 77.5 124t226.5 41v31q0 52 -28 79.5t-82 27.5q-37 0 -74 -17t-66 -48l-40 46q31 34 79 55.5t100 21.5q87 0 133 -41.5t46 -123.5v-319h-59l-9 70q-21 -35 -64 -59.5t-90 -24.5q-62 0 -106 34.5zM365 134v101q-122 -2 -178.5 -28.5 t-56.5 -81.5q0 -40 25 -60.5t69 -20.5q85 0 141 90zM139 578q-13 13 -13 33t13 33t33 13t33 -13t13 -33t-13 -33t-33 -13t-33 13zM289 578q-13 13 -13 33t13 33t33 13t33 -13t13 -33t-13 -33t-33 -13t-33 13z" glyph-name="adieresis" horiz-adv-x="509" unicode="ä"/><glyph d="M105 20.5q-44 34.5 -44 102.5q0 85 77.5 124t226.5 41v31q0 52 -28 79.5t-82 27.5q-37 0 -74 -17t-66 -48l-40 46q31 34 79 55.5t100 21.5q87 0 133 -41.5t46 -123.5v-319h-59l-9 70q-21 -35 -64 -59.5t-90 -24.5q-62 0 -106 34.5zM365 134v101q-122 -2 -178.5 -28.5 t-56.5 -81.5q0 -40 25 -60.5t69 -20.5q85 0 141 90zM222 -131q-13 13 -13 33t13 33t33 13t33 -13t13 -33t-13 -33t-33 -13t-33 13z" glyph-name="uni1EA1" horiz-adv-x="509" unicode="ạ"/><glyph d="M105 20.5q-44 34.5 -44 102.5q0 85 77.5 124t226.5 41v31q0 52 -28 79.5t-82 27.5q-37 0 -74 -17t-66 -48l-40 46q31 34 79 55.5t100 21.5q87 0 133 -41.5t46 -123.5v-319h-59l-9 70q-21 -35 -64 -59.5t-90 -24.5q-62 0 -106 34.5zM365 134v101q-122 -2 -178.5 -28.5 t-56.5 -81.5q0 -40 25 -60.5t69 -20.5q85 0 141 90zM277 546h-60l-99 144h82z" glyph-name="agrave" horiz-adv-x="509" unicode="à"/><glyph d="M105 20.5q-44 34.5 -44 102.5q0 85 77.5 124t226.5 41v31q0 52 -28 79.5t-82 27.5q-37 0 -74 -17t-66 -48l-40 46q31 34 79 55.5t100 21.5q87 0 133 -41.5t46 -123.5v-319h-59l-9 70q-21 -35 -64 -59.5t-90 -24.5q-62 0 -106 34.5zM365 134v101q-122 -2 -178.5 -28.5 t-56.5 -81.5q0 -40 25 -60.5t69 -20.5q85 0 141 90zM254 560q11 22 11 40q0 17 -11 26.5t-28 9.5q-21 0 -39 -12l-19 44q27 24 69 24q43 0 66 -21.5t23 -56.5q0 -44 -36 -77z" glyph-name="uni1EA3" horiz-adv-x="509" unicode="ả"/><glyph d="M105 20.5q-44 34.5 -44 102.5q0 85 77.5 124t226.5 41v31q0 52 -28 79.5t-82 27.5q-37 0 -74 -17t-66 -48l-40 46q31 34 79 55.5t100 21.5q87 0 133 -41.5t46 -123.5v-319h-59l-9 70q-21 -35 -64 -59.5t-90 -24.5q-62 0 -106 34.5zM365 134v101q-122 -2 -178.5 -28.5 t-56.5 -81.5q0 -40 25 -60.5t69 -20.5q85 0 141 90zM373 606h-253v60h253v-60z" glyph-name="amacron" horiz-adv-x="509" unicode="ā"/><glyph d="M442 -169q-12 -9 -24.5 -13t-34.5 -4q-37 0 -62 22.5t-25 61.5t20 65t56 50l-7 57q-21 -35 -64 -59.5t-90 -24.5q-62 0 -106 34.5t-44 102.5q0 85 77.5 124t226.5 41v31q0 52 -28 79.5t-82 27.5q-37 0 -74 -17t-66 -48l-40 46q31 34 79 55.5t100 21.5q87 0 133 -41.5 t46 -123.5v-319q-35 -18 -52 -41t-17 -43q0 -17 9.5 -26t25.5 -9q14 0 31 7zM365 235q-122 -2 -178.5 -28.5t-56.5 -81.5q0 -40 25 -60.5t69 -20.5q85 0 141 90v101z" glyph-name="aogonek" horiz-adv-x="509" unicode="ą"/><glyph d="M105 20.5q-44 34.5 -44 102.5q0 85 77.5 124t226.5 41v31q0 52 -28 79.5t-82 27.5q-37 0 -74 -17t-66 -48l-40 46q31 34 79 55.5t100 21.5q87 0 133 -41.5t46 -123.5v-319h-59l-9 70q-21 -35 -64 -59.5t-90 -24.5q-62 0 -106 34.5zM365 134v101q-122 -2 -178.5 -28.5 t-56.5 -81.5q0 -40 25 -60.5t69 -20.5q85 0 141 90zM179 559q-27 27 -27 71t27 71t68 27t68 -27t27 -71t-27 -71t-68 -27t-68 27zM281.5 590.5q12.5 14.5 12.5 39.5t-12.5 39.5t-34.5 14.5t-34.5 -14.5t-12.5 -39.5t12.5 -39.5t34.5 -14.5t34.5 14.5z" glyph-name="aring" horiz-adv-x="509" unicode="å"/><glyph d="M105 20.5q-44 34.5 -44 102.5q0 85 77.5 124t226.5 41v31q0 52 -28 79.5t-82 27.5q-37 0 -74 -17t-66 -48l-40 46q31 34 79 55.5t100 21.5q87 0 133 -41.5t46 -123.5v-319h-59l-9 70q-21 -35 -64 -59.5t-90 -24.5q-62 0 -106 34.5zM365 134v101q-122 -2 -178.5 -28.5 t-56.5 -81.5q0 -40 25 -60.5t69 -20.5q85 0 141 90zM269.5 593q-14.5 6 -32.5 17q-13 9 -22 13t-18 4q-19 0 -32.5 -9.5t-27.5 -30.5l-33 40q30 56 89 56q17 0 31.5 -6t32.5 -17q13 -9 22 -13t18 -4q19 0 33 9t27 31l33 -40q-30 -56 -89 -56q-17 0 -31.5 6z" glyph-name="atilde" horiz-adv-x="509" unicode="ã"/><glyph d="M105 20.5q-44 34.5 -44 102.5q0 80 77.5 116.5t226.5 38.5v41q0 52 -28 79.5t-82 27.5q-37 0 -74 -17t-66 -48l-40 46q31 34 79 55.5t100 21.5q60 0 101 -20t60 -60q29 38 70.5 59t94.5 21q88 0 142.5 -59t54.5 -169q0 -23 -1 -35h-343q4 -82 45 -129.5t108 -47.5 q92 0 141 78l52 -34q-37 -56 -82.5 -79t-112.5 -23q-62 0 -108.5 28t-73.5 77q-32 -47 -79.5 -76t-111.5 -29q-62 0 -106 34.5zM713 279q-2 76 -40 111.5t-97 35.5q-56 0 -93.5 -38t-46.5 -109h277zM303 66.5q36 22.5 62 67.5v87q-121 -1 -178 -24.5t-57 -71.5 q0 -40 25 -60.5t69 -20.5q43 0 79 22.5z" glyph-name="ae" horiz-adv-x="824" unicode="æ"/><glyph d="M105 20.5q-44 34.5 -44 102.5q0 80 77.5 116.5t226.5 38.5v41q0 52 -28 79.5t-82 27.5q-37 0 -74 -17t-66 -48l-40 46q31 34 79 55.5t100 21.5q60 0 101 -20t60 -60q29 38 70.5 59t94.5 21q88 0 142.5 -59t54.5 -169q0 -23 -1 -35h-343q4 -82 45 -129.5t108 -47.5 q92 0 141 78l52 -34q-37 -56 -82.5 -79t-112.5 -23q-62 0 -108.5 28t-73.5 77q-32 -47 -79.5 -76t-111.5 -29q-62 0 -106 34.5zM713 279q-2 76 -40 111.5t-97 35.5q-56 0 -93.5 -38t-46.5 -109h277zM303 66.5q36 22.5 62 67.5v87q-121 -1 -178 -24.5t-57 -71.5 q0 -40 25 -60.5t69 -20.5q43 0 79 22.5zM442 546h-60l77 144h82z" glyph-name="aeacute" horiz-adv-x="824" unicode="ǽ"/><glyph d="M209.5 7.5q-41.5 21.5 -63.5 54.5l-6 -62h-60v730h68v-319q22 33 63 53t90 20q54 0 101 -29t75 -85t28 -135t-28 -135t-75 -85t-101 -29q-50 0 -91.5 21.5zM359.5 63.5q33.5 19.5 54.5 62.5t21 109t-21 109t-54.5 62.5t-71.5 19.5q-84 0 -140 -88v-206q56 -88 140 -88 q38 0 71.5 19.5z" glyph-name="b" horiz-adv-x="553" unicode="b"/><glyph d="M157 16q-50 30 -79.5 86.5t-29.5 132.5t30 132.5t81 86.5t112 30q64 0 113.5 -30.5t74.5 -89.5l-55 -34q-23 48 -55 71t-80 23q-67 0 -108.5 -49.5t-41.5 -139.5t41.5 -139.5t106.5 -49.5q53 0 87.5 26.5t57.5 75.5l54 -35q-65 -127 -197 -127q-62 0 -112 30z" glyph-name="c" horiz-adv-x="504" unicode="c"/><glyph d="M157 16q-50 30 -79.5 86.5t-29.5 132.5t30 132.5t81 86.5t112 30q64 0 113.5 -30.5t74.5 -89.5l-55 -34q-23 48 -55 71t-80 23q-67 0 -108.5 -49.5t-41.5 -139.5t41.5 -139.5t106.5 -49.5q53 0 87.5 26.5t57.5 75.5l54 -35q-65 -127 -197 -127q-62 0 -112 30zM300 546 h-60l77 144h82z" glyph-name="cacute" horiz-adv-x="504" unicode="ć"/><glyph d="M157 16q-50 30 -79.5 86.5t-29.5 132.5t30 132.5t81 86.5t112 30q64 0 113.5 -30.5t74.5 -89.5l-55 -34q-23 48 -55 71t-80 23q-67 0 -108.5 -49.5t-41.5 -139.5t41.5 -139.5t106.5 -49.5q53 0 87.5 26.5t57.5 75.5l54 -35q-65 -127 -197 -127q-62 0 -112 30zM298 546 h-57l-100 144h57l72 -88l71 88h57z" glyph-name="ccaron" horiz-adv-x="504" unicode="č"/><glyph d="M466 113q-57 -113 -168 -125l-31 -45h3q38 0 58.5 -17.5t20.5 -51.5q0 -33 -21 -52t-61 -19q-45 0 -77 21l25 37q24 -15 52 -15q32 0 32 28q0 12 -9 20t-22 8t-29 -6l-31 22l33 70q-55 7 -99 38t-69 84.5t-25 124.5q0 76 30 132.5t81 86.5t112 30q64 0 113.5 -30.5 t74.5 -89.5l-55 -34q-23 48 -55 71t-80 23q-67 0 -108.5 -49.5t-41.5 -139.5t41.5 -139.5t106.5 -49.5q53 0 87.5 26.5t57.5 75.5z" glyph-name="ccedilla" horiz-adv-x="504" unicode="ç"/><glyph d="M157 16q-50 30 -79.5 86.5t-29.5 132.5t30 132.5t81 86.5t112 30q64 0 113.5 -30.5t74.5 -89.5l-55 -34q-23 48 -55 71t-80 23q-67 0 -108.5 -49.5t-41.5 -139.5t41.5 -139.5t106.5 -49.5q53 0 87.5 26.5t57.5 75.5l54 -35q-65 -127 -197 -127q-62 0 -112 30zM198 546 h-57l100 144h57l100 -144h-57l-71 88z" glyph-name="ccircumflex" horiz-adv-x="504" unicode="ĉ"/><glyph d="M157 16q-50 30 -79.5 86.5t-29.5 132.5t30 132.5t81 86.5t112 30q64 0 113.5 -30.5t74.5 -89.5l-55 -34q-23 48 -55 71t-80 23q-67 0 -108.5 -49.5t-41.5 -139.5t41.5 -139.5t106.5 -49.5q53 0 87.5 26.5t57.5 75.5l54 -35q-65 -127 -197 -127q-62 0 -112 30zM237 600 q-13 13 -13 33t13 33t33 13t33 -13t13 -33t-13 -33t-33 -13t-33 13z" glyph-name="cdotaccent" horiz-adv-x="504" unicode="ċ"/><glyph d="M151 15q-47 29 -75 85t-28 135t28 135t75 85t101 29q49 0 90 -20t63 -53v319h68v-730h-60l-6 62q-22 -33 -63.5 -54.5t-91.5 -21.5q-54 0 -101 29zM405 132v206q-56 88 -140 88q-38 0 -71.5 -19.5t-54.5 -62.5t-21 -109t21 -109t54.5 -62.5t71.5 -19.5q84 0 140 88z" glyph-name="d" horiz-adv-x="553" unicode="d"/><glyph d="M487 638l-112 -50q98 -119 98 -290q0 -153 -56.5 -232.5t-161.5 -79.5q-56 0 -103 26.5t-75.5 78t-28.5 124.5t28 124.5t74.5 78t101.5 26.5q49 0 89.5 -24t63.5 -62q-16 121 -92 203l-169 -76l-25 57l144 64q-46 36 -104 60l50 51q66 -32 121 -81l131 58zM370 102.5 q35 58.5 35 182.5q-56 101 -140 101q-60 0 -103.5 -42t-43.5 -129q0 -59 21 -97.5t53.5 -56t67.5 -17.5q75 0 110 58.5z" glyph-name="eth" horiz-adv-x="529" unicode="ð"/><glyph d="M151 15q-47 29 -75 85t-28 135t28 135t75 85t101 29q49 0 90 -20t63 -53v319h68v-730h-60l-6 62q-22 -33 -63.5 -54.5t-91.5 -21.5q-54 0 -101 29zM405 132v206q-56 88 -140 88q-38 0 -71.5 -19.5t-54.5 -62.5t-21 -109t21 -109t54.5 -62.5t71.5 -19.5q84 0 140 88z M553 497q30 26 47 49t20 46q-23 0 -38 15t-15 38t15 38t39 15q23 0 38.5 -18.5t15.5 -51.5q0 -98 -85 -162z" glyph-name="dcaron" horiz-adv-x="675" unicode="ď"/><glyph d="M547 630v-58h-74v-572h-60l-6 62q-22 -33 -63.5 -54.5t-91.5 -21.5q-54 0 -101 29t-75 85t-28 135t28 135t75 85t101 29q49 0 90 -20t63 -53v161h-164v58h164v100h68v-100h74zM405 132v206q-56 88 -140 88q-38 0 -71.5 -19.5t-54.5 -62.5t-21 -109t21 -109t54.5 -62.5 t71.5 -19.5q84 0 140 88z" glyph-name="dcroat" horiz-adv-x="553" unicode="đ"/><glyph d="M147.5 20q-49.5 34 -74.5 91t-25 126t25.5 125.5t74.5 89t115 32.5q88 0 142.5 -59t54.5 -169q0 -23 -1 -35h-343q4 -82 45 -129.5t108 -47.5q92 0 141 78l52 -34q-37 -56 -82.5 -79t-112.5 -23q-70 0 -119.5 34zM396 279q-2 76 -40 111.5t-97 35.5q-56 0 -93.5 -38 t-46.5 -109h277z" glyph-name="e" horiz-adv-x="507" unicode="e"/><glyph d="M147.5 20q-49.5 34 -74.5 91t-25 126t25.5 125.5t74.5 89t115 32.5q88 0 142.5 -59t54.5 -169q0 -23 -1 -35h-343q4 -82 45 -129.5t108 -47.5q92 0 141 78l52 -34q-37 -56 -82.5 -79t-112.5 -23q-70 0 -119.5 34zM396 279q-2 76 -40 111.5t-97 35.5q-56 0 -93.5 -38 t-46.5 -109h277zM284 546h-60l77 144h82z" glyph-name="eacute" horiz-adv-x="507" unicode="é"/><glyph d="M147.5 20q-49.5 34 -74.5 91t-25 126t25.5 125.5t74.5 89t115 32.5q88 0 142.5 -59t54.5 -169q0 -23 -1 -35h-343q4 -82 45 -129.5t108 -47.5q92 0 141 78l52 -34q-37 -56 -82.5 -79t-112.5 -23q-70 0 -119.5 34zM396 279q-2 76 -40 111.5t-97 35.5q-56 0 -93.5 -38 t-46.5 -109h277zM161 583.5q-32 37.5 -32 106.5h53q0 -42 17.5 -67t54.5 -25t54.5 25t17.5 67h53q0 -69 -32 -106.5t-93 -37.5t-93 37.5z" glyph-name="ebreve" horiz-adv-x="507" unicode="ĕ"/><glyph d="M147.5 20q-49.5 34 -74.5 91t-25 126t25.5 125.5t74.5 89t115 32.5q88 0 142.5 -59t54.5 -169q0 -23 -1 -35h-343q4 -82 45 -129.5t108 -47.5q92 0 141 78l52 -34q-37 -56 -82.5 -79t-112.5 -23q-70 0 -119.5 34zM396 279q-2 76 -40 111.5t-97 35.5q-56 0 -93.5 -38 t-46.5 -109h277zM282 546h-57l-100 144h57l72 -88l71 88h57z" glyph-name="ecaron" horiz-adv-x="507" unicode="ě"/><glyph d="M147.5 20q-49.5 34 -74.5 91t-25 126t25.5 125.5t74.5 89t115 32.5q88 0 142.5 -59t54.5 -169q0 -23 -1 -35h-343q4 -82 45 -129.5t108 -47.5q92 0 141 78l52 -34q-37 -56 -82.5 -79t-112.5 -23q-70 0 -119.5 34zM396 279q-2 76 -40 111.5t-97 35.5q-56 0 -93.5 -38 t-46.5 -109h277zM182 546h-57l100 144h57l100 -144h-57l-71 88z" glyph-name="ecircumflex" horiz-adv-x="507" unicode="ê"/><glyph d="M147.5 20q-49.5 34 -74.5 91t-25 126t25.5 125.5t74.5 89t115 32.5q88 0 142.5 -59t54.5 -169q0 -23 -1 -35h-343q4 -82 45 -129.5t108 -47.5q92 0 141 78l52 -34q-37 -56 -82.5 -79t-112.5 -23q-70 0 -119.5 34zM396 279q-2 76 -40 111.5t-97 35.5q-56 0 -93.5 -38 t-46.5 -109h277zM390 690h-60l57 144h76zM182 546h-57l100 144h57l100 -144h-57l-71 88z" glyph-name="uni1EBF" horiz-adv-x="507" unicode="ế"/><glyph d="M147.5 20q-49.5 34 -74.5 91t-25 126t25.5 125.5t74.5 89t115 32.5q88 0 142.5 -59t54.5 -169q0 -23 -1 -35h-343q4 -82 45 -129.5t108 -47.5q92 0 141 78l52 -34q-37 -56 -82.5 -79t-112.5 -23q-70 0 -119.5 34zM396 279q-2 76 -40 111.5t-97 35.5q-56 0 -93.5 -38 t-46.5 -109h277zM221 -131q-13 13 -13 33t13 33t33 13t33 -13t13 -33t-13 -33t-33 -13t-33 13zM182 546h-57l100 144h57l100 -144h-57l-71 88z" glyph-name="uni1EC7" horiz-adv-x="507" unicode="ệ"/><glyph d="M147.5 20q-49.5 34 -74.5 91t-25 126t25.5 125.5t74.5 89t115 32.5q88 0 142.5 -59t54.5 -169q0 -23 -1 -35h-343q4 -82 45 -129.5t108 -47.5q92 0 141 78l52 -34q-37 -56 -82.5 -79t-112.5 -23q-70 0 -119.5 34zM396 279q-2 76 -40 111.5t-97 35.5q-56 0 -93.5 -38 t-46.5 -109h277zM403 690h-60l-73 144h76zM182 546h-57l100 144h57l100 -144h-57l-71 88z" glyph-name="uni1EC1" horiz-adv-x="507" unicode="ề"/><glyph d="M147.5 20q-49.5 34 -74.5 91t-25 126t25.5 125.5t74.5 89t115 32.5q88 0 142.5 -59t54.5 -169q0 -23 -1 -35h-343q4 -82 45 -129.5t108 -47.5q92 0 141 78l52 -34q-37 -56 -82.5 -79t-112.5 -23q-70 0 -119.5 34zM396 279q-2 76 -40 111.5t-97 35.5q-56 0 -93.5 -38 t-46.5 -109h277zM326 706q11 22 11 40q0 17 -11 26.5t-28 9.5q-21 0 -39 -12l-19 44q27 24 69 24q43 0 66 -21.5t23 -56.5q0 -44 -36 -77zM182 546h-57l100 144h57l100 -144h-57l-71 88z" glyph-name="uni1EC3" horiz-adv-x="507" unicode="ể"/><glyph d="M147.5 20q-49.5 34 -74.5 91t-25 126t25.5 125.5t74.5 89t115 32.5q88 0 142.5 -59t54.5 -169q0 -23 -1 -35h-343q4 -82 45 -129.5t108 -47.5q92 0 141 78l52 -34q-37 -56 -82.5 -79t-112.5 -23q-70 0 -119.5 34zM396 279q-2 76 -40 111.5t-97 35.5q-56 0 -93.5 -38 t-46.5 -109h277zM111 777q30 56 89 56q17 0 31.5 -6t32.5 -17q13 -9 22 -13t18 -4q19 0 33 9t27 31l33 -40q-30 -56 -89 -56q-17 0 -31.5 6t-32.5 17q-13 9 -22 13t-18 4q-19 0 -32.5 -9.5t-27.5 -30.5zM182 546h-57l100 144h57l100 -144h-57l-71 88z" glyph-name="uni1EC5" horiz-adv-x="507" unicode="ễ"/><glyph d="M147.5 20q-49.5 34 -74.5 91t-25 126t25.5 125.5t74.5 89t115 32.5q88 0 142.5 -59t54.5 -169q0 -23 -1 -35h-343q4 -82 45 -129.5t108 -47.5q92 0 141 78l52 -34q-37 -56 -82.5 -79t-112.5 -23q-70 0 -119.5 34zM396 279q-2 76 -40 111.5t-97 35.5q-56 0 -93.5 -38 t-46.5 -109h277zM146 578q-13 13 -13 33t13 33t33 13t33 -13t13 -33t-13 -33t-33 -13t-33 13zM296 578q-13 13 -13 33t13 33t33 13t33 -13t13 -33t-13 -33t-33 -13t-33 13z" glyph-name="edieresis" horiz-adv-x="507" unicode="ë"/><glyph d="M147.5 20q-49.5 34 -74.5 91t-25 126t25.5 125.5t74.5 89t115 32.5q88 0 142.5 -59t54.5 -169q0 -23 -1 -35h-343q4 -82 45 -129.5t108 -47.5q92 0 141 78l52 -34q-37 -56 -82.5 -79t-112.5 -23q-70 0 -119.5 34zM396 279q-2 76 -40 111.5t-97 35.5q-56 0 -93.5 -38 t-46.5 -109h277zM221 600q-13 13 -13 33t13 33t33 13t33 -13t13 -33t-13 -33t-33 -13t-33 13z" glyph-name="edotaccent" horiz-adv-x="507" unicode="ė"/><glyph d="M147.5 20q-49.5 34 -74.5 91t-25 126t25.5 125.5t74.5 89t115 32.5q88 0 142.5 -59t54.5 -169q0 -23 -1 -35h-343q4 -82 45 -129.5t108 -47.5q92 0 141 78l52 -34q-37 -56 -82.5 -79t-112.5 -23q-70 0 -119.5 34zM396 279q-2 76 -40 111.5t-97 35.5q-56 0 -93.5 -38 t-46.5 -109h277zM221 -131q-13 13 -13 33t13 33t33 13t33 -13t13 -33t-13 -33t-33 -13t-33 13z" glyph-name="uni1EB9" horiz-adv-x="507" unicode="ẹ"/><glyph d="M147.5 20q-49.5 34 -74.5 91t-25 126t25.5 125.5t74.5 89t115 32.5q88 0 142.5 -59t54.5 -169q0 -23 -1 -35h-343q4 -82 45 -129.5t108 -47.5q92 0 141 78l52 -34q-37 -56 -82.5 -79t-112.5 -23q-70 0 -119.5 34zM396 279q-2 76 -40 111.5t-97 35.5q-56 0 -93.5 -38 t-46.5 -109h277zM284 546h-60l-99 144h82z" glyph-name="egrave" horiz-adv-x="507" unicode="è"/><glyph d="M147.5 20q-49.5 34 -74.5 91t-25 126t25.5 125.5t74.5 89t115 32.5q88 0 142.5 -59t54.5 -169q0 -23 -1 -35h-343q4 -82 45 -129.5t108 -47.5q92 0 141 78l52 -34q-37 -56 -82.5 -79t-112.5 -23q-70 0 -119.5 34zM396 279q-2 76 -40 111.5t-97 35.5q-56 0 -93.5 -38 t-46.5 -109h277zM261 560q11 22 11 40q0 17 -11 26.5t-28 9.5q-21 0 -39 -12l-19 44q27 24 69 24q43 0 66 -21.5t23 -56.5q0 -44 -36 -77z" glyph-name="uni1EBB" horiz-adv-x="507" unicode="ẻ"/><glyph d="M147.5 20q-49.5 34 -74.5 91t-25 126t25.5 125.5t74.5 89t115 32.5q88 0 142.5 -59t54.5 -169q0 -23 -1 -35h-343q4 -82 45 -129.5t108 -47.5q92 0 141 78l52 -34q-37 -56 -82.5 -79t-112.5 -23q-70 0 -119.5 34zM396 279q-2 76 -40 111.5t-97 35.5q-56 0 -93.5 -38 t-46.5 -109h277zM380 606h-253v60h253v-60z" glyph-name="emacron" horiz-adv-x="507" unicode="ē"/><glyph d="M307 -41q-17 -23 -17 -43q0 -17 9.5 -26t25.5 -9q14 0 31 7l12 -57q-12 -9 -24.5 -13t-34.5 -4q-37 0 -62 22.5t-25 61.5q0 52 41 88q-69 1 -117.5 35t-73 90.5t-24.5 125.5t25.5 125.5t74.5 89t115 32.5q88 0 142.5 -59t54.5 -169q0 -23 -1 -35h-343q4 -82 45 -129.5 t108 -47.5q92 0 141 78l52 -34q-44 -67 -103 -88q-35 -18 -52 -41zM165.5 388q-37.5 -38 -46.5 -109h277q-2 76 -40 111.5t-97 35.5q-56 0 -93.5 -38z" glyph-name="eogonek" horiz-adv-x="507" unicode="ę"/><glyph d="M147.5 20q-49.5 34 -74.5 91t-25 126t25.5 125.5t74.5 89t115 32.5q88 0 142.5 -59t54.5 -169q0 -23 -1 -35h-343q4 -82 45 -129.5t108 -47.5q92 0 141 78l52 -34q-37 -56 -82.5 -79t-112.5 -23q-70 0 -119.5 34zM396 279q-2 76 -40 111.5t-97 35.5q-56 0 -93.5 -38 t-46.5 -109h277zM276.5 593q-14.5 6 -32.5 17q-13 9 -22 13t-18 4q-19 0 -32.5 -9.5t-27.5 -30.5l-33 40q30 56 89 56q17 0 31.5 -6t32.5 -17q13 -9 22 -13t18 -4q19 0 33 9t27 31l33 -40q-30 -56 -89 -56q-17 0 -31.5 6z" glyph-name="uni1EBD" horiz-adv-x="507" unicode="ẽ"/><glyph d="M114 0v412h-100v58h100v133q0 66 32.5 103.5t107.5 37.5q22 0 43 -4t32 -8v-61q-12 6 -34 10.5t-40 4.5q-43 0 -58 -20t-15 -63v-133h125v-58h-125v-412h-68z" glyph-name="f" horiz-adv-x="337" unicode="f"/><glyph d="M91 -163.5q-57 40.5 -57 105.5q0 60 58 91q-32 30 -32 77q0 58 55 90q-44 47 -44 117q0 47 21 85t60 60t91 22q70 0 116 -43l70 86l53 -52l-91 -75q21 -36 21 -83t-21 -85t-59.5 -60t-89.5 -22t-93 24q-31 -24 -31 -57q0 -31 17.5 -45t55.5 -14h152q46 0 83.5 -22.5 t37.5 -80.5q0 -73 -61 -116t-158 -43t-154 40.5zM317.5 237.5q26.5 29.5 26.5 79.5t-26.5 79.5t-74.5 29.5t-76 -30t-28 -79q0 -50 27 -79.5t76 -29.5t75.5 29.5zM358 -122q40 25 40 71q0 51 -64 51h-148q-36 0 -62 13q-24 -26 -24 -64q0 -45 36.5 -70.5t108.5 -25.5 q73 0 113 25z" glyph-name="g" horiz-adv-x="503" unicode="g"/><glyph d="M91 -163.5q-57 40.5 -57 105.5q0 60 58 91q-32 30 -32 77q0 58 55 90q-44 47 -44 117q0 47 21 85t60 60t91 22q70 0 116 -43l70 86l53 -52l-91 -75q21 -36 21 -83t-21 -85t-59.5 -60t-89.5 -22t-93 24q-31 -24 -31 -57q0 -31 17.5 -45t55.5 -14h152q46 0 83.5 -22.5 t37.5 -80.5q0 -73 -61 -116t-158 -43t-154 40.5zM317.5 237.5q26.5 29.5 26.5 79.5t-26.5 79.5t-74.5 29.5t-76 -30t-28 -79q0 -50 27 -79.5t76 -29.5t75.5 29.5zM358 -122q40 25 40 71q0 51 -64 51h-148q-36 0 -62 13q-24 -26 -24 -64q0 -45 36.5 -70.5t108.5 -25.5 q73 0 113 25zM159 583.5q-32 37.5 -32 106.5h53q0 -42 17.5 -67t54.5 -25t54.5 25t17.5 67h53q0 -69 -32 -106.5t-93 -37.5t-93 37.5z" glyph-name="gbreve" horiz-adv-x="503" unicode="ğ"/><glyph d="M91 -163.5q-57 40.5 -57 105.5q0 60 58 91q-32 30 -32 77q0 58 55 90q-44 47 -44 117q0 47 21 85t60 60t91 22q70 0 116 -43l70 86l53 -52l-91 -75q21 -36 21 -83t-21 -85t-59.5 -60t-89.5 -22t-93 24q-31 -24 -31 -57q0 -31 17.5 -45t55.5 -14h152q46 0 83.5 -22.5 t37.5 -80.5q0 -73 -61 -116t-158 -43t-154 40.5zM317.5 237.5q26.5 29.5 26.5 79.5t-26.5 79.5t-74.5 29.5t-76 -30t-28 -79q0 -50 27 -79.5t76 -29.5t75.5 29.5zM358 -122q40 25 40 71q0 51 -64 51h-148q-36 0 -62 13q-24 -26 -24 -64q0 -45 36.5 -70.5t108.5 -25.5 q73 0 113 25zM180 546h-57l100 144h57l100 -144h-57l-71 88z" glyph-name="gcircumflex" horiz-adv-x="503" unicode="ĝ"/><glyph d="M91 -163.5q-57 40.5 -57 105.5q0 60 58 91q-32 30 -32 77q0 58 55 90q-44 47 -44 117q0 47 21 85t60 60t91 22q70 0 116 -43l70 86l53 -52l-91 -75q21 -36 21 -83t-21 -85t-59.5 -60t-89.5 -22t-93 24q-31 -24 -31 -57q0 -31 17.5 -45t55.5 -14h152q46 0 83.5 -22.5 t37.5 -80.5q0 -73 -61 -116t-158 -43t-154 40.5zM317.5 237.5q26.5 29.5 26.5 79.5t-26.5 79.5t-74.5 29.5t-76 -30t-28 -79q0 -50 27 -79.5t76 -29.5t75.5 29.5zM358 -122q40 25 40 71q0 51 -64 51h-148q-36 0 -62 13q-24 -26 -24 -64q0 -45 36.5 -70.5t108.5 -25.5 q73 0 113 25zM219.5 552.5q-12.5 13.5 -12.5 38.5q0 39 15 64t43 43l32 -26q-22 -12 -32.5 -23t-12.5 -26q18 0 31 -11.5t13 -30.5q0 -20 -12.5 -31t-31.5 -11q-20 0 -32.5 13.5z" glyph-name="uni0123" horiz-adv-x="503" unicode="ģ"/><glyph d="M91 -163.5q-57 40.5 -57 105.5q0 60 58 91q-32 30 -32 77q0 58 55 90q-44 47 -44 117q0 47 21 85t60 60t91 22q70 0 116 -43l70 86l53 -52l-91 -75q21 -36 21 -83t-21 -85t-59.5 -60t-89.5 -22t-93 24q-31 -24 -31 -57q0 -31 17.5 -45t55.5 -14h152q46 0 83.5 -22.5 t37.5 -80.5q0 -73 -61 -116t-158 -43t-154 40.5zM317.5 237.5q26.5 29.5 26.5 79.5t-26.5 79.5t-74.5 29.5t-76 -30t-28 -79q0 -50 27 -79.5t76 -29.5t75.5 29.5zM358 -122q40 25 40 71q0 51 -64 51h-148q-36 0 -62 13q-24 -26 -24 -64q0 -45 36.5 -70.5t108.5 -25.5 q73 0 113 25zM219 600q-13 13 -13 33t13 33t33 13t33 -13t13 -33t-13 -33t-33 -13t-33 13z" glyph-name="gdotaccent" horiz-adv-x="503" unicode="ġ"/><glyph d="M80 0v730h68v-324q21 33 62 55.5t89 22.5q71 0 115 -42.5t44 -121.5v-320h-68v321q0 50 -27.5 78.5t-74.5 28.5q-86 0 -140 -90v-338h-68z" glyph-name="h" horiz-adv-x="538" unicode="h"/><glyph d="M414 441.5q44 -42.5 44 -121.5v-320h-68v321q0 50 -27.5 78.5t-74.5 28.5q-86 0 -140 -90v-338h-68v572h-74v58h74v100h68v-100h164v-58h-164v-166q21 33 62 55.5t89 22.5q71 0 115 -42.5z" glyph-name="hbar" horiz-adv-x="538" unicode="ħ"/><glyph d="M80 0v730h68v-324q21 33 62 55.5t89 22.5q71 0 115 -42.5t44 -121.5v-320h-68v321q0 50 -27.5 78.5t-74.5 28.5q-86 0 -140 -90v-338h-68zM42 806h-57l100 144h57l100 -144h-57l-71 88z" glyph-name="hcircumflex" horiz-adv-x="538" unicode="ĥ"/><glyph d="M81 600q-13 13 -13 33t13 33t33 13t33 -13t13 -33t-13 -33t-33 -13t-33 13zM148 0h-68v470h68v-470z" glyph-name="i" horiz-adv-x="228" unicode="i"/><glyph d="M148 0h-68v470h68v-470z" glyph-name="dotlessi" horiz-adv-x="228" unicode="ı"/><glyph d="M148 0h-68v470h68v-470zM144 546h-60l77 144h82z" glyph-name="iacute" horiz-adv-x="228" unicode="í"/><glyph d="M148 0h-68v470h68v-470zM21 583.5q-32 37.5 -32 106.5h53q0 -42 17.5 -67t54.5 -25t54.5 25t17.5 67h53q0 -69 -32 -106.5t-93 -37.5t-93 37.5z" glyph-name="ibreve" horiz-adv-x="228" unicode="ĭ"/><glyph d="M148 0h-68v470h68v-470zM42 546h-57l100 144h57l100 -144h-57l-71 88z" glyph-name="icircumflex" horiz-adv-x="228" unicode="î"/><glyph d="M148 0h-68v470h68v-470zM6 578q-13 13 -13 33t13 33t33 13t33 -13t13 -33t-13 -33t-33 -13t-33 13zM156 578q-13 13 -13 33t13 33t33 13t33 -13t13 -33t-13 -33t-33 -13t-33 13z" glyph-name="idieresis" horiz-adv-x="228" unicode="ï"/><glyph d="M148 0h-68v470h68v-470zM81 600q-13 13 -13 33t13 33t33 13t33 -13t13 -33t-13 -33t-33 -13t-33 13z" glyph-name="i.locl" horiz-adv-x="228"/><glyph d="M81 600q-13 13 -13 33t13 33t33 13t33 -13t13 -33t-13 -33t-33 -13t-33 13zM148 0h-68v470h68v-470zM81 -131q-13 13 -13 33t13 33t33 13t33 -13t13 -33t-13 -33t-33 -13t-33 13z" glyph-name="uni1ECB" horiz-adv-x="228" unicode="ị"/><glyph d="M148 0h-68v470h68v-470zM144 546h-60l-99 144h82z" glyph-name="igrave" horiz-adv-x="228" unicode="ì"/><glyph d="M148 0h-68v470h68v-470zM121 560q11 22 11 40q0 17 -11 26.5t-28 9.5q-21 0 -39 -12l-19 44q27 24 69 24q43 0 66 -21.5t23 -56.5q0 -44 -36 -77z" glyph-name="uni1EC9" horiz-adv-x="228" unicode="ỉ"/><glyph d="M81 600q-13 13 -13 33t13 33t33 13t33 -13t13 -33t-13 -33t-33 -13t-33 13zM148 0h-68v470h68v-470zM309 600q-13 13 -13 33t13 33t33 13t33 -13t13 -33t-13 -33t-33 -13t-33 13zM209 -200v65q19 -9 43 -9t40 21.5t16 58.5v534h68v-539q0 -65 -33 -100t-89 -35 q-21 0 -45 4z" glyph-name="ij" horiz-adv-x="456" unicode="ĳ"/><glyph d="M148 0h-68v470h68v-470zM240 606h-253v60h253v-60z" glyph-name="imacron" horiz-adv-x="228" unicode="ī"/><glyph d="M81 600q-13 13 -13 33t13 33t33 13t33 -13t13 -33t-13 -33t-33 -13t-33 13zM145 -112l12 -57q-12 -9 -24.5 -13t-34.5 -4q-37 0 -62 22.5t-25 61.5q0 38 18 63t51 47v462h68v-470q-35 -18 -52 -41t-17 -43q0 -17 9.5 -26t25.5 -9q14 0 31 7z" glyph-name="iogonek" horiz-adv-x="228" unicode="į"/><glyph d="M148 0h-68v470h68v-470zM136.5 593q-14.5 6 -32.5 17q-13 9 -22 13t-18 4q-19 0 -32.5 -9.5t-27.5 -30.5l-33 40q30 56 89 56q17 0 31.5 -6t32.5 -17q13 -9 22 -13t18 -4q19 0 33 9t27 31l33 -40q-30 -56 -89 -56q-17 0 -31.5 6z" glyph-name="itilde" horiz-adv-x="228" unicode="ĩ"/><glyph d="M81 600q-13 13 -13 33t13 33t33 13t33 -13t13 -33t-13 -33t-33 -13t-33 13zM-19 -200v65q19 -9 43 -9t40 21.5t16 58.5v534h68v-539q0 -65 -33 -100t-89 -35q-21 0 -45 4z" glyph-name="j" horiz-adv-x="228" unicode="j"/><glyph d="M-19 -200v65q19 -9 43 -9t40 21.5t16 58.5v534h68v-539q0 -65 -33 -100t-89 -35q-21 0 -45 4z" glyph-name="uni0237" horiz-adv-x="228" unicode="ȷ"/><glyph d="M-19 -200v65q19 -9 43 -9t40 21.5t16 58.5v534h68v-539q0 -65 -33 -100t-89 -35q-21 0 -45 4zM42 546h-57l100 144h57l100 -144h-57l-71 88z" glyph-name="jcircumflex" horiz-adv-x="228" unicode="ĵ"/><glyph d="M80 0v730h68v-462l224 202h86l-191 -174q123 -139 191 -296h-76q-56 136 -162 253l-72 -66v-187h-68z" glyph-name="k" horiz-adv-x="488" unicode="k"/><glyph d="M80 0v730h68v-462l224 202h86l-191 -174q123 -139 191 -296h-76q-56 136 -162 253l-72 -66v-187h-68zM199 -185q22 12 32.5 23t12.5 26q-18 0 -31 11.5t-13 30.5q0 20 12.5 31t31.5 11q20 0 32.5 -13.5t12.5 -38.5q0 -39 -15 -64t-43 -43z" glyph-name="uni0137" horiz-adv-x="488" unicode="ķ"/><glyph d="M458 470l-191 -174q123 -139 191 -296h-76q-56 136 -162 253l-72 -66v-187h-68v470h68v-202l224 202h86z" glyph-name="kgreenlandic" horiz-adv-x="488" unicode="ĸ"/><glyph d="M107 18.5q-27 26.5 -27 76.5v635h68v-631q0 -27 10.5 -38t33.5 -11q24 0 37 9v-59q-11 -4 -22 -6t-26 -2q-47 0 -74 26.5z" glyph-name="l" horiz-adv-x="253" unicode="l"/><glyph d="M107 18.5q-27 26.5 -27 76.5v635h68v-631q0 -27 10.5 -38t33.5 -11q24 0 37 9v-59q-11 -4 -22 -6t-26 -2q-47 0 -74 26.5zM144 806h-60l77 144h82z" glyph-name="lacute" horiz-adv-x="253" unicode="ĺ"/><glyph d="M107 18.5q-27 26.5 -27 76.5v635h68v-631q0 -27 10.5 -38t33.5 -11q24 0 37 9v-59q-11 -4 -22 -6t-26 -2q-47 0 -74 26.5zM228 497q30 26 47 49t20 46q-23 0 -38 15t-15 38t15 38t39 15q23 0 38.5 -18.5t15.5 -51.5q0 -98 -85 -162z" glyph-name="lcaron" horiz-adv-x="350" unicode="ľ"/><glyph d="M107 18.5q-27 26.5 -27 76.5v635h68v-631q0 -27 10.5 -38t33.5 -11q24 0 37 9v-59q-11 -4 -22 -6t-26 -2q-47 0 -74 26.5zM132 -185q22 12 32.5 23t12.5 26q-18 0 -31 11.5t-13 30.5q0 20 12.5 31t31.5 11q20 0 32.5 -13.5t12.5 -38.5q0 -39 -15 -64t-43 -43z" glyph-name="uni013C" horiz-adv-x="253" unicode="ļ"/><glyph d="M107 18.5q-27 26.5 -27 76.5v635h68v-631q0 -27 10.5 -38t33.5 -11q24 0 37 9v-59q-11 -4 -22 -6t-26 -2q-47 0 -74 26.5zM252.5 307q-14.5 15 -14.5 38t14.5 38t38.5 15t38.5 -15t14.5 -38t-14.5 -38t-38.5 -15t-38.5 15z" glyph-name="ldot" horiz-adv-x="354" unicode="ŀ"/><glyph d="M252 59v-59q-11 -4 -22 -6t-26 -2q-47 0 -74 26.5t-27 76.5v137l-74 -45v71l74 45v427h68v-385l74 45v-71l-74 -45v-175q0 -27 10.5 -38t33.5 -11q24 0 37 9z" glyph-name="lslash" horiz-adv-x="276" unicode="ł"/><glyph d="M689.5 443q42.5 -41 42.5 -117v-326h-68v326q0 48 -28.5 75t-76.5 27q-72 0 -119 -82v-346h-68v326q0 48 -28.5 75t-76.5 27q-36 0 -65 -19.5t-54 -62.5v-346h-68v470h57l11 -58q48 72 139 72q51 0 88 -23t52 -62q23 38 63.5 61.5t89.5 23.5q67 0 109.5 -41z" glyph-name="m" horiz-adv-x="812" unicode="m"/><glyph d="M80 0v470h58l10 -62q24 34 62 55t84 21q75 0 114.5 -42.5t39.5 -121.5v-320h-68v320q0 108 -100 108q-40 0 -71 -20.5t-61 -65.5v-342h-68z" glyph-name="n" horiz-adv-x="528" unicode="n"/><glyph d="M80 0v470h58l10 -62q24 34 62 55t84 21q75 0 114.5 -42.5t39.5 -121.5v-320h-68v320q0 108 -100 108q-40 0 -71 -20.5t-61 -65.5v-342h-68zM294 546h-60l77 144h82z" glyph-name="nacute" horiz-adv-x="528" unicode="ń"/><glyph d="M80 0v470h58l10 -62q24 34 62 55t84 21q75 0 114.5 -42.5t39.5 -121.5v-320h-68v320q0 108 -100 108q-40 0 -71 -20.5t-61 -65.5v-342h-68zM292 546h-57l-100 144h57l72 -88l71 88h57z" glyph-name="ncaron" horiz-adv-x="528" unicode="ň"/><glyph d="M80 0v470h58l10 -62q24 34 62 55t84 21q75 0 114.5 -42.5t39.5 -121.5v-320h-68v320q0 108 -100 108q-40 0 -71 -20.5t-61 -65.5v-342h-68zM219 -185q22 12 32.5 23t12.5 26q-18 0 -31 11.5t-13 30.5q0 20 12.5 31t31.5 11q20 0 32.5 -13.5t12.5 -38.5q0 -39 -15 -64 t-43 -43z" glyph-name="uni0146" horiz-adv-x="528" unicode="ņ"/><glyph d="M281 -200v65q20 -9 43 -9q24 0 40 21.5t16 58.5v384q0 108 -100 108q-40 0 -71 -20.5t-61 -65.5v-342h-68v470h58l10 -62q24 34 62 55t84 21q75 0 114.5 -42.5t39.5 -121.5v-389q0 -65 -33 -100t-89 -35q-21 0 -45 4z" glyph-name="eng" horiz-adv-x="528" unicode="ŋ"/><glyph d="M80 0v470h58l10 -62q24 34 62 55t84 21q75 0 114.5 -42.5t39.5 -121.5v-320h-68v320q0 108 -100 108q-40 0 -71 -20.5t-61 -65.5v-342h-68zM286.5 593q-14.5 6 -32.5 17q-13 9 -22 13t-18 4q-19 0 -32.5 -9.5t-27.5 -30.5l-33 40q30 56 89 56q17 0 31.5 -6t32.5 -17 q13 -9 22 -13t18 -4q19 0 33 9t27 31l33 -40q-30 -56 -89 -56q-17 0 -31.5 6z" glyph-name="ntilde" horiz-adv-x="528" unicode="ñ"/><glyph d="M153.5 16.5q-49.5 30.5 -77.5 87t-28 131.5q0 76 28 132.5t77.5 86.5t111.5 30t111.5 -30t77.5 -86.5t28 -132.5t-28 -132.5t-77 -86.5t-112 -30q-62 0 -111.5 30.5zM373 93.5q41 49.5 41 141.5q0 91 -41 141t-108 50t-108 -49.5t-41 -141.5t41 -141.5t108 -49.5 t108 49.5z" glyph-name="o" horiz-adv-x="530" unicode="o"/><glyph d="M153.5 16.5q-49.5 30.5 -77.5 87t-28 131.5q0 76 28 132.5t77.5 86.5t111.5 30t111.5 -30t77.5 -86.5t28 -132.5t-28 -132.5t-77 -86.5t-112 -30q-62 0 -111.5 30.5zM373 93.5q41 49.5 41 141.5q0 91 -41 141t-108 50t-108 -49.5t-41 -141.5t41 -141.5t108 -49.5 t108 49.5zM295 546h-60l77 144h82z" glyph-name="oacute" horiz-adv-x="530" unicode="ó"/><glyph d="M153.5 16.5q-49.5 30.5 -77.5 87t-28 131.5q0 76 28 132.5t77.5 86.5t111.5 30t111.5 -30t77.5 -86.5t28 -132.5t-28 -132.5t-77 -86.5t-112 -30q-62 0 -111.5 30.5zM373 93.5q41 49.5 41 141.5q0 91 -41 141t-108 50t-108 -49.5t-41 -141.5t41 -141.5t108 -49.5 t108 49.5zM172 583.5q-32 37.5 -32 106.5h53q0 -42 17.5 -67t54.5 -25t54.5 25t17.5 67h53q0 -69 -32 -106.5t-93 -37.5t-93 37.5z" glyph-name="obreve" horiz-adv-x="530" unicode="ŏ"/><glyph d="M153.5 16.5q-49.5 30.5 -77.5 87t-28 131.5q0 76 28 132.5t77.5 86.5t111.5 30t111.5 -30t77.5 -86.5t28 -132.5t-28 -132.5t-77 -86.5t-112 -30q-62 0 -111.5 30.5zM373 93.5q41 49.5 41 141.5q0 91 -41 141t-108 50t-108 -49.5t-41 -141.5t41 -141.5t108 -49.5 t108 49.5zM193 546h-57l100 144h57l100 -144h-57l-71 88z" glyph-name="ocircumflex" horiz-adv-x="530" unicode="ô"/><glyph d="M153.5 16.5q-49.5 30.5 -77.5 87t-28 131.5q0 76 28 132.5t77.5 86.5t111.5 30t111.5 -30t77.5 -86.5t28 -132.5t-28 -132.5t-77 -86.5t-112 -30q-62 0 -111.5 30.5zM373 93.5q41 49.5 41 141.5q0 91 -41 141t-108 50t-108 -49.5t-41 -141.5t41 -141.5t108 -49.5 t108 49.5zM401 690h-60l57 144h76zM193 546h-57l100 144h57l100 -144h-57l-71 88z" glyph-name="uni1ED1" horiz-adv-x="530" unicode="ố"/><glyph d="M153.5 16.5q-49.5 30.5 -77.5 87t-28 131.5q0 76 28 132.5t77.5 86.5t111.5 30t111.5 -30t77.5 -86.5t28 -132.5t-28 -132.5t-77 -86.5t-112 -30q-62 0 -111.5 30.5zM373 93.5q41 49.5 41 141.5q0 91 -41 141t-108 50t-108 -49.5t-41 -141.5t41 -141.5t108 -49.5 t108 49.5zM232 -131q-13 13 -13 33t13 33t33 13t33 -13t13 -33t-13 -33t-33 -13t-33 13zM193 546h-57l100 144h57l100 -144h-57l-71 88z" glyph-name="uni1ED9" horiz-adv-x="530" unicode="ộ"/><glyph d="M153.5 16.5q-49.5 30.5 -77.5 87t-28 131.5q0 76 28 132.5t77.5 86.5t111.5 30t111.5 -30t77.5 -86.5t28 -132.5t-28 -132.5t-77 -86.5t-112 -30q-62 0 -111.5 30.5zM373 93.5q41 49.5 41 141.5q0 91 -41 141t-108 50t-108 -49.5t-41 -141.5t41 -141.5t108 -49.5 t108 49.5zM414 690h-60l-73 144h76zM193 546h-57l100 144h57l100 -144h-57l-71 88z" glyph-name="uni1ED3" horiz-adv-x="530" unicode="ồ"/><glyph d="M153.5 16.5q-49.5 30.5 -77.5 87t-28 131.5q0 76 28 132.5t77.5 86.5t111.5 30t111.5 -30t77.5 -86.5t28 -132.5t-28 -132.5t-77 -86.5t-112 -30q-62 0 -111.5 30.5zM373 93.5q41 49.5 41 141.5q0 91 -41 141t-108 50t-108 -49.5t-41 -141.5t41 -141.5t108 -49.5 t108 49.5zM337 706q11 22 11 40q0 17 -11 26.5t-28 9.5q-21 0 -39 -12l-19 44q27 24 69 24q43 0 66 -21.5t23 -56.5q0 -44 -36 -77zM193 546h-57l100 144h57l100 -144h-57l-71 88z" glyph-name="uni1ED5" horiz-adv-x="530" unicode="ổ"/><glyph d="M153.5 16.5q-49.5 30.5 -77.5 87t-28 131.5q0 76 28 132.5t77.5 86.5t111.5 30t111.5 -30t77.5 -86.5t28 -132.5t-28 -132.5t-77 -86.5t-112 -30q-62 0 -111.5 30.5zM373 93.5q41 49.5 41 141.5q0 91 -41 141t-108 50t-108 -49.5t-41 -141.5t41 -141.5t108 -49.5 t108 49.5zM122 777q30 56 89 56q17 0 31.5 -6t32.5 -17q13 -9 22 -13t18 -4q19 0 33 9t27 31l33 -40q-30 -56 -89 -56q-17 0 -31.5 6t-32.5 17q-13 9 -22 13t-18 4q-19 0 -32.5 -9.5t-27.5 -30.5zM193 546h-57l100 144h57l100 -144h-57l-71 88z" glyph-name="uni1ED7" horiz-adv-x="530" unicode="ỗ"/><glyph d="M153.5 16.5q-49.5 30.5 -77.5 87t-28 131.5q0 76 28 132.5t77.5 86.5t111.5 30t111.5 -30t77.5 -86.5t28 -132.5t-28 -132.5t-77 -86.5t-112 -30q-62 0 -111.5 30.5zM373 93.5q41 49.5 41 141.5q0 91 -41 141t-108 50t-108 -49.5t-41 -141.5t41 -141.5t108 -49.5 t108 49.5zM157 578q-13 13 -13 33t13 33t33 13t33 -13t13 -33t-13 -33t-33 -13t-33 13zM307 578q-13 13 -13 33t13 33t33 13t33 -13t13 -33t-13 -33t-33 -13t-33 13z" glyph-name="odieresis" horiz-adv-x="530" unicode="ö"/><glyph d="M153.5 16.5q-49.5 30.5 -77.5 87t-28 131.5q0 76 28 132.5t77.5 86.5t111.5 30t111.5 -30t77.5 -86.5t28 -132.5t-28 -132.5t-77 -86.5t-112 -30q-62 0 -111.5 30.5zM373 93.5q41 49.5 41 141.5q0 91 -41 141t-108 50t-108 -49.5t-41 -141.5t41 -141.5t108 -49.5 t108 49.5zM232 -131q-13 13 -13 33t13 33t33 13t33 -13t13 -33t-13 -33t-33 -13t-33 13z" glyph-name="uni1ECD" horiz-adv-x="530" unicode="ọ"/><glyph d="M153.5 16.5q-49.5 30.5 -77.5 87t-28 131.5q0 76 28 132.5t77.5 86.5t111.5 30t111.5 -30t77.5 -86.5t28 -132.5t-28 -132.5t-77 -86.5t-112 -30q-62 0 -111.5 30.5zM373 93.5q41 49.5 41 141.5q0 91 -41 141t-108 50t-108 -49.5t-41 -141.5t41 -141.5t108 -49.5 t108 49.5zM295 546h-60l-99 144h82z" glyph-name="ograve" horiz-adv-x="530" unicode="ò"/><glyph d="M153.5 16.5q-49.5 30.5 -77.5 87t-28 131.5q0 76 28 132.5t77.5 86.5t111.5 30t111.5 -30t77.5 -86.5t28 -132.5t-28 -132.5t-77 -86.5t-112 -30q-62 0 -111.5 30.5zM373 93.5q41 49.5 41 141.5q0 91 -41 141t-108 50t-108 -49.5t-41 -141.5t41 -141.5t108 -49.5 t108 49.5zM272 560q11 22 11 40q0 17 -11 26.5t-28 9.5q-21 0 -39 -12l-19 44q27 24 69 24q43 0 66 -21.5t23 -56.5q0 -44 -36 -77z" glyph-name="uni1ECF" horiz-adv-x="530" unicode="ỏ"/><glyph d="M460 614h68v-50q0 -69 -31 -105.5t-79 -38.5q31 -33 47.5 -80t16.5 -105q0 -76 -28 -132.5t-77 -86.5t-112 -30q-62 0 -111.5 30.5t-77.5 87t-28 131.5q0 76 28 132.5t77.5 86.5t111.5 30h137q29 0 43.5 17t14.5 54v59zM373 93.5q41 49.5 41 141.5q0 91 -41 141t-108 50 t-108 -49.5t-41 -141.5t41 -141.5t108 -49.5t108 49.5z" glyph-name="ohorn" horiz-adv-x="530" unicode="ơ"/><glyph d="M460 614h68v-50q0 -69 -31 -105.5t-79 -38.5q31 -33 47.5 -80t16.5 -105q0 -76 -28 -132.5t-77 -86.5t-112 -30q-62 0 -111.5 30.5t-77.5 87t-28 131.5q0 76 28 132.5t77.5 86.5t111.5 30h137q29 0 43.5 17t14.5 54v59zM373 93.5q41 49.5 41 141.5q0 91 -41 141t-108 50 t-108 -49.5t-41 -141.5t41 -141.5t108 -49.5t108 49.5zM295 546h-60l77 144h82z" glyph-name="uni1EDB" horiz-adv-x="530" unicode="ớ"/><glyph d="M460 614h68v-50q0 -69 -31 -105.5t-79 -38.5q31 -33 47.5 -80t16.5 -105q0 -76 -28 -132.5t-77 -86.5t-112 -30q-62 0 -111.5 30.5t-77.5 87t-28 131.5q0 76 28 132.5t77.5 86.5t111.5 30h137q29 0 43.5 17t14.5 54v59zM373 93.5q41 49.5 41 141.5q0 91 -41 141t-108 50 t-108 -49.5t-41 -141.5t41 -141.5t108 -49.5t108 49.5zM232 -131q-13 13 -13 33t13 33t33 13t33 -13t13 -33t-13 -33t-33 -13t-33 13z" glyph-name="uni1EE3" horiz-adv-x="530" unicode="ợ"/><glyph d="M460 614h68v-50q0 -69 -31 -105.5t-79 -38.5q31 -33 47.5 -80t16.5 -105q0 -76 -28 -132.5t-77 -86.5t-112 -30q-62 0 -111.5 30.5t-77.5 87t-28 131.5q0 76 28 132.5t77.5 86.5t111.5 30h137q29 0 43.5 17t14.5 54v59zM373 93.5q41 49.5 41 141.5q0 91 -41 141t-108 50 t-108 -49.5t-41 -141.5t41 -141.5t108 -49.5t108 49.5zM295 546h-60l-99 144h82z" glyph-name="uni1EDD" horiz-adv-x="530" unicode="ờ"/><glyph d="M460 614h68v-50q0 -69 -31 -105.5t-79 -38.5q31 -33 47.5 -80t16.5 -105q0 -76 -28 -132.5t-77 -86.5t-112 -30q-62 0 -111.5 30.5t-77.5 87t-28 131.5q0 76 28 132.5t77.5 86.5t111.5 30h137q29 0 43.5 17t14.5 54v59zM373 93.5q41 49.5 41 141.5q0 91 -41 141t-108 50 t-108 -49.5t-41 -141.5t41 -141.5t108 -49.5t108 49.5zM272 560q11 22 11 40q0 17 -11 26.5t-28 9.5q-21 0 -39 -12l-19 44q27 24 69 24q43 0 66 -21.5t23 -56.5q0 -44 -36 -77z" glyph-name="uni1EDF" horiz-adv-x="530" unicode="ở"/><glyph d="M460 614h68v-50q0 -69 -31 -105.5t-79 -38.5q31 -33 47.5 -80t16.5 -105q0 -76 -28 -132.5t-77 -86.5t-112 -30q-62 0 -111.5 30.5t-77.5 87t-28 131.5q0 76 28 132.5t77.5 86.5t111.5 30h137q29 0 43.5 17t14.5 54v59zM373 93.5q41 49.5 41 141.5q0 91 -41 141t-108 50 t-108 -49.5t-41 -141.5t41 -141.5t108 -49.5t108 49.5zM287.5 593q-14.5 6 -32.5 17q-13 9 -22 13t-18 4q-19 0 -32.5 -9.5t-27.5 -30.5l-33 40q30 56 89 56q17 0 31.5 -6t32.5 -17q13 -9 22 -13t18 -4q19 0 33 9t27 31l33 -40q-30 -56 -89 -56q-17 0 -31.5 6z" glyph-name="uni1EE1" horiz-adv-x="530" unicode="ỡ"/><glyph d="M153.5 16.5q-49.5 30.5 -77.5 87t-28 131.5q0 76 28 132.5t77.5 86.5t111.5 30t111.5 -30t77.5 -86.5t28 -132.5t-28 -132.5t-77 -86.5t-112 -30q-62 0 -111.5 30.5zM373 93.5q41 49.5 41 141.5q0 91 -41 141t-108 50t-108 -49.5t-41 -141.5t41 -141.5t108 -49.5 t108 49.5zM221 546h-56l47 144h76zM365 546h-56l47 144h76z" glyph-name="ohungarumlaut" horiz-adv-x="530" unicode="ő"/><glyph d="M153.5 16.5q-49.5 30.5 -77.5 87t-28 131.5q0 76 28 132.5t77.5 86.5t111.5 30t111.5 -30t77.5 -86.5t28 -132.5t-28 -132.5t-77 -86.5t-112 -30q-62 0 -111.5 30.5zM373 93.5q41 49.5 41 141.5q0 91 -41 141t-108 50t-108 -49.5t-41 -141.5t41 -141.5t108 -49.5 t108 49.5zM391 606h-253v60h253v-60z" glyph-name="omacron" horiz-adv-x="530" unicode="ō"/><glyph d="M392 444q42 -32 66 -85.5t24 -123.5q0 -76 -28 -132.5t-77 -86.5t-112 -30q-40 0 -73 12l-40 -88h-66l52 117q-42 32 -66 85.5t-24 122.5q0 76 28 132.5t77.5 86.5t111.5 30q40 0 73 -12l40 88h66zM165 85l149 333q-24 8 -49 8q-67 0 -108 -49.5t-41 -141.5 q0 -99 49 -150zM373 93.5q41 49.5 41 141.5q0 99 -49 150l-149 -333q24 -8 49 -8q67 0 108 49.5z" glyph-name="oslash" horiz-adv-x="530" unicode="ø"/><glyph d="M153.5 16.5q-49.5 30.5 -77.5 87t-28 131.5q0 76 28 132.5t77.5 86.5t111.5 30t111.5 -30t77.5 -86.5t28 -132.5t-28 -132.5t-77 -86.5t-112 -30q-62 0 -111.5 30.5zM373 93.5q41 49.5 41 141.5q0 91 -41 141t-108 50t-108 -49.5t-41 -141.5t41 -141.5t108 -49.5 t108 49.5zM287.5 593q-14.5 6 -32.5 17q-13 9 -22 13t-18 4q-19 0 -32.5 -9.5t-27.5 -30.5l-33 40q30 56 89 56q17 0 31.5 -6t32.5 -17q13 -9 22 -13t18 -4q19 0 33 9t27 31l33 -40q-30 -56 -89 -56q-17 0 -31.5 6z" glyph-name="otilde" horiz-adv-x="530" unicode="õ"/><glyph d="M828 88q-37 -56 -82.5 -79t-112.5 -23q-64 0 -110.5 28t-74.5 78q-28 -51 -75.5 -78.5t-107.5 -27.5q-62 0 -111.5 30.5t-77.5 87t-28 131.5q0 76 28 132.5t77.5 86.5t111.5 30q59 0 106.5 -27.5t76.5 -77.5q27 49 73.5 77t107.5 28q88 0 142.5 -59t54.5 -169 q0 -23 -1 -35h-343q4 -82 45 -129.5t108 -47.5q92 0 141 78zM373 93.5q41 49.5 41 141.5q0 91 -41 141t-108 50t-108 -49.5t-41 -141.5t41 -141.5t108 -49.5t108 49.5zM531.5 388q-37.5 -38 -46.5 -109h277q-2 76 -40 111.5t-97 35.5q-56 0 -93.5 -38z" glyph-name="oe" horiz-adv-x="873" unicode="œ"/><glyph d="M80 -190v660h60l6 -62q22 33 63.5 54.5t91.5 21.5q54 0 101 -29t75 -85t28 -135t-28 -135t-75 -85t-101 -29q-49 0 -90 20t-63 53v-249h-68zM359.5 63.5q33.5 19.5 54.5 62.5t21 109t-21 109t-54.5 62.5t-71.5 19.5q-84 0 -140 -88v-206q56 -88 140 -88q38 0 71.5 19.5z" glyph-name="p" horiz-adv-x="553" unicode="p"/><glyph d="M402 455q47 -29 75 -85t28 -135t-28 -135t-75 -85t-101 -29q-49 0 -90 20t-63 53v-249h-68v920h68v-319q22 33 63 53t90 20q54 0 101 -29zM359.5 63.5q33.5 19.5 54.5 62.5t21 109t-21 109t-54.5 62.5t-71.5 19.5q-84 0 -140 -88v-206q56 -88 140 -88q38 0 71.5 19.5z" glyph-name="thorn" horiz-adv-x="553" unicode="þ"/><glyph d="M405 59q-22 -33 -63 -53t-90 -20q-54 0 -101 29t-75 85t-28 135t28 135t75 85t101 29q50 0 91.5 -21.5t63.5 -54.5l6 62h60v-660h-68v249zM405 132v206q-56 88 -140 88q-38 0 -71.5 -19.5t-54.5 -62.5t-21 -109t21 -109t54.5 -62.5t71.5 -19.5q84 0 140 88z" glyph-name="q" horiz-adv-x="553" unicode="q"/><glyph d="M80 0v470h58l10 -66q24 39 56.5 59.5t80.5 20.5q38 0 64 -11v-65q-13 6 -33.5 10t-36.5 4q-43 0 -73.5 -25.5t-57.5 -70.5v-326h-68z" glyph-name="r" horiz-adv-x="377" unicode="r"/><glyph d="M80 0v470h58l10 -66q24 39 56.5 59.5t80.5 20.5q38 0 64 -11v-65q-13 6 -33.5 10t-36.5 4q-43 0 -73.5 -25.5t-57.5 -70.5v-326h-68zM219 546h-60l77 144h82z" glyph-name="racute" horiz-adv-x="377" unicode="ŕ"/><glyph d="M80 0v470h58l10 -66q24 39 56.5 59.5t80.5 20.5q38 0 64 -11v-65q-13 6 -33.5 10t-36.5 4q-43 0 -73.5 -25.5t-57.5 -70.5v-326h-68zM217 546h-57l-100 144h57l72 -88l71 88h57z" glyph-name="rcaron" horiz-adv-x="377" unicode="ř"/><glyph d="M80 0v470h58l10 -66q24 39 56.5 59.5t80.5 20.5q38 0 64 -11v-65q-13 6 -33.5 10t-36.5 4q-43 0 -73.5 -25.5t-57.5 -70.5v-326h-68zM69 -185q22 12 32.5 23t12.5 26q-18 0 -31 11.5t-13 30.5q0 20 12.5 31t31.5 11q20 0 32.5 -13.5t12.5 -38.5q0 -39 -15 -64t-43 -43z" glyph-name="uni0157" horiz-adv-x="377" unicode="ŗ"/><glyph d="M124 10.5q-49 24.5 -77 70.5l51 42q24 -41 57.5 -60t79.5 -19q44 0 71 23t27 62q0 25 -12.5 39.5t-34.5 22.5t-62 18l-26 6q-61 14 -98.5 42.5t-37.5 90.5q0 65 45 100.5t116 35.5q59 0 98 -21.5t70 -65.5l-47 -40q-24 36 -53 52.5t-67 16.5q-43 0 -71.5 -20t-28.5 -55 t27.5 -51.5t93.5 -31.5l26 -6q58 -14 94 -41t36 -87q0 -69 -47.5 -108.5t-124.5 -39.5q-56 0 -105 24.5z" glyph-name="s" horiz-adv-x="452" unicode="s"/><glyph d="M124 10.5q-49 24.5 -77 70.5l51 42q24 -41 57.5 -60t79.5 -19q44 0 71 23t27 62q0 25 -12.5 39.5t-34.5 22.5t-62 18l-26 6q-61 14 -98.5 42.5t-37.5 90.5q0 65 45 100.5t116 35.5q59 0 98 -21.5t70 -65.5l-47 -40q-24 36 -53 52.5t-67 16.5q-43 0 -71.5 -20t-28.5 -55 t27.5 -51.5t93.5 -31.5l26 -6q58 -14 94 -41t36 -87q0 -69 -47.5 -108.5t-124.5 -39.5q-56 0 -105 24.5zM256 546h-60l77 144h82z" glyph-name="sacute" horiz-adv-x="452" unicode="ś"/><glyph d="M124 10.5q-49 24.5 -77 70.5l51 42q24 -41 57.5 -60t79.5 -19q44 0 71 23t27 62q0 25 -12.5 39.5t-34.5 22.5t-62 18l-26 6q-61 14 -98.5 42.5t-37.5 90.5q0 65 45 100.5t116 35.5q59 0 98 -21.5t70 -65.5l-47 -40q-24 36 -53 52.5t-67 16.5q-43 0 -71.5 -20t-28.5 -55 t27.5 -51.5t93.5 -31.5l26 -6q58 -14 94 -41t36 -87q0 -69 -47.5 -108.5t-124.5 -39.5q-56 0 -105 24.5zM254 546h-57l-100 144h57l72 -88l71 88h57z" glyph-name="scaron" horiz-adv-x="452" unicode="š"/><glyph d="M360.5 32q-40.5 -39 -107.5 -45l-30 -44h3q38 0 58.5 -17.5t20.5 -51.5q0 -33 -21 -52t-61 -19q-45 0 -77 21l25 37q24 -15 52 -15q32 0 32 28q0 12 -9 20t-22 8t-29 -6l-31 22l33 70q-47 6 -87 29.5t-63 63.5l51 42q24 -41 57.5 -60t79.5 -19q44 0 71 23t27 62 q0 25 -12.5 39.5t-34.5 22.5t-62 18l-26 6q-61 14 -98.5 42.5t-37.5 90.5q0 65 45 100.5t116 35.5q59 0 98 -21.5t70 -65.5l-47 -40q-24 36 -53 52.5t-67 16.5q-43 0 -71.5 -20t-28.5 -55t27.5 -51.5t93.5 -31.5l26 -6q58 -14 94 -41t36 -87q0 -63 -40.5 -102z" glyph-name="scedilla" horiz-adv-x="452" unicode="ş"/><glyph d="M124 10.5q-49 24.5 -77 70.5l51 42q24 -41 57.5 -60t79.5 -19q44 0 71 23t27 62q0 25 -12.5 39.5t-34.5 22.5t-62 18l-26 6q-61 14 -98.5 42.5t-37.5 90.5q0 65 45 100.5t116 35.5q59 0 98 -21.5t70 -65.5l-47 -40q-24 36 -53 52.5t-67 16.5q-43 0 -71.5 -20t-28.5 -55 t27.5 -51.5t93.5 -31.5l26 -6q58 -14 94 -41t36 -87q0 -69 -47.5 -108.5t-124.5 -39.5q-56 0 -105 24.5zM154 546h-57l100 144h57l100 -144h-57l-71 88z" glyph-name="scircumflex" horiz-adv-x="452" unicode="ŝ"/><glyph d="M124 10.5q-49 24.5 -77 70.5l51 42q24 -41 57.5 -60t79.5 -19q44 0 71 23t27 62q0 25 -12.5 39.5t-34.5 22.5t-62 18l-26 6q-61 14 -98.5 42.5t-37.5 90.5q0 65 45 100.5t116 35.5q59 0 98 -21.5t70 -65.5l-47 -40q-24 36 -53 52.5t-67 16.5q-43 0 -71.5 -20t-28.5 -55 t27.5 -51.5t93.5 -31.5l26 -6q58 -14 94 -41t36 -87q0 -69 -47.5 -108.5t-124.5 -39.5q-56 0 -105 24.5zM181 -185q22 12 32.5 23t12.5 26q-18 0 -31 11.5t-13 30.5q0 20 12.5 31t31.5 11q20 0 32.5 -13.5t12.5 -38.5q0 -39 -15 -64t-43 -43z" glyph-name="uni0219" horiz-adv-x="452" unicode="ș"/><glyph d="M276 -10q-23 4 -47 14v69q18 -13 45.5 -21t53.5 -8q59 0 89 43.5t30 120.5q0 171 -185 171h-33v58h33q36 0 64.5 19t44.5 49t16 61q0 53 -33 86.5t-83 33.5q-56 0 -89.5 -33t-33.5 -90v-563h-68v563q0 54 24.5 95t68 63.5t97.5 22.5q87 0 136 -47.5t49 -128.5 q0 -50 -28 -88t-78 -59q78 -20 122.5 -73t44.5 -139q0 -72 -25 -122.5t-68 -75.5t-95 -25q-29 0 -52 4z" glyph-name="germandbls" horiz-adv-x="564" unicode="ß"/><glyph d="M158.5 20.5q-32.5 34.5 -32.5 104.5v287h-100v58h100v137l68 25v-162h152v-58h-152v-289q0 -79 71 -79q23 0 39 5t42 18v-57q-42 -24 -95 -24q-60 0 -92.5 34.5z" glyph-name="t" horiz-adv-x="383" unicode="t"/><glyph d="M346 412h-152v-148h132v-58h-132v-83q0 -79 71 -79q23 0 39 5t42 18v-57q-42 -24 -95 -24q-60 0 -92.5 34.5t-32.5 104.5v81h-80v58h80v148h-100v58h100v137l68 25v-162h152v-58z" glyph-name="tbar" horiz-adv-x="383" unicode="ŧ"/><glyph d="M158.5 20.5q-32.5 34.5 -32.5 104.5v287h-100v58h100v137l68 25v-162h152v-58h-152v-289q0 -79 71 -79q23 0 39 5t42 18v-57q-42 -24 -95 -24q-60 0 -92.5 34.5zM263 567q30 26 47 49t20 46q-23 0 -38 15t-15 38t15 38t39 15q23 0 38.5 -18.5t15.5 -51.5q0 -98 -85 -162z" glyph-name="tcaron" horiz-adv-x="383" unicode="ť"/><glyph d="M346 412h-152v-289q0 -79 71 -79q23 0 39 5t42 18v-57q-31 -18 -66 -22l-31 -45h3q38 0 58.5 -17.5t20.5 -51.5q0 -33 -21 -52t-61 -19q-45 0 -77 21l25 37q24 -15 52 -15q32 0 32 28q0 12 -9 20t-22 8t-29 -6l-31 22l33 70q-47 8 -72 42t-25 95v287h-100v58h100v137 l68 25v-162h152v-58z" glyph-name="uni0163" horiz-adv-x="383" unicode="ţ"/><glyph d="M158.5 20.5q-32.5 34.5 -32.5 104.5v287h-100v58h100v137l68 25v-162h152v-58h-152v-289q0 -79 71 -79q23 0 39 5t42 18v-57q-42 -24 -95 -24q-60 0 -92.5 34.5zM207 -185q22 12 32.5 23t12.5 26q-18 0 -31 11.5t-13 30.5q0 20 12.5 31t31.5 11q20 0 32.5 -13.5 t12.5 -38.5q0 -39 -15 -64t-43 -43z" glyph-name="uni021B" horiz-adv-x="383" unicode="ț"/><glyph d="M119.5 28.5q-39.5 42.5 -39.5 121.5v320h68v-320q0 -108 100 -108q40 0 71 20.5t61 65.5v342h68v-470h-58l-10 62q-24 -34 -62 -55t-84 -21q-75 0 -114.5 42.5z" glyph-name="u" horiz-adv-x="528" unicode="u"/><glyph d="M119.5 28.5q-39.5 42.5 -39.5 121.5v320h68v-320q0 -108 100 -108q40 0 71 20.5t61 65.5v342h68v-470h-58l-10 62q-24 -34 -62 -55t-84 -21q-75 0 -114.5 42.5zM294 546h-60l77 144h82z" glyph-name="uacute" horiz-adv-x="528" unicode="ú"/><glyph d="M119.5 28.5q-39.5 42.5 -39.5 121.5v320h68v-320q0 -108 100 -108q40 0 71 20.5t61 65.5v342h68v-470h-58l-10 62q-24 -34 -62 -55t-84 -21q-75 0 -114.5 42.5zM171 583.5q-32 37.5 -32 106.5h53q0 -42 17.5 -67t54.5 -25t54.5 25t17.5 67h53q0 -69 -32 -106.5t-93 -37.5 t-93 37.5z" glyph-name="ubreve" horiz-adv-x="528" unicode="ŭ"/><glyph d="M119.5 28.5q-39.5 42.5 -39.5 121.5v320h68v-320q0 -108 100 -108q40 0 71 20.5t61 65.5v342h68v-470h-58l-10 62q-24 -34 -62 -55t-84 -21q-75 0 -114.5 42.5zM192 546h-57l100 144h57l100 -144h-57l-71 88z" glyph-name="ucircumflex" horiz-adv-x="528" unicode="û"/><glyph d="M119.5 28.5q-39.5 42.5 -39.5 121.5v320h68v-320q0 -108 100 -108q40 0 71 20.5t61 65.5v342h68v-470h-58l-10 62q-24 -34 -62 -55t-84 -21q-75 0 -114.5 42.5zM156 578q-13 13 -13 33t13 33t33 13t33 -13t13 -33t-13 -33t-33 -13t-33 13zM306 578q-13 13 -13 33t13 33 t33 13t33 -13t13 -33t-13 -33t-33 -13t-33 13z" glyph-name="udieresis" horiz-adv-x="528" unicode="ü"/><glyph d="M119.5 28.5q-39.5 42.5 -39.5 121.5v320h68v-320q0 -108 100 -108q40 0 71 20.5t61 65.5v342h68v-470h-58l-10 62q-24 -34 -62 -55t-84 -21q-75 0 -114.5 42.5zM231 -131q-13 13 -13 33t13 33t33 13t33 -13t13 -33t-13 -33t-33 -13t-33 13z" glyph-name="uni1EE5" horiz-adv-x="528" unicode="ụ"/><glyph d="M119.5 28.5q-39.5 42.5 -39.5 121.5v320h68v-320q0 -108 100 -108q40 0 71 20.5t61 65.5v342h68v-470h-58l-10 62q-24 -34 -62 -55t-84 -21q-75 0 -114.5 42.5zM294 546h-60l-99 144h82z" glyph-name="ugrave" horiz-adv-x="528" unicode="ù"/><glyph d="M119.5 28.5q-39.5 42.5 -39.5 121.5v320h68v-320q0 -108 100 -108q40 0 71 20.5t61 65.5v342h68v-470h-58l-10 62q-24 -34 -62 -55t-84 -21q-75 0 -114.5 42.5zM271 560q11 22 11 40q0 17 -11 26.5t-28 9.5q-21 0 -39 -12l-19 44q27 24 69 24q43 0 66 -21.5t23 -56.5 q0 -44 -36 -77z" glyph-name="uni1EE7" horiz-adv-x="528" unicode="ủ"/><glyph d="M483 600h68v-50q0 -66 -28.5 -102.5t-74.5 -40.5v-407h-58l-10 62q-24 -34 -62 -55t-84 -21q-75 0 -114.5 42.5t-39.5 121.5v320h68v-320q0 -108 100 -108q40 0 71 20.5t61 65.5v342h45q29 0 43.5 17t14.5 54v59z" glyph-name="uhorn" horiz-adv-x="528" unicode="ư"/><glyph d="M483 600h68v-50q0 -66 -28.5 -102.5t-74.5 -40.5v-407h-58l-10 62q-24 -34 -62 -55t-84 -21q-75 0 -114.5 42.5t-39.5 121.5v320h68v-320q0 -108 100 -108q40 0 71 20.5t61 65.5v342h45q29 0 43.5 17t14.5 54v59zM294 546h-60l77 144h82z" glyph-name="uni1EE9" horiz-adv-x="528" unicode="ứ"/><glyph d="M483 600h68v-50q0 -66 -28.5 -102.5t-74.5 -40.5v-407h-58l-10 62q-24 -34 -62 -55t-84 -21q-75 0 -114.5 42.5t-39.5 121.5v320h68v-320q0 -108 100 -108q40 0 71 20.5t61 65.5v342h45q29 0 43.5 17t14.5 54v59zM231 -131q-13 13 -13 33t13 33t33 13t33 -13t13 -33 t-13 -33t-33 -13t-33 13z" glyph-name="uni1EF1" horiz-adv-x="528" unicode="ự"/><glyph d="M483 600h68v-50q0 -66 -28.5 -102.5t-74.5 -40.5v-407h-58l-10 62q-24 -34 -62 -55t-84 -21q-75 0 -114.5 42.5t-39.5 121.5v320h68v-320q0 -108 100 -108q40 0 71 20.5t61 65.5v342h45q29 0 43.5 17t14.5 54v59zM294 546h-60l-99 144h82z" glyph-name="uni1EEB" horiz-adv-x="528" unicode="ừ"/><glyph d="M483 600h68v-50q0 -66 -28.5 -102.5t-74.5 -40.5v-407h-58l-10 62q-24 -34 -62 -55t-84 -21q-75 0 -114.5 42.5t-39.5 121.5v320h68v-320q0 -108 100 -108q40 0 71 20.5t61 65.5v342h45q29 0 43.5 17t14.5 54v59zM271 560q11 22 11 40q0 17 -11 26.5t-28 9.5 q-21 0 -39 -12l-19 44q27 24 69 24q43 0 66 -21.5t23 -56.5q0 -44 -36 -77z" glyph-name="uni1EED" horiz-adv-x="528" unicode="ử"/><glyph d="M483 600h68v-50q0 -66 -28.5 -102.5t-74.5 -40.5v-407h-58l-10 62q-24 -34 -62 -55t-84 -21q-75 0 -114.5 42.5t-39.5 121.5v320h68v-320q0 -108 100 -108q40 0 71 20.5t61 65.5v342h45q29 0 43.5 17t14.5 54v59zM286.5 593q-14.5 6 -32.5 17q-13 9 -22 13t-18 4 q-19 0 -32.5 -9.5t-27.5 -30.5l-33 40q30 56 89 56q17 0 31.5 -6t32.5 -17q13 -9 22 -13t18 -4q19 0 33 9t27 31l33 -40q-30 -56 -89 -56q-17 0 -31.5 6z" glyph-name="uni1EEF" horiz-adv-x="528" unicode="ữ"/><glyph d="M119.5 28.5q-39.5 42.5 -39.5 121.5v320h68v-320q0 -108 100 -108q40 0 71 20.5t61 65.5v342h68v-470h-58l-10 62q-24 -34 -62 -55t-84 -21q-75 0 -114.5 42.5zM220 546h-56l47 144h76zM364 546h-56l47 144h76z" glyph-name="uhungarumlaut" horiz-adv-x="528" unicode="ű"/><glyph d="M119.5 28.5q-39.5 42.5 -39.5 121.5v320h68v-320q0 -108 100 -108q40 0 71 20.5t61 65.5v342h68v-470h-58l-10 62q-24 -34 -62 -55t-84 -21q-75 0 -114.5 42.5zM390 606h-253v60h253v-60z" glyph-name="umacron" horiz-adv-x="528" unicode="ū"/><glyph d="M457 -169q-12 -9 -24.5 -13t-34.5 -4q-37 0 -62 22.5t-25 61.5q0 40 20 65.5t57 49.5l-8 49q-24 -34 -62 -55t-84 -21q-75 0 -114.5 42.5t-39.5 121.5v320h68v-320q0 -108 100 -108q40 0 71 20.5t61 65.5v342h68v-470q-35 -18 -52 -41t-17 -43q0 -17 9.5 -26t25.5 -9 q14 0 31 7z" glyph-name="uogonek" horiz-adv-x="528" unicode="ų"/><glyph d="M119.5 28.5q-39.5 42.5 -39.5 121.5v320h68v-320q0 -108 100 -108q40 0 71 20.5t61 65.5v342h68v-470h-58l-10 62q-24 -34 -62 -55t-84 -21q-75 0 -114.5 42.5zM196 559q-27 27 -27 71t27 71t68 27t68 -27t27 -71t-27 -71t-68 -27t-68 27zM298.5 590.5 q12.5 14.5 12.5 39.5t-12.5 39.5t-34.5 14.5t-34.5 -14.5t-12.5 -39.5t12.5 -39.5t34.5 -14.5t34.5 14.5z" glyph-name="uring" horiz-adv-x="528" unicode="ů"/><glyph d="M119.5 28.5q-39.5 42.5 -39.5 121.5v320h68v-320q0 -108 100 -108q40 0 71 20.5t61 65.5v342h68v-470h-58l-10 62q-24 -34 -62 -55t-84 -21q-75 0 -114.5 42.5zM286.5 593q-14.5 6 -32.5 17q-13 9 -22 13t-18 4q-19 0 -32.5 -9.5t-27.5 -30.5l-33 40q30 56 89 56 q17 0 31.5 -6t32.5 -17q13 -9 22 -13t18 -4q19 0 33 9t27 31l33 -40q-30 -56 -89 -56q-17 0 -31.5 6z" glyph-name="utilde" horiz-adv-x="528" unicode="ũ"/><glyph d="M273 0h-74l-179 470h71l145 -397l145 397h71z" glyph-name="v" horiz-adv-x="472" unicode="v"/><glyph d="M239 0h-82l-137 470h70l107 -398l115 398h78l115 -398l107 398h70l-137 -470h-82l-112 396z" glyph-name="w" horiz-adv-x="702" unicode="w"/><glyph d="M239 0h-82l-137 470h70l107 -398l115 398h78l115 -398l107 398h70l-137 -470h-82l-112 396zM381 546h-60l77 144h82z" glyph-name="wacute" horiz-adv-x="702" unicode="ẃ"/><glyph d="M239 0h-82l-137 470h70l107 -398l115 398h78l115 -398l107 398h70l-137 -470h-82l-112 396zM279 546h-57l100 144h57l100 -144h-57l-71 88z" glyph-name="wcircumflex" horiz-adv-x="702" unicode="ŵ"/><glyph d="M239 0h-82l-137 470h70l107 -398l115 398h78l115 -398l107 398h70l-137 -470h-82l-112 396zM243 578q-13 13 -13 33t13 33t33 13t33 -13t13 -33t-13 -33t-33 -13t-33 13zM393 578q-13 13 -13 33t13 33t33 13t33 -13t13 -33t-13 -33t-33 -13t-33 13z" glyph-name="wdieresis" horiz-adv-x="702" unicode="ẅ"/><glyph d="M239 0h-82l-137 470h70l107 -398l115 398h78l115 -398l107 398h70l-137 -470h-82l-112 396zM381 546h-60l-99 144h82z" glyph-name="wgrave" horiz-adv-x="702" unicode="ẁ"/><glyph d="M98 0h-78l171 250l-150 220h74l116 -176l111 176h75l-146 -220l167 -250h-78l-132 203z" glyph-name="x" horiz-adv-x="458" unicode="x"/><glyph d="M20 -188v60q33 -13 59 -13q41 0 65.5 24t45.5 79l14 36l-179 472h72l139 -386l146 386h68l-209 -537q-26 -67 -62 -99.5t-97 -32.5q-33 0 -62 11z" glyph-name="y" horiz-adv-x="470" unicode="y"/><glyph d="M20 -188v60q33 -13 59 -13q41 0 65.5 24t45.5 79l14 36l-179 472h72l139 -386l146 386h68l-209 -537q-26 -67 -62 -99.5t-97 -32.5q-33 0 -62 11zM265 546h-60l77 144h82z" glyph-name="yacute" horiz-adv-x="470" unicode="ý"/><glyph d="M20 -188v60q33 -13 59 -13q41 0 65.5 24t45.5 79l14 36l-179 472h72l139 -386l146 386h68l-209 -537q-26 -67 -62 -99.5t-97 -32.5q-33 0 -62 11zM163 546h-57l100 144h57l100 -144h-57l-71 88z" glyph-name="ycircumflex" horiz-adv-x="470" unicode="ŷ"/><glyph d="M20 -188v60q33 -13 59 -13q41 0 65.5 24t45.5 79l14 36l-179 472h72l139 -386l146 386h68l-209 -537q-26 -67 -62 -99.5t-97 -32.5q-33 0 -62 11zM127 578q-13 13 -13 33t13 33t33 13t33 -13t13 -33t-13 -33t-33 -13t-33 13zM277 578q-13 13 -13 33t13 33t33 13t33 -13 t13 -33t-13 -33t-33 -13t-33 13z" glyph-name="ydieresis" horiz-adv-x="470" unicode="ÿ"/><glyph d="M20 -188v60q33 -13 59 -13q41 0 65.5 24t45.5 79l14 36l-179 472h72l139 -386l146 386h68l-209 -537q-26 -67 -62 -99.5t-97 -32.5q-33 0 -62 11zM322 -131q-13 13 -13 33t13 33t33 13t33 -13t13 -33t-13 -33t-33 -13t-33 13z" glyph-name="uni1EF5" horiz-adv-x="470" unicode="ỵ"/><glyph d="M20 -188v60q33 -13 59 -13q41 0 65.5 24t45.5 79l14 36l-179 472h72l139 -386l146 386h68l-209 -537q-26 -67 -62 -99.5t-97 -32.5q-33 0 -62 11zM265 546h-60l-99 144h82z" glyph-name="ygrave" horiz-adv-x="470" unicode="ỳ"/><glyph d="M20 -188v60q33 -13 59 -13q41 0 65.5 24t45.5 79l14 36l-179 472h72l139 -386l146 386h68l-209 -537q-26 -67 -62 -99.5t-97 -32.5q-33 0 -62 11zM242 560q11 22 11 40q0 17 -11 26.5t-28 9.5q-21 0 -39 -12l-19 44q27 24 69 24q43 0 66 -21.5t23 -56.5q0 -44 -36 -77z" glyph-name="uni1EF7" horiz-adv-x="470" unicode="ỷ"/><glyph d="M20 -188v60q33 -13 59 -13q41 0 65.5 24t45.5 79l14 36l-179 472h72l139 -386l146 386h68l-209 -537q-26 -67 -62 -99.5t-97 -32.5q-33 0 -62 11zM257.5 593q-14.5 6 -32.5 17q-13 9 -22 13t-18 4q-19 0 -32.5 -9.5t-27.5 -30.5l-33 40q30 56 89 56q17 0 31.5 -6 t32.5 -17q13 -9 22 -13t18 -4q19 0 33 9t27 31l33 -40q-30 -56 -89 -56q-17 0 -31.5 6z" glyph-name="uni1EF9" horiz-adv-x="470" unicode="ỹ"/><glyph d="M395 0h-352v58l267 354h-254v58h327v-58l-267 -354h279v-58z" glyph-name="z" horiz-adv-x="438" unicode="z"/><glyph d="M395 0h-352v58l267 354h-254v58h327v-58l-267 -354h279v-58zM249 546h-60l77 144h82z" glyph-name="zacute" horiz-adv-x="438" unicode="ź"/><glyph d="M395 0h-352v58l267 354h-254v58h327v-58l-267 -354h279v-58zM247 546h-57l-100 144h57l72 -88l71 88h57z" glyph-name="zcaron" horiz-adv-x="438" unicode="ž"/><glyph d="M395 0h-352v58l267 354h-254v58h327v-58l-267 -354h279v-58zM186 600q-13 13 -13 33t13 33t33 13t33 -13t13 -33t-13 -33t-33 -13t-33 13z" glyph-name="zdotaccent" horiz-adv-x="438" unicode="ż"/><glyph d="M237 219l-121 -161h279v-58h-352v58l121 161h-85v58h129l102 135h-254v58h327v-58l-102 -135h78v-58h-122z" glyph-name="uni01B6" horiz-adv-x="438" unicode="ƶ"/><glyph d="M372 470h86l-193 -176l193 -294h-76l-165 250l-69 -63v-187h-68v730h68v-462z" glyph-name="glyph366" horiz-adv-x="488"/><glyph d="M372 470h86l-193 -176l193 -294h-76l-165 250l-69 -63v-187h-68v730h68v-462zM199 -185q22 12 32.5 23t12.5 26q-18 0 -31 11.5t-13 30.5q0 20 12.5 31t31.5 11q20 0 32.5 -13.5t12.5 -38.5q0 -39 -15 -64t-43 -43z" glyph-name="glyph367" horiz-adv-x="488"/><glyph d="M372 470h86l-193 -176l193 -294h-76l-165 250l-69 -63v-187h-68v470h68v-202z" glyph-name="glyph368" horiz-adv-x="488"/><glyph d="M148 0h-68v730h68v-730z" glyph-name="glyph369" horiz-adv-x="228"/><glyph d="M148 0h-68v730h68v-730zM144 806h-60l77 144h82z" glyph-name="glyph370" horiz-adv-x="228"/><glyph d="M148 0h-68v730h68v-730zM228 497q30 26 47 49t20 46q-23 0 -38 15t-15 38t15 38t39 15q23 0 38.5 -18.5t15.5 -51.5q0 -98 -85 -162z" glyph-name="glyph371" horiz-adv-x="228"/><glyph d="M148 0h-68v730h68v-730zM69 -185q22 12 32.5 23t12.5 26q-18 0 -31 11.5t-13 30.5q0 20 12.5 31t31.5 11q20 0 32.5 -13.5t12.5 -38.5q0 -39 -15 -64t-43 -43z" glyph-name="glyph372" horiz-adv-x="228"/><glyph d="M148 0h-68v730h68v-730zM252.5 307q-14.5 15 -14.5 38t14.5 38t38.5 15t38.5 -15t14.5 -38t-14.5 -38t-38.5 -15t-38.5 15z" glyph-name="glyph373" horiz-adv-x="354"/><glyph d="M171 345l74 45v-71l-74 -45v-274h-68v232l-74 -45v71l74 45v427h68v-385z" glyph-name="glyph374" horiz-adv-x="274"/><glyph d="M114 0v412h-100v58h100v133q0 66 32.5 103.5t107.5 37.5q22 0 43 -4t32 -8v-61q-12 6 -34 10.5t-40 4.5q-43 0 -58 -20t-15 -63v-133h125v-58h-125v-412h-68zM418 600q-13 13 -13 33t13 33t33 13t33 -13t13 -33t-13 -33t-33 -13t-33 13zM485 0h-68v470h68v-470z" glyph-name="uniFB01" horiz-adv-x="565" unicode="ﬁ"/><glyph d="M114 0v412h-100v58h100v133q0 66 32.5 103.5t107.5 37.5q22 0 43 -4t32 -8v-61q-12 6 -34 10.5t-40 4.5q-43 0 -58 -20t-15 -63v-133h125v-58h-125v-412h-68zM444 18.5q-27 26.5 -27 76.5v635h68v-631q0 -27 10.5 -38t33.5 -11q24 0 37 9v-59q-11 -4 -22 -6t-26 -2 q-47 0 -74 26.5z" glyph-name="uniFB02" horiz-adv-x="590" unicode="ﬂ"/><glyph d="M114 0v412h-100v58h100v133q0 66 32.5 103.5t107.5 37.5q22 0 43 -4t32 -8v-61q-12 6 -34 10.5t-40 4.5q-43 0 -58 -20t-15 -63v-133h125v-58h-125v-412h-68zM485 0h-68v730h68v-730z" glyph-name="glyph379" horiz-adv-x="565"/><glyph d="M114 0v412h-100v58h100v133q0 66 32.5 103.5t107.5 37.5q22 0 43 -4t32 -8v-61q-12 6 -34 10.5t-40 4.5q-43 0 -58 -20t-15 -63v-133h125v-58h-125v-412h-68zM485 0h-68v730h68v-730z" glyph-name="glyph380" horiz-adv-x="565"/><glyph d="M276.5 666q33.5 -31 33.5 -91v-217h-57l-6 45q-14 -22 -42 -38.5t-61 -16.5q-44 0 -74 25t-30 72q0 112 207 115v15q0 33 -19 51t-53 18q-24 0 -48.5 -10.5t-44.5 -30.5l-34 40q23 25 57.5 39.5t71.5 14.5q66 0 99.5 -31zM247 453v62q-74 -1 -109 -17.5t-35 -49.5 q0 -23 15 -35.5t40 -12.5q53 0 89 53z" glyph-name="ordfeminine" horiz-adv-x="360" unicode="ª"/><glyph d="M75.5 395q-44.5 47 -44.5 128q0 54 20.5 93.5t56 60t79.5 20.5q68 0 112.5 -46.5t44.5 -127.5t-44.5 -128t-112.5 -47q-67 0 -111.5 47zM255.5 433.5q25.5 31.5 25.5 89.5t-25.5 89t-68.5 31q-42 0 -67.5 -31.5t-25.5 -88.5q0 -58 25.5 -89.5t67.5 -31.5q43 0 68.5 31.5z" glyph-name="ordmasculine" horiz-adv-x="375" unicode="º"/><glyph d="M71 0v68h162v28q-81 37 -134 112.5t-53 186.5q0 96 40 165.5t109.5 106.5t156.5 37t156.5 -37t109.5 -106.5t40 -165.5q0 -111 -53 -186.5t-134 -112.5v-28h162v-68h-234v132q91 35 139 97t48 166q0 117 -63 180t-171 63t-171 -63t-63 -180q0 -104 48 -166t139 -97v-132 h-234z" glyph-name="glyph383" horiz-adv-x="704"/><glyph d="M162 27q-56 41 -87 121.5t-31 196.5t31 196.5t87 121.5t130 41t130 -41t87 -121.5t31 -196.5t-31 -196.5t-87 -121.5t-130 -41t-130 41zM426.5 124q43.5 74 43.5 221t-43.5 221t-134.5 74t-134.5 -74t-43.5 -221t43.5 -221t134.5 -74t134.5 74z" glyph-name="zero" horiz-adv-x="584" unicode="0"/><glyph d="M203 590q-64 -101 -147 -109v77q74 6 147 132h68v-690h-68v590z" glyph-name="one" horiz-adv-x="356" unicode="1"/><glyph d="M475 64v-64h-431v19q0 94 52 166t157 134q79 47 111 88.5t32 99.5q0 62 -37 97.5t-101 35.5q-59 0 -93.5 -32t-50.5 -92l-65 21q19 74 69.5 120.5t139.5 46.5q99 0 153.5 -54t54.5 -143q0 -74 -44 -130t-124 -105q-87 -53 -129 -101t-49 -107h355z" glyph-name="two" horiz-adv-x="519" unicode="2"/><glyph d="M116.5 38.5q-59.5 52.5 -73.5 131.5l61 25q17 -71 55.5 -108t108.5 -37q74 0 115 38t41 110q0 62 -38 95t-104 33h-59v62h49q33 0 62.5 16.5t47.5 45.5t18 66q0 58 -35.5 92t-99.5 34q-58 0 -94 -31t-51 -86l-59 19q12 67 65.5 113.5t138.5 46.5q96 0 148.5 -50.5 t52.5 -131.5q0 -56 -27.5 -95.5t-74.5 -61.5q54 -13 92 -58t38 -107q0 -64 -29 -112.5t-80 -75t-117 -26.5q-92 0 -151.5 52.5z" glyph-name="three" horiz-adv-x="546" unicode="3"/><glyph d="M423 224h111v-64h-111v-160h-70v160h-330v64l307 466h93v-466zM353 607l-251 -383h251v383z" glyph-name="four" horiz-adv-x="556" unicode="4"/><glyph d="M131 23q-58 37 -83 87l53 45q26 -49 65.5 -77t99.5 -28q72 0 114 44.5t42 118.5q0 71 -41 116t-109 45q-42 0 -75 -17.5t-53 -44.5l-72 29l54 349h345v-64h-292l-43 -256q23 28 62.5 45t88.5 17q58 0 104.5 -27t73.5 -77t27 -115q0 -66 -29.5 -117.5t-81 -80.5 t-115.5 -29q-77 0 -135 37z" glyph-name="five" horiz-adv-x="536" unicode="5"/><glyph d="M390 410q49 -30 76 -82t27 -116q0 -65 -29.5 -116.5t-81 -80.5t-115.5 -29q-69 0 -119.5 29t-78 80.5t-27.5 116.5q0 83 56 175l185 303h78l-168 -274q32 24 86 24q62 0 111 -30zM379 96q44 46 44 117t-44 117t-112 46t-111.5 -46t-43.5 -117t43.5 -117t111.5 -46t112 46 z" glyph-name="six" horiz-adv-x="535" unicode="6"/><glyph d="M151 0q3 391 206 627h-334v63h404v-63q-202 -214 -199 -627h-77z" glyph-name="seven" horiz-adv-x="458" unicode="7"/><glyph d="M147.5 11.5q-49.5 25.5 -75.5 70.5t-26 101q0 137 133 185q-50 16 -80 59t-30 99q0 50 23.5 90.5t68 64t103.5 23.5t103.5 -23.5t68 -64t23.5 -90.5q0 -56 -30 -99t-80 -59q133 -48 133 -184q0 -57 -26 -102t-75.5 -70.5t-116.5 -25.5t-116.5 25.5zM357 431.5 q34 33.5 34 87.5t-34 87.5t-93 33.5t-93 -33.5t-34 -87.5t34 -87.5t93 -33.5t93 33.5zM371 87.5q41 37.5 41 103.5t-41 104.5t-107 38.5t-107 -38.5t-41 -104.5t41 -103.5t107 -37.5t107 37.5z" glyph-name="eight" horiz-adv-x="528" unicode="8"/><glyph d="M433 643q60 -61 60 -165q0 -83 -56 -175l-185 -303h-78l168 274q-32 -24 -86 -24q-62 0 -111 30t-76 82t-27 116q0 65 29.5 116.5t81 80.5t115.5 29q105 0 165 -61zM380 359q43 45 43 117t-43 118t-112 46t-112.5 -46t-43.5 -118t43.5 -117t112.5 -45t112 45z" glyph-name="nine" horiz-adv-x="535" unicode="9"/><glyph d="M422 663q56 -41 87 -121.5t31 -196.5t-31 -196.5t-87 -121.5t-130 -41t-130 41t-87 121.5t-31 196.5t31 196.5t87 121.5t130 41t130 -41zM157.5 566q-43.5 -74 -43.5 -221q0 -123 30 -195l258 448q-42 42 -110 42q-91 0 -134.5 -74zM426.5 124q43.5 74 43.5 221 q0 123 -30 195l-258 -448q42 -42 110 -42q91 0 134.5 74z" glyph-name="glyph394" horiz-adv-x="584"/><glyph d="M170 27q-56 41 -87 121.5t-31 196.5t31 196.5t87 121.5t130 41t130 -41t87 -121.5t31 -196.5t-31 -196.5t-87 -121.5t-130 -41t-130 41zM434.5 124q43.5 74 43.5 221t-43.5 221t-134.5 74t-134.5 -74t-43.5 -221t43.5 -221t134.5 -74t134.5 74z" glyph-name="glyph395" horiz-adv-x="600"/><glyph d="M324 64h164v-64h-395v64h163v526q-64 -101 -147 -109v77q74 6 147 132h68v-626z" glyph-name="glyph396" horiz-adv-x="600"/><glyph d="M520 64v-64h-431v19q0 94 52 166t157 134q79 47 111 88.5t32 99.5q0 62 -37 97.5t-101 35.5q-59 0 -93.5 -32t-50.5 -92l-65 21q19 74 69.5 120.5t139.5 46.5q99 0 153.5 -54t54.5 -143q0 -74 -44 -130t-124 -105q-87 -53 -129 -101t-49 -107h355z" glyph-name="glyph397" horiz-adv-x="600"/><glyph d="M147.5 38.5q-59.5 52.5 -73.5 131.5l61 25q17 -71 55.5 -108t108.5 -37q74 0 115 38t41 110q0 62 -38 95t-104 33h-59v62h49q33 0 62.5 16.5t47.5 45.5t18 66q0 58 -35.5 92t-99.5 34q-58 0 -94 -31t-51 -86l-59 19q12 67 65.5 113.5t138.5 46.5q96 0 148.5 -50.5 t52.5 -131.5q0 -56 -27.5 -95.5t-74.5 -61.5q54 -13 92 -58t38 -107q0 -64 -29 -112.5t-80 -75t-117 -26.5q-92 0 -151.5 52.5z" glyph-name="glyph398" horiz-adv-x="600"/><glyph d="M445 224h111v-64h-111v-160h-70v160h-330v64l307 466h93v-466zM375 607l-251 -383h251v383z" glyph-name="glyph399" horiz-adv-x="600"/><glyph d="M181 23q-58 37 -83 87l53 45q26 -49 65.5 -77t99.5 -28q72 0 114 44.5t42 118.5q0 71 -41 116t-109 45q-42 0 -75 -17.5t-53 -44.5l-72 29l54 349h345v-64h-292l-43 -256q23 28 62.5 45t88.5 17q58 0 104.5 -27t73.5 -77t27 -115q0 -66 -29.5 -117.5t-81 -80.5 t-115.5 -29q-77 0 -135 37z" glyph-name="glyph400" horiz-adv-x="600"/><glyph d="M424 410q49 -30 76 -82t27 -116q0 -65 -29.5 -116.5t-81 -80.5t-115.5 -29q-69 0 -119.5 29t-78 80.5t-27.5 116.5q0 83 56 175l185 303h78l-168 -274q32 24 86 24q62 0 111 -30zM413 96q44 46 44 117t-44 117t-112 46t-111.5 -46t-43.5 -117t43.5 -117t111.5 -46t112 46 z" glyph-name="glyph401" horiz-adv-x="600"/><glyph d="M206 0q3 391 206 627h-334v63h404v-63q-202 -214 -199 -627h-77z" glyph-name="glyph402" horiz-adv-x="600"/><glyph d="M183.5 11.5q-49.5 25.5 -75.5 70.5t-26 101q0 137 133 185q-50 16 -80 59t-30 99q0 50 23.5 90.5t68 64t103.5 23.5t103.5 -23.5t68 -64t23.5 -90.5q0 -56 -30 -99t-80 -59q133 -48 133 -184q0 -57 -26 -102t-75.5 -70.5t-116.5 -25.5t-116.5 25.5zM393 431.5 q34 33.5 34 87.5t-34 87.5t-93 33.5t-93 -33.5t-34 -87.5t34 -87.5t93 -33.5t93 33.5zM407 87.5q41 37.5 41 103.5t-41 104.5t-107 38.5t-107 -38.5t-41 -104.5t41 -103.5t107 -37.5t107 37.5z" glyph-name="glyph403" horiz-adv-x="600"/><glyph d="M465 643q60 -61 60 -165q0 -83 -56 -175l-185 -303h-78l168 274q-32 -24 -86 -24q-62 0 -111 30t-76 82t-27 116q0 65 29.5 116.5t81 80.5t115.5 29q105 0 165 -61zM412 359q43 45 43 117t-43 118t-112 46t-112.5 -46t-43.5 -118t43.5 -117t112.5 -45t112 45z" glyph-name="glyph404" horiz-adv-x="600"/><glyph d="M430 663q56 -41 87 -121.5t31 -196.5t-31 -196.5t-87 -121.5t-130 -41t-130 41t-87 121.5t-31 196.5t31 196.5t87 121.5t130 41t130 -41zM165.5 566q-43.5 -74 -43.5 -221q0 -123 30 -195l258 448q-42 42 -110 42q-91 0 -134.5 -74zM434.5 124q43.5 74 43.5 221 q0 123 -30 195l-258 -448q42 -42 110 -42q91 0 134.5 74z" glyph-name="glyph405" horiz-adv-x="600"/><glyph d="M65 -57q-41 51 -41 147t41 146.5t107 50.5t106.5 -50.5t40.5 -146.5t-40.5 -147t-106.5 -51t-107 51zM239.5 -21q21.5 36 21.5 111t-22 110.5t-67 35.5q-46 0 -68 -35.5t-22 -110.5t22 -111t68 -36t67.5 36z" glyph-name="uni2080" horiz-adv-x="343" unicode="₀"/><glyph d="M117 208q-28 -53 -94 -67v64q61 9 94 75h59v-380h-59v308z" glyph-name="uni2081" horiz-adv-x="222" unicode="₁"/><glyph d="M277 -49v-51h-254v25q0 69 30 109.5t87 63.5q36 14 54.5 34.5t18.5 45.5q0 28 -17.5 43t-48.5 15q-56 0 -75 -65l-50 22q12 43 43 68.5t83 25.5q59 0 91 -28t32 -79q0 -42 -26.5 -73t-69.5 -50q-51 -22 -72.5 -44t-24.5 -62h199z" glyph-name="uni2082" horiz-adv-x="299" unicode="₂"/><glyph d="M64.5 -80q-35.5 28 -43.5 73l51 21q19 -71 82 -71q34 0 54 17.5t20 50.5q0 28 -18.5 43t-52.5 15h-22v50h18q26 0 45 16.5t19 43.5q0 25 -17.5 41t-47.5 16q-56 0 -74 -55l-49 19q11 40 42.5 63.5t79.5 23.5q59 0 91 -28.5t32 -74.5q0 -56 -54 -84q29 -8 47.5 -32 t18.5 -58q0 -53 -36 -85.5t-97 -32.5q-53 0 -88.5 28z" glyph-name="uni2083" horiz-adv-x="312" unicode="₃"/><glyph d="M254 29h54v-50h-54v-79h-56v79h-186v50l169 251h73v-251zM198 218l-124 -189h124v189z" glyph-name="uni2084" horiz-adv-x="319" unicode="₄"/><glyph d="M62.5 -88.5q-33.5 19.5 -48.5 54.5l47 29q26 -52 81 -52q36 0 56 21t20 56q0 34 -19.5 55t-54.5 21q-20 0 -37.5 -8.5t-28.5 -23.5l-52 17l30 199h206v-53h-162l-19 -114q12 14 32.5 22.5t45.5 8.5q52 0 84 -33t32 -88q0 -58 -36 -94.5t-98 -36.5q-45 0 -78.5 19.5z" glyph-name="uni2085" horiz-adv-x="288" unicode="₅"/><glyph d="M252.5 110q33.5 -35 33.5 -91q0 -55 -36.5 -91t-95.5 -36q-61 0 -96.5 34.5t-35.5 90.5q0 27 9 51t27 53l100 159h68l-93 -141q15 6 34 6q52 0 85.5 -35zM208 -36q21 21 21 55t-21 55t-54 21t-53.5 -21t-20.5 -55t20.5 -55t53.5 -21t54 21z" glyph-name="uni2086" horiz-adv-x="308" unicode="₆"/><glyph d="M91 -100q0 102 28.5 181t88.5 146h-194v53h252v-53q-59 -66 -86 -145t-27 -182h-62z" glyph-name="uni2087" horiz-adv-x="275" unicode="₇"/><glyph d="M58 -76.5q-35 31.5 -35 80.5q0 37 18.5 61.5t49.5 36.5q-26 10 -41 32.5t-15 50.5q0 45 31.5 73.5t85.5 28.5t86 -28.5t32 -73.5q0 -28 -15 -50.5t-42 -32.5q33 -12 51 -37.5t18 -59.5q0 -50 -35 -81.5t-95 -31.5q-59 0 -94 31.5zM198 137.5q17 16.5 17 42.5t-17 42.5 t-46 16.5q-28 0 -45.5 -16.5t-17.5 -42.5q0 -25 17 -42t46 -17t46 16.5zM205 -41q20 18 20 49t-20 49.5t-53 18.5q-32 0 -52 -18.5t-20 -49.5t20 -49t52 -18q33 0 53 18z" glyph-name="uni2088" horiz-adv-x="305" unicode="₈"/><glyph d="M250.5 252.5q35.5 -34.5 35.5 -89.5q0 -27 -9 -52t-26 -53l-100 -158h-69l93 141q-14 -7 -33 -7q-53 0 -86.5 35.5t-33.5 91.5q0 55 36.5 90.5t95.5 35.5q61 0 96.5 -34.5zM208.5 105q20.5 21 20.5 55t-20.5 55.5t-54.5 21.5q-33 0 -53.5 -21.5t-20.5 -55.5t20.5 -55 t53.5 -21q34 0 54.5 21z" glyph-name="uni2089" horiz-adv-x="304" unicode="₉"/><glyph d="M65 43q-41 51 -41 147t41 146.5t107 50.5t106.5 -50.5t40.5 -146.5t-40.5 -147t-106.5 -51t-107 51zM239.5 79q21.5 36 21.5 111t-22 110.5t-67 35.5q-46 0 -68 -35.5t-22 -110.5t22 -111t68 -36t67.5 36z" glyph-name="zero.dnom" horiz-adv-x="343"/><glyph d="M117 308q-28 -53 -94 -67v64q61 9 94 75h59v-380h-59v308z" glyph-name="one.dnom" horiz-adv-x="222"/><glyph d="M277 51v-51h-254v25q0 69 30 109.5t87 63.5q36 14 54.5 34.5t18.5 45.5q0 28 -17.5 43t-48.5 15q-56 0 -75 -65l-50 22q12 43 43 68.5t83 25.5q59 0 91 -28t32 -79q0 -42 -26.5 -73t-69.5 -50q-51 -22 -72.5 -44t-24.5 -62h199z" glyph-name="two.dnom" horiz-adv-x="299"/><glyph d="M64.5 20q-35.5 28 -43.5 73l51 21q19 -71 82 -71q34 0 54 17.5t20 50.5q0 28 -18.5 43t-52.5 15h-22v50h18q26 0 45 16.5t19 43.5q0 25 -17.5 41t-47.5 16q-56 0 -74 -55l-49 19q11 40 42.5 63.5t79.5 23.5q59 0 91 -28.5t32 -74.5q0 -56 -54 -84q29 -8 47.5 -32 t18.5 -58q0 -53 -36 -85.5t-97 -32.5q-53 0 -88.5 28z" glyph-name="three.dnom" horiz-adv-x="312"/><glyph d="M254 129h54v-50h-54v-79h-56v79h-186v50l169 251h73v-251zM198 318l-124 -189h124v189z" glyph-name="four.dnom" horiz-adv-x="319"/><glyph d="M62.5 11.5q-33.5 19.5 -48.5 54.5l47 29q26 -52 81 -52q36 0 56 21t20 56q0 34 -19.5 55t-54.5 21q-20 0 -37.5 -8.5t-28.5 -23.5l-52 17l30 199h206v-53h-162l-19 -114q12 14 32.5 22.5t45.5 8.5q52 0 84 -33t32 -88q0 -58 -36 -94.5t-98 -36.5q-45 0 -78.5 19.5z" glyph-name="five.dnom" horiz-adv-x="288"/><glyph d="M252.5 210q33.5 -35 33.5 -91q0 -55 -36.5 -91t-95.5 -36q-61 0 -96.5 34.5t-35.5 90.5q0 27 9 51t27 53l100 159h68l-93 -141q15 6 34 6q52 0 85.5 -35zM208 64q21 21 21 55t-21 55t-54 21t-53.5 -21t-20.5 -55t20.5 -55t53.5 -21t54 21z" glyph-name="six.dnom" horiz-adv-x="308"/><glyph d="M91 0q0 102 28.5 181t88.5 146h-194v53h252v-53q-59 -66 -86 -145t-27 -182h-62z" glyph-name="seven.dnom" horiz-adv-x="275"/><glyph d="M58 23.5q-35 31.5 -35 80.5q0 37 18.5 61.5t49.5 36.5q-26 10 -41 32.5t-15 50.5q0 45 31.5 73.5t85.5 28.5t86 -28.5t32 -73.5q0 -28 -15 -50.5t-42 -32.5q33 -12 51 -37.5t18 -59.5q0 -50 -35 -81.5t-95 -31.5q-59 0 -94 31.5zM198 237.5q17 16.5 17 42.5t-17 42.5 t-46 16.5q-28 0 -45.5 -16.5t-17.5 -42.5q0 -25 17 -42t46 -17t46 16.5zM205 59q20 18 20 49t-20 49.5t-53 18.5q-32 0 -52 -18.5t-20 -49.5t20 -49t52 -18q33 0 53 18z" glyph-name="eight.dnom" horiz-adv-x="305"/><glyph d="M250.5 352.5q35.5 -34.5 35.5 -89.5q0 -27 -9 -52t-26 -53l-100 -158h-69l93 141q-14 -7 -33 -7q-53 0 -86.5 35.5t-33.5 91.5q0 55 36.5 90.5t95.5 35.5q61 0 96.5 -34.5zM208.5 205q20.5 21 20.5 55t-20.5 55.5t-54.5 21.5q-33 0 -53.5 -21.5t-20.5 -55.5t20.5 -55 t53.5 -21q34 0 54.5 21z" glyph-name="nine.dnom" horiz-adv-x="304"/><glyph d="M65 353q-41 51 -41 147t41 146.5t107 50.5t106.5 -50.5t40.5 -146.5t-40.5 -147t-106.5 -51t-107 51zM239.5 389q21.5 36 21.5 111t-22 110.5t-67 35.5q-46 0 -68 -35.5t-22 -110.5t22 -111t68 -36t67.5 36z" glyph-name="zero.numr" horiz-adv-x="343"/><glyph d="M117 618q-28 -53 -94 -67v64q61 9 94 75h59v-380h-59v308z" glyph-name="one.numr" horiz-adv-x="222"/><glyph d="M277 361v-51h-254v25q0 69 30 109.5t87 63.5q36 14 54.5 34.5t18.5 45.5q0 28 -17.5 43t-48.5 15q-56 0 -75 -65l-50 22q12 43 43 68.5t83 25.5q59 0 91 -28t32 -79q0 -42 -26.5 -73t-69.5 -50q-51 -22 -72.5 -44t-24.5 -62h199z" glyph-name="two.numr" horiz-adv-x="299"/><glyph d="M64.5 330q-35.5 28 -43.5 73l51 21q19 -71 82 -71q34 0 54 17.5t20 50.5q0 28 -18.5 43t-52.5 15h-22v50h18q26 0 45 16.5t19 43.5q0 25 -17.5 41t-47.5 16q-56 0 -74 -55l-49 19q11 40 42.5 63.5t79.5 23.5q59 0 91 -28.5t32 -74.5q0 -56 -54 -84q29 -8 47.5 -32 t18.5 -58q0 -53 -36 -85.5t-97 -32.5q-53 0 -88.5 28z" glyph-name="three.numr" horiz-adv-x="312"/><glyph d="M254 439h54v-50h-54v-79h-56v79h-186v50l169 251h73v-251zM198 628l-124 -189h124v189z" glyph-name="four.numr" horiz-adv-x="319"/><glyph d="M62.5 321.5q-33.5 19.5 -48.5 54.5l47 29q26 -52 81 -52q36 0 56 21t20 56q0 34 -19.5 55t-54.5 21q-20 0 -37.5 -8.5t-28.5 -23.5l-52 17l30 199h206v-53h-162l-19 -114q12 14 32.5 22.5t45.5 8.5q52 0 84 -33t32 -88q0 -58 -36 -94.5t-98 -36.5q-45 0 -78.5 19.5z" glyph-name="five.numr" horiz-adv-x="288"/><glyph d="M252.5 520q33.5 -35 33.5 -91q0 -55 -36.5 -91t-95.5 -36q-61 0 -96.5 34.5t-35.5 90.5q0 27 9 51t27 53l100 159h68l-93 -141q15 6 34 6q52 0 85.5 -35zM208 374q21 21 21 55t-21 55t-54 21t-53.5 -21t-20.5 -55t20.5 -55t53.5 -21t54 21z" glyph-name="six.numr" horiz-adv-x="308"/><glyph d="M91 310q0 102 28.5 181t88.5 146h-194v53h252v-53q-59 -66 -86 -145t-27 -182h-62z" glyph-name="seven.numr" horiz-adv-x="275"/><glyph d="M58 333.5q-35 31.5 -35 80.5q0 37 18.5 61.5t49.5 36.5q-26 10 -41 32.5t-15 50.5q0 45 31.5 73.5t85.5 28.5t86 -28.5t32 -73.5q0 -28 -15 -50.5t-42 -32.5q33 -12 51 -37.5t18 -59.5q0 -50 -35 -81.5t-95 -31.5q-59 0 -94 31.5zM198 547.5q17 16.5 17 42.5t-17 42.5 t-46 16.5q-28 0 -45.5 -16.5t-17.5 -42.5q0 -25 17 -42t46 -17t46 16.5zM205 369q20 18 20 49t-20 49.5t-53 18.5q-32 0 -52 -18.5t-20 -49.5t20 -49t52 -18q33 0 53 18z" glyph-name="eight.numr" horiz-adv-x="305"/><glyph d="M250.5 662.5q35.5 -34.5 35.5 -89.5q0 -27 -9 -52t-26 -53l-100 -158h-69l93 141q-14 -7 -33 -7q-53 0 -86.5 35.5t-33.5 91.5q0 55 36.5 90.5t95.5 35.5q61 0 96.5 -34.5zM208.5 515q20.5 21 20.5 55t-20.5 55.5t-54.5 21.5q-33 0 -53.5 -21.5t-20.5 -55.5t20.5 -55 t53.5 -21q34 0 54.5 21z" glyph-name="nine.numr" horiz-adv-x="304"/><glyph d="M65 453q-41 51 -41 147t41 146.5t107 50.5t106.5 -50.5t40.5 -146.5t-40.5 -147t-106.5 -51t-107 51zM239.5 489q21.5 36 21.5 111t-22 110.5t-67 35.5q-46 0 -68 -35.5t-22 -110.5t22 -111t68 -36t67.5 36z" glyph-name="uni2070" horiz-adv-x="343" unicode="⁰"/><glyph d="M117 718q-28 -53 -94 -67v64q61 9 94 75h59v-380h-59v308z" glyph-name="uni00B9" horiz-adv-x="222" unicode="¹"/><glyph d="M277 461v-51h-254v25q0 69 30 109.5t87 63.5q36 14 54.5 34.5t18.5 45.5q0 28 -17.5 43t-48.5 15q-56 0 -75 -65l-50 22q12 43 43 68.5t83 25.5q59 0 91 -28t32 -79q0 -42 -26.5 -73t-69.5 -50q-51 -22 -72.5 -44t-24.5 -62h199z" glyph-name="uni00B2" horiz-adv-x="299" unicode="²"/><glyph d="M64.5 430q-35.5 28 -43.5 73l51 21q19 -71 82 -71q34 0 54 17.5t20 50.5q0 28 -18.5 43t-52.5 15h-22v50h18q26 0 45 16.5t19 43.5q0 25 -17.5 41t-47.5 16q-56 0 -74 -55l-49 19q11 40 42.5 63.5t79.5 23.5q59 0 91 -28.5t32 -74.5q0 -56 -54 -84q29 -8 47.5 -32 t18.5 -58q0 -53 -36 -85.5t-97 -32.5q-53 0 -88.5 28z" glyph-name="uni00B3" horiz-adv-x="312" unicode="³"/><glyph d="M254 539h54v-50h-54v-79h-56v79h-186v50l169 251h73v-251zM198 728l-124 -189h124v189z" glyph-name="uni2074" horiz-adv-x="319" unicode="⁴"/><glyph d="M62.5 421.5q-33.5 19.5 -48.5 54.5l47 29q26 -52 81 -52q36 0 56 21t20 56q0 34 -19.5 55t-54.5 21q-20 0 -37.5 -8.5t-28.5 -23.5l-52 17l30 199h206v-53h-162l-19 -114q12 14 32.5 22.5t45.5 8.5q52 0 84 -33t32 -88q0 -58 -36 -94.5t-98 -36.5q-45 0 -78.5 19.5z" glyph-name="uni2075" horiz-adv-x="288" unicode="⁵"/><glyph d="M252.5 620q33.5 -35 33.5 -91q0 -55 -36.5 -91t-95.5 -36q-61 0 -96.5 34.5t-35.5 90.5q0 27 9 51t27 53l100 159h68l-93 -141q15 6 34 6q52 0 85.5 -35zM208 474q21 21 21 55t-21 55t-54 21t-53.5 -21t-20.5 -55t20.5 -55t53.5 -21t54 21z" glyph-name="uni2076" horiz-adv-x="308" unicode="⁶"/><glyph d="M91 410q0 102 28.5 181t88.5 146h-194v53h252v-53q-59 -66 -86 -145t-27 -182h-62z" glyph-name="uni2077" horiz-adv-x="275" unicode="⁷"/><glyph d="M58 433.5q-35 31.5 -35 80.5q0 37 18.5 61.5t49.5 36.5q-26 10 -41 32.5t-15 50.5q0 45 31.5 73.5t85.5 28.5t86 -28.5t32 -73.5q0 -28 -15 -50.5t-42 -32.5q33 -12 51 -37.5t18 -59.5q0 -50 -35 -81.5t-95 -31.5q-59 0 -94 31.5zM198 647.5q17 16.5 17 42.5t-17 42.5 t-46 16.5q-28 0 -45.5 -16.5t-17.5 -42.5q0 -25 17 -42t46 -17t46 16.5zM205 469q20 18 20 49t-20 49.5t-53 18.5q-32 0 -52 -18.5t-20 -49.5t20 -49t52 -18q33 0 53 18z" glyph-name="uni2078" horiz-adv-x="305" unicode="⁸"/><glyph d="M250.5 762.5q35.5 -34.5 35.5 -89.5q0 -27 -9 -52t-26 -53l-100 -158h-69l93 141q-14 -7 -33 -7q-53 0 -86.5 35.5t-33.5 91.5q0 55 36.5 90.5t95.5 35.5q61 0 96.5 -34.5zM208.5 615q20.5 21 20.5 55t-20.5 55.5t-54.5 21.5q-33 0 -53.5 -21.5t-20.5 -55.5t20.5 -55 t53.5 -21q34 0 54.5 21z" glyph-name="uni2079" horiz-adv-x="304" unicode="⁹"/><glyph d="M-72 0h-69l417 690h69z" glyph-name="fraction" horiz-adv-x="204" unicode="⁄"/><glyph d="M117 618q-28 -53 -94 -67v64q61 9 94 75h59v-380h-59v308zM150 0h-69l417 690h69zM691 51v-51h-254v25q0 69 30 109.5t87 63.5q36 14 54.5 34.5t18.5 45.5q0 28 -17.5 43t-48.5 15q-56 0 -75 -65l-50 22q12 43 43 68.5t83 25.5q59 0 91 -28t32 -79q0 -42 -26.5 -73 t-69.5 -50q-51 -22 -72.5 -44t-24.5 -62h199z" glyph-name="onehalf" horiz-adv-x="713" unicode="½"/><glyph d="M117 618q-28 -53 -94 -67v64q61 9 94 75h59v-380h-59v308zM150 0h-69l417 690h69zM476.5 20q-35.5 28 -43.5 73l51 21q19 -71 82 -71q34 0 54 17.5t20 50.5q0 28 -18.5 43t-52.5 15h-22v50h18q26 0 45 16.5t19 43.5q0 25 -17.5 41t-47.5 16q-56 0 -74 -55l-49 19 q11 40 42.5 63.5t79.5 23.5q59 0 91 -28.5t32 -74.5q0 -56 -54 -84q29 -8 47.5 -32t18.5 -58q0 -53 -36 -85.5t-97 -32.5q-53 0 -88.5 28z" glyph-name="onethird" horiz-adv-x="724" unicode="⅓"/><glyph d="M277 361v-51h-254v25q0 69 30 109.5t87 63.5q36 14 54.5 34.5t18.5 45.5q0 28 -17.5 43t-48.5 15q-56 0 -75 -65l-50 22q12 43 43 68.5t83 25.5q59 0 91 -28t32 -79q0 -42 -26.5 -73t-69.5 -50q-51 -22 -72.5 -44t-24.5 -62h199zM227 0h-69l417 690h69zM553.5 20 q-35.5 28 -43.5 73l51 21q19 -71 82 -71q34 0 54 17.5t20 50.5q0 28 -18.5 43t-52.5 15h-22v50h18q26 0 45 16.5t19 43.5q0 25 -17.5 41t-47.5 16q-56 0 -74 -55l-49 19q11 40 42.5 63.5t79.5 23.5q59 0 91 -28.5t32 -74.5q0 -56 -54 -84q29 -8 47.5 -32t18.5 -58 q0 -53 -36 -85.5t-97 -32.5q-53 0 -88.5 28z" glyph-name="twothirds" horiz-adv-x="801" unicode="⅔"/><glyph d="M117 618q-28 -53 -94 -67v64q61 9 94 75h59v-380h-59v308zM150 0h-69l417 690h69zM610 129h54v-50h-54v-79h-56v79h-186v50l169 251h73v-251zM554 318l-124 -189h124v189z" glyph-name="onequarter" horiz-adv-x="675" unicode="¼"/><glyph d="M64.5 330q-35.5 28 -43.5 73l51 21q19 -71 82 -71q34 0 54 17.5t20 50.5q0 28 -18.5 43t-52.5 15h-22v50h18q26 0 45 16.5t19 43.5q0 25 -17.5 41t-47.5 16q-56 0 -74 -55l-49 19q11 40 42.5 63.5t79.5 23.5q59 0 91 -28.5t32 -74.5q0 -56 -54 -84q29 -8 47.5 -32 t18.5 -58q0 -53 -36 -85.5t-97 -32.5q-53 0 -88.5 28zM220 0h-69l417 690h69zM680 129h54v-50h-54v-79h-56v79h-186v50l169 251h73v-251zM624 318l-124 -189h124v189z" glyph-name="threequarters" horiz-adv-x="745" unicode="¾"/><glyph d="M117 618q-28 -53 -94 -67v64q61 9 94 75h59v-380h-59v308zM150 0h-69l417 690h69zM464 23.5q-35 31.5 -35 80.5q0 37 18.5 61.5t49.5 36.5q-26 10 -41 32.5t-15 50.5q0 45 31.5 73.5t85.5 28.5t86 -28.5t32 -73.5q0 -28 -15 -50.5t-42 -32.5q33 -12 51 -37.5t18 -59.5 q0 -50 -35 -81.5t-95 -31.5q-59 0 -94 31.5zM604 237.5q17 16.5 17 42.5t-17 42.5t-46 16.5q-28 0 -45.5 -16.5t-17.5 -42.5q0 -25 17 -42t46 -17t46 16.5zM611 59q20 18 20 49t-20 49.5t-53 18.5q-32 0 -52 -18.5t-20 -49.5t20 -49t52 -18q33 0 53 18z" glyph-name="oneeighth" horiz-adv-x="711" unicode="⅛"/><glyph d="M64.5 330q-35.5 28 -43.5 73l51 21q19 -71 82 -71q34 0 54 17.5t20 50.5q0 28 -18.5 43t-52.5 15h-22v50h18q26 0 45 16.5t19 43.5q0 25 -17.5 41t-47.5 16q-56 0 -74 -55l-49 19q11 40 42.5 63.5t79.5 23.5q59 0 91 -28.5t32 -74.5q0 -56 -54 -84q29 -8 47.5 -32 t18.5 -58q0 -53 -36 -85.5t-97 -32.5q-53 0 -88.5 28zM220 0h-69l417 690h69zM534 23.5q-35 31.5 -35 80.5q0 37 18.5 61.5t49.5 36.5q-26 10 -41 32.5t-15 50.5q0 45 31.5 73.5t85.5 28.5t86 -28.5t32 -73.5q0 -28 -15 -50.5t-42 -32.5q33 -12 51 -37.5t18 -59.5 q0 -50 -35 -81.5t-95 -31.5q-59 0 -94 31.5zM674 237.5q17 16.5 17 42.5t-17 42.5t-46 16.5q-28 0 -45.5 -16.5t-17.5 -42.5q0 -25 17 -42t46 -17t46 16.5zM681 59q20 18 20 49t-20 49.5t-53 18.5q-32 0 -52 -18.5t-20 -49.5t20 -49t52 -18q33 0 53 18z" glyph-name="threeeighths" horiz-adv-x="781" unicode="⅜"/><glyph d="M62.5 321.5q-33.5 19.5 -48.5 54.5l47 29q26 -52 81 -52q36 0 56 21t20 56q0 34 -19.5 55t-54.5 21q-20 0 -37.5 -8.5t-28.5 -23.5l-52 17l30 199h206v-53h-162l-19 -114q12 14 32.5 22.5t45.5 8.5q52 0 84 -33t32 -88q0 -58 -36 -94.5t-98 -36.5q-45 0 -78.5 19.5z M204 0h-69l417 690h69zM518 23.5q-35 31.5 -35 80.5q0 37 18.5 61.5t49.5 36.5q-26 10 -41 32.5t-15 50.5q0 45 31.5 73.5t85.5 28.5t86 -28.5t32 -73.5q0 -28 -15 -50.5t-42 -32.5q33 -12 51 -37.5t18 -59.5q0 -50 -35 -81.5t-95 -31.5q-59 0 -94 31.5zM658 237.5 q17 16.5 17 42.5t-17 42.5t-46 16.5q-28 0 -45.5 -16.5t-17.5 -42.5q0 -25 17 -42t46 -17t46 16.5zM665 59q20 18 20 49t-20 49.5t-53 18.5q-32 0 -52 -18.5t-20 -49.5t20 -49t52 -18q33 0 53 18z" glyph-name="fiveeighths" horiz-adv-x="765" unicode="⅝"/><glyph d="M91 310q0 102 28.5 181t88.5 146h-194v53h252v-53q-59 -66 -86 -145t-27 -182h-62zM133 0h-69l417 690h69zM447 23.5q-35 31.5 -35 80.5q0 37 18.5 61.5t49.5 36.5q-26 10 -41 32.5t-15 50.5q0 45 31.5 73.5t85.5 28.5t86 -28.5t32 -73.5q0 -28 -15 -50.5t-42 -32.5 q33 -12 51 -37.5t18 -59.5q0 -50 -35 -81.5t-95 -31.5q-59 0 -94 31.5zM587 237.5q17 16.5 17 42.5t-17 42.5t-46 16.5q-28 0 -45.5 -16.5t-17.5 -42.5q0 -25 17 -42t46 -17t46 16.5zM594 59q20 18 20 49t-20 49.5t-53 18.5q-32 0 -52 -18.5t-20 -49.5t20 -49t52 -18 q33 0 53 18z" glyph-name="seveneighths" horiz-adv-x="694" unicode="⅞"/><glyph d="M278.5 236.5q40.5 -50.5 40.5 -146.5t-40.5 -147t-106.5 -51t-107 51t-41 147t41 146.5t107 50.5t106.5 -50.5zM104 200.5q-22 -35.5 -22 -110.5q0 -60 14 -96l123 228q-18 14 -47 14q-46 0 -68 -35.5zM239.5 -21q21.5 36 21.5 111q0 58 -14 95l-123 -228q18 -14 48 -14 q46 0 67.5 36z" glyph-name="glyph456" horiz-adv-x="343"/><glyph d="M278.5 336.5q40.5 -50.5 40.5 -146.5t-40.5 -147t-106.5 -51t-107 51t-41 147t41 146.5t107 50.5t106.5 -50.5zM104 300.5q-22 -35.5 -22 -110.5q0 -60 14 -96l123 228q-18 14 -47 14q-46 0 -68 -35.5zM239.5 79q21.5 36 21.5 111q0 58 -14 95l-123 -228q18 -14 48 -14 q46 0 67.5 36z" glyph-name="glyph457" horiz-adv-x="343"/><glyph d="M278.5 646.5q40.5 -50.5 40.5 -146.5t-40.5 -147t-106.5 -51t-107 51t-41 147t41 146.5t107 50.5t106.5 -50.5zM104 610.5q-22 -35.5 -22 -110.5q0 -60 14 -96l123 228q-18 14 -47 14q-46 0 -68 -35.5zM239.5 389q21.5 36 21.5 111q0 58 -14 95l-123 -228q18 -14 48 -14 q46 0 67.5 36z" glyph-name="glyph458" horiz-adv-x="343"/><glyph d="M278.5 746.5q40.5 -50.5 40.5 -146.5t-40.5 -147t-106.5 -51t-107 51t-41 147t41 146.5t107 50.5t106.5 -50.5zM104 710.5q-22 -35.5 -22 -110.5q0 -60 14 -96l123 228q-18 14 -47 14q-46 0 -68 -35.5zM239.5 489q21.5 36 21.5 111q0 58 -14 95l-123 -228q18 -14 48 -14 q46 0 67.5 36z" glyph-name="glyph459" horiz-adv-x="343"/><glyph d="M82.5 7q-14.5 15 -14.5 38t14.5 38t38.5 15t38.5 -15t14.5 -38t-14.5 -38t-38.5 -15t-38.5 15z" glyph-name="period" horiz-adv-x="242" unicode="."/><glyph d="M68 -100q48 45 52 92q-23 0 -37.5 15t-14.5 38t14.5 38t37.5 15q24 0 39 -17t15 -50q0 -55 -16 -91.5t-47 -71.5z" glyph-name="comma" horiz-adv-x="242" unicode=","/><glyph d="M82.5 7q-14.5 15 -14.5 38t14.5 38t38.5 15t38.5 -15t14.5 -38t-14.5 -38t-38.5 -15t-38.5 15zM82.5 387q-14.5 15 -14.5 38t14.5 38t38.5 15t38.5 -15t14.5 -38t-14.5 -38t-38.5 -15t-38.5 15z" glyph-name="colon" horiz-adv-x="242" unicode=":"/><glyph d="M68 -100q48 45 52 92q-23 0 -37.5 15t-14.5 38t14.5 38t37.5 15q24 0 39 -17t15 -50q0 -55 -16 -91.5t-47 -71.5zM82.5 387q-14.5 15 -14.5 38t14.5 38t38.5 15t38.5 -15t14.5 -38t-14.5 -38t-38.5 -15t-38.5 15z" glyph-name="semicolon" horiz-adv-x="242" unicode=";"/><glyph d="M312.5 7q-14.5 15 -14.5 38t14.5 38t38.5 15t38.5 -15t14.5 -38t-14.5 -38t-38.5 -15t-38.5 15zM542.5 7q-14.5 15 -14.5 38t14.5 38t38.5 15t38.5 -15t14.5 -38t-14.5 -38t-38.5 -15t-38.5 15zM82.5 7q-14.5 15 -14.5 38t14.5 38t38.5 15t38.5 -15t14.5 -38t-14.5 -38 t-38.5 -15t-38.5 15z" glyph-name="ellipsis" horiz-adv-x="702" unicode="…"/><glyph d="M145 215h-58l-6 475h72zM78.5 7q-14.5 15 -14.5 38t14.5 38t38.5 15t38.5 -15t14.5 -38t-14.5 -38t-38.5 -15t-38.5 15z" glyph-name="exclam" horiz-adv-x="234" unicode="!"/><glyph d="M113.5 393q-14.5 15 -14.5 38t14.5 38t37.5 15t38 -15t15 -38t-15 -38t-38 -15t-37.5 15zM187 -190h-72l6 451h58z" glyph-name="exclamdown" horiz-adv-x="303" unicode="¡"/><glyph d="M212 359q67 14 108.5 50.5t41.5 101.5q0 57 -33 92.5t-92 35.5q-48 0 -80.5 -22t-54.5 -69l-61 28q25 56 76 92t122 36q57 0 101 -24t67.5 -66t23.5 -95q0 -52 -22 -94t-57.5 -69t-75.5 -36l-6 -105h-56zM204.5 7q-14.5 15 -14.5 38t14.5 38t37.5 15t38 -15t15 -38 t-15 -38t-38 -15t-37.5 15z" glyph-name="question" horiz-adv-x="477" unicode="?"/><glyph d="M197 393q-15 15 -15 38t15 38t38 15t37.5 -15t14.5 -38t-14.5 -38t-37.5 -15t-38 15zM137 -180q-44 24 -67.5 66t-23.5 95q0 52 22 94t57.5 69t75.5 36l6 81h56l2 -120q-67 -14 -108.5 -50.5t-41.5 -101.5q0 -57 33 -92.5t92 -35.5q48 0 80.5 22t54.5 69l61 -28 q-25 -56 -76 -92t-122 -36q-57 0 -101 24z" glyph-name="questiondown" horiz-adv-x="477" unicode="¿"/><glyph d="M82.5 307q-14.5 15 -14.5 38t14.5 38t38.5 15t38.5 -15t14.5 -38t-14.5 -38t-38.5 -15t-38.5 15z" glyph-name="periodcentered" horiz-adv-x="242" unicode="·"/><glyph d="M68.5 272.5q-28.5 28.5 -28.5 72.5t28.5 72.5t72.5 28.5t72.5 -28.5t28.5 -72.5t-28.5 -72.5t-72.5 -28.5t-72.5 28.5z" glyph-name="bullet" horiz-adv-x="282" unicode="•"/><glyph d="M339 654l21 -65l-130 -26l90 -98l-55 -40l-65 115l-65 -115l-55 40l90 98l-130 26l21 65l120 -55l-15 131h68l-15 -131z" glyph-name="asterisk" horiz-adv-x="400" unicode="*"/><glyph d="M606 490l-10 -60h-108l-24 -170h112l-10 -60h-111l-29 -200h-68l29 200h-182l-29 -200h-68l29 200h-109l10 60h108l24 170h-112l10 60h111l29 200h68l-29 -200h182l29 200h68l-29 -200h109zM214 260h182l24 170h-182z" glyph-name="numbersign" horiz-adv-x="634" unicode="#"/><glyph d="M113 -120h-68l280 850h68z" glyph-name="slash" horiz-adv-x="438" unicode="/"/><glyph d="M393 -120h-68l-280 850h68z" glyph-name="backslash" horiz-adv-x="438" unicode="\"/><glyph d="M218 -120q-77 63 -124.5 169t-47.5 256t47.5 256t124.5 169h60q-72 -68 -116 -180.5t-44 -244.5t44 -244.5t116 -180.5h-60z" glyph-name="parenleft" horiz-adv-x="308" unicode="("/><glyph d="M30 -120q72 68 116 180.5t44 244.5t-44 244.5t-116 180.5h60q77 -63 124.5 -169t47.5 -256t-47.5 -256t-124.5 -169h-60z" glyph-name="parenright" horiz-adv-x="308" unicode=")"/><glyph d="M240 -120q-57 0 -87.5 30.5t-30.5 87.5v210q0 25 -12 41t-36 20l-40 8v56l40 8q24 4 36 20t12 41v210q0 57 30.5 87.5t87.5 30.5h56v-62h-46q-29 0 -44.5 -15.5t-15.5 -44.5v-216q0 -35 -18.5 -57.5t-52.5 -29.5q34 -7 52.5 -29.5t18.5 -57.5v-216q0 -29 15.5 -44.5 t44.5 -15.5h46v-62h-56z" glyph-name="braceleft" horiz-adv-x="347" unicode="{"/><glyph d="M51 -120v62h46q29 0 44.5 15.5t15.5 44.5v216q0 35 18.5 57.5t52.5 29.5q-34 7 -52.5 29.5t-18.5 57.5v216q0 29 -15.5 44.5t-44.5 15.5h-46v62h56q57 0 87.5 -30.5t30.5 -87.5v-210q0 -25 12 -41t36 -20l40 -8v-56l-40 -8q-24 -4 -36 -20t-12 -41v-210 q0 -57 -30.5 -87.5t-87.5 -30.5h-56z" glyph-name="braceright" horiz-adv-x="347" unicode="}"/><glyph d="M259 -120h-174v850h174v-62h-106v-726h106v-62z" glyph-name="bracketleft" horiz-adv-x="310" unicode="["/><glyph d="M225 -120h-174v62h106v726h-106v62h174v-850z" glyph-name="bracketright" horiz-adv-x="310" unicode="]"/><glyph d="M358 284h-308v60h308v-60z" glyph-name="hyphen" horiz-adv-x="408" unicode="-"/><glyph d="M358 284h-308v60h308v-60z" glyph-name="uni00AD" horiz-adv-x="428" unicode="­"/><glyph d="M458 284h-408v60h408v-60z" glyph-name="endash" horiz-adv-x="508" unicode="–"/><glyph d="M738 284h-688v60h688v-60z" glyph-name="emdash" horiz-adv-x="788" unicode="—"/><glyph d="M458 -96h-408v60h408v-60z" glyph-name="underscore" horiz-adv-x="508" unicode="_"/><glyph d="M358 315h-308v60h308v-60z" glyph-name="glyph486" horiz-adv-x="408"/><glyph d="M358 315h-308v60h308v-60z" glyph-name="glyph487" horiz-adv-x="408"/><glyph d="M458 315h-408v60h408v-60z" glyph-name="glyph488" horiz-adv-x="508"/><glyph d="M738 315h-688v60h688v-60z" glyph-name="glyph489" horiz-adv-x="788"/><glyph d="M53 -103q30 26 47 49t20 46q-23 0 -38 15t-15 38t15 38t39 15q23 0 38.5 -18.5t15.5 -51.5q0 -98 -85 -162z" glyph-name="quotesinglbase" horiz-adv-x="241" unicode="‚"/><glyph d="M53 -103q30 26 47 49t20 46q-23 0 -38 15t-15 38t15 38t39 15q23 0 38.5 -18.5t15.5 -51.5q0 -98 -85 -162zM233 -103q30 26 47 49t20 46q-23 0 -38 15t-15 38t15 38t39 15q23 0 38.5 -18.5t15.5 -51.5q0 -98 -85 -162z" glyph-name="quotedblbase" horiz-adv-x="421" unicode="„"/><glyph d="M81.5 484.5q-15.5 18.5 -15.5 51.5q0 98 85 162l37 -31q-30 -26 -47 -49t-20 -46q23 0 38 -15t15 -38t-15 -38t-39 -15q-23 0 -38.5 18.5zM253.5 484.5q-15.5 18.5 -15.5 51.5q0 98 85 162l37 -31q-30 -26 -47 -49t-20 -46q23 0 38 -15t15 -38t-15 -38t-39 -15 q-23 0 -38.5 18.5z" glyph-name="quotedblleft" horiz-adv-x="413" unicode="“"/><glyph d="M53 497q30 26 47 49t20 46q-23 0 -38 15t-15 38t15 38t39 15q23 0 38.5 -18.5t15.5 -51.5q0 -98 -85 -162zM225 497q30 26 47 49t20 46q-23 0 -38 15t-15 38t15 38t39 15q23 0 38.5 -18.5t15.5 -51.5q0 -98 -85 -162z" glyph-name="quotedblright" horiz-adv-x="413" unicode="”"/><glyph d="M81.5 484.5q-15.5 18.5 -15.5 51.5q0 98 85 162l37 -31q-30 -26 -47 -49t-20 -46q23 0 38 -15t15 -38t-15 -38t-39 -15q-23 0 -38.5 18.5z" glyph-name="quoteleft" horiz-adv-x="241" unicode="‘"/><glyph d="M53 497q30 26 47 49t20 46q-23 0 -38 15t-15 38t15 38t39 15q23 0 38.5 -18.5t15.5 -51.5q0 -98 -85 -162z" glyph-name="quoteright" horiz-adv-x="241" unicode="’"/><glyph d="M434 110h-89l-131 170v22l131 170h89l-158 -181zM254 110h-89l-131 170v22l131 170h89l-158 -181z" glyph-name="guillemotleft" horiz-adv-x="462" unicode="«"/><glyph d="M297 110h-89l158 181l-158 181h89l131 -170v-22zM117 110h-89l158 181l-158 181h89l131 -170v-22z" glyph-name="guillemotright" horiz-adv-x="462" unicode="»"/><glyph d="M254 110h-89l-131 170v22l131 170h89l-158 -181z" glyph-name="guilsinglleft" horiz-adv-x="282" unicode="‹"/><glyph d="M117 110h-89l158 181l-158 181h89l131 -170v-22z" glyph-name="guilsinglright" horiz-adv-x="282" unicode="›"/><glyph d="M118 463h-57l-6 227h68zM288 463h-57l-6 227h68z" glyph-name="quotedbl" horiz-adv-x="348" unicode="&quot;"/><glyph d="M118 463h-57l-6 227h68z" glyph-name="quotesingle" horiz-adv-x="178" unicode="'"/><glyph glyph-name="uni00A0" horiz-adv-x="220"/><glyph d="M466 223q-56 -110 -164 -125v-98h-72v99q-80 14 -131 79t-51 167q0 101 51 166t131 79v100h72v-98q53 -7 94 -36.5t63 -81.5l-55 -34q-19 40 -43.5 62t-58.5 29v-372q71 16 110 99zM149 221q30 -48 81 -60v368q-51 -13 -81 -60t-30 -124q0 -76 30 -124z" glyph-name="cent" horiz-adv-x="504" unicode="¢"/><glyph d="M472 223l96 -96l-51 -51l-93 93q-54 -43 -126 -43q-71 0 -125 42l-92 -92l-51 51l94 94q-33 53 -33 124t33 124l-94 94l51 51l92 -92q54 42 125 42q35 0 67.5 -11t58.5 -32l93 93l51 -51l-96 -96q33 -52 33 -122t-33 -122zM398 228q39 44 39 117t-39 117t-100 44 t-100 -44t-39 -117t39 -117t100 -44t100 44z" glyph-name="currency" horiz-adv-x="598" unicode="¤"/><glyph d="M465.5 52.5q-52.5 -53.5 -147.5 -64.5v-88h-72v87q-77 6 -131.5 42.5t-85.5 92.5l57 47q29 -51 65.5 -79t94.5 -34v275q-85 24 -136 66.5t-51 124.5q0 76 53.5 124t133.5 56v88h72v-88q63 -8 112 -39.5t81 -82.5l-52 -44q-36 47 -67 69t-74 28v-249q63 -19 105.5 -40.5 t68.5 -58.5t26 -94q0 -85 -52.5 -138.5zM159 451q30 -26 87 -45v228q-53 -6 -85 -34.5t-32 -77.5q0 -45 30 -71zM318 56q62 8 95 42.5t33 90.5q0 46 -33 73.5t-95 47.5v-254z" glyph-name="dollar" horiz-adv-x="559" unicode="$"/><glyph d="M450 613v-53h-60v-444h-55l-5 48q-18 -26 -51 -42.5t-73 -16.5q-45 0 -83.5 23t-61.5 68t-23 108t23 108t61.5 68t83.5 23q38 0 70.5 -15t50.5 -40v112h-131v53h131v77h63v-77h60zM327 222v164q-43 63 -108 63q-47 0 -81.5 -36.5t-34.5 -108.5t34.5 -108.5t81.5 -36.5 q64 0 108 63zM390 0h-352v53h352v-53z" glyph-name="dong" horiz-adv-x="474" unicode="₫"/><glyph d="M575 177l59 -41q-36 -73 -99 -111.5t-148 -38.5q-98 0 -174 62t-102 182h-87v60h78q-2 36 -2 55q0 28 3 55h-79v60h88q26 117 101.5 180.5t174.5 63.5q173 0 246 -150l-59 -41q-29 62 -78.5 92.5t-108.5 30.5q-72 0 -125.5 -46t-76.5 -130h252l-12 -60h-251 q-3 -25 -3 -55q0 -28 3 -55h227l-12 -60h-203q23 -80 75.5 -128t124.5 -48q127 0 188 123z" glyph-name="Euro" horiz-adv-x="670" unicode="€"/><glyph d="M-10 -196v61q10 -4 26.5 -7.5t30.5 -3.5q40 0 53.5 19t13.5 61v478h-100v58h100v133q0 66 32.5 103.5t107.5 37.5q22 0 43 -4t32 -8v-61q-12 6 -34 10.5t-40 4.5q-43 0 -58 -20t-15 -63v-133h125v-58h-125v-478q0 -138 -134 -138q-34 0 -58 8z" glyph-name="florin" horiz-adv-x="337" unicode="ƒ"/><glyph d="M518 258q0 -120 -61.5 -189t-181.5 -69h-160v126l-90 -55v68l90 55v102l-90 -55v68l90 55v326h72v-282l148 91v-68l-148 -91v-102l148 91v-68l-148 -91v-102h89q93 0 133.5 50t40.5 140h68z" glyph-name="uni20BA" horiz-adv-x="560" unicode="₺"/><glyph d="M491 68v-68h-467v68q40 32 55.5 71t15.5 95v58h-71v60h71v123q0 73 26.5 124.5t73.5 78t106 26.5q67 0 116.5 -32.5t70.5 -93.5l-59 -34q-17 47 -49 69.5t-81 22.5q-132 0 -132 -166v-118h217v-60h-217v-53q0 -125 -70 -171h394z" glyph-name="sterling" horiz-adv-x="515" unicode="£"/><glyph d="M471 690h79l-194 -337h109v-60h-144v-74h124v-60h-124v-159h-72v159h-124v60h124v74h-144v60h109l-194 337h79l186 -332z" glyph-name="yen" horiz-adv-x="570" unicode="¥"/><glyph d="M172.5 272.5q-28.5 28.5 -28.5 72.5t28.5 72.5t72.5 28.5t72.5 -28.5t28.5 -72.5t-28.5 -72.5t-72.5 -28.5t-72.5 28.5z" glyph-name="uni2219" horiz-adv-x="490" unicode="∙"/><glyph d="M164 0h-68l230 690h68z" glyph-name="uni2215" horiz-adv-x="490" unicode="∕"/><glyph d="M275 107h-60v177h-177v60h177v177h60v-177h177v-60h-177v-177z" glyph-name="plus" horiz-adv-x="490" unicode="+"/><glyph d="M452 284h-414v60h414v-60z" glyph-name="minus" horiz-adv-x="490" unicode="−"/><glyph d="M245 271l-152 -152l-43 43l152 152l-152 152l43 43l152 -152l152 152l43 -43l-152 -152l152 -152l-43 -43z" glyph-name="multiply" horiz-adv-x="490" unicode="×"/><glyph d="M452 284h-414v60h414v-60zM206.5 86q-14.5 15 -14.5 38t14.5 38t38.5 15t38.5 -15t14.5 -38t-14.5 -38t-38.5 -15t-38.5 15zM206.5 466q-14.5 15 -14.5 38t14.5 38t38.5 15t38.5 -15t14.5 -38t-14.5 -38t-38.5 -15t-38.5 15z" glyph-name="divide" horiz-adv-x="490" unicode="÷"/><glyph d="M452 399h-414v60h414v-60zM452 169h-414v60h414v-60z" glyph-name="equal" horiz-adv-x="490" unicode="="/><glyph d="M452 459v-60h-135l-79 -170h214v-60h-242l-54 -117l-54 25l43 92h-107v60h135l79 170h-214v60h242l54 117l54 -25l-43 -92h107z" glyph-name="notequal" horiz-adv-x="490" unicode="≠"/><glyph d="M452 283l-414 -194v68l342 157l-342 157v68l414 -194v-62z" glyph-name="greater" horiz-adv-x="490" unicode="&gt;"/><glyph d="M452 157v-68l-414 194v62l414 194v-68l-342 -157z" glyph-name="less" horiz-adv-x="490" unicode="&lt;"/><glyph d="M452 314l-414 -174v68l342 137l-342 137v68l414 -174v-62zM452 0h-414v60h414v-60z" glyph-name="greaterequal" horiz-adv-x="490" unicode="≥"/><glyph d="M452 208v-68l-414 174v62l414 174v-68l-342 -137zM452 0h-414v60h414v-60z" glyph-name="lessequal" horiz-adv-x="490" unicode="≤"/><glyph d="M275 168h-60v147h-177v60h177v147h60v-147h177v-60h-177v-147zM452 0h-414v60h414v-60z" glyph-name="plusminus" horiz-adv-x="490" unicode="±"/><glyph d="M292.5 370.5q-23.5 6.5 -54.5 19.5q-31 12 -50 18t-38 6q-21 0 -36 -8t-34 -30l-30 44q16 24 42.5 39t57.5 15q24 0 47.5 -6.5t54.5 -19.5q31 -12 50 -18t38 -6q22 0 36.5 8t33.5 30l30 -44q-16 -24 -42.5 -39t-57.5 -15q-24 0 -47.5 6.5zM292.5 170.5 q-23.5 6.5 -54.5 19.5q-31 12 -50 18t-38 6q-21 0 -36 -8t-34 -30l-30 44q16 24 42.5 39t57.5 15q24 0 47.5 -6.5t54.5 -19.5q31 -12 50 -18t38 -6q22 0 36.5 8t33.5 30l30 -44q-16 -24 -42.5 -39t-57.5 -15q-24 0 -47.5 6.5z" glyph-name="approxequal" horiz-adv-x="490" unicode="≈"/><glyph d="M292.5 265.5q-23.5 6.5 -54.5 19.5q-31 12 -50 18t-38 6q-21 0 -36 -8t-34 -30l-30 44q16 24 42.5 39t57.5 15q24 0 47.5 -6.5t54.5 -19.5q31 -12 50 -18t38 -6q22 0 36.5 8t33.5 30l30 -44q-16 -24 -42.5 -39t-57.5 -15q-24 0 -47.5 6.5z" glyph-name="asciitilde" horiz-adv-x="490" unicode="~"/><glyph d="M440 139h-60v145h-330v60h390v-205z" glyph-name="logicalnot" horiz-adv-x="490" unicode="¬"/><glyph d="M118 440h-68l148 250h54l148 -250h-68l-107 186z" glyph-name="asciicircum" horiz-adv-x="450" unicode="^"/><glyph d="M60.5 223q-40.5 43 -40.5 114t40.5 114t113.5 43q51 0 91 -25t69 -79q29 54 69 79t91 25q73 0 113.5 -43t40.5 -114t-40.5 -114t-113.5 -43q-51 0 -91 25t-69 79q-29 -54 -69 -79t-91 -25q-73 0 -113.5 43zM245.5 259.5q27.5 23.5 56.5 77.5q-29 54 -56.5 77.5 t-71.5 23.5q-41 0 -66.5 -28t-25.5 -73t25.5 -73t66.5 -28q44 0 71.5 23.5zM560.5 264q25.5 28 25.5 73t-25.5 73t-66.5 28q-44 0 -71.5 -23.5t-56.5 -77.5q29 -54 56.5 -77.5t71.5 -23.5q41 0 66.5 28z" glyph-name="infinity" horiz-adv-x="668" unicode="∞"/><glyph d="M20 -200q-17 4 -23 9l10 56q9 -4 25 -7.5t30 -3.5q40 0 57 19t24 61l118 669q12 68 47.5 104.5t112.5 36.5q21 0 41 -4t30 -10l-10 -59q-12 6 -30 10.5t-36 4.5q-40 0 -60 -20.5t-27 -62.5l-118 -669q-13 -75 -46 -106.5t-106 -31.5q-22 0 -39 4z" glyph-name="integral" horiz-adv-x="490" unicode="∫"/><glyph d="M71 0v68h162v28q-81 37 -134 112.5t-53 186.5q0 96 40 165.5t109.5 106.5t156.5 37t156.5 -37t109.5 -106.5t40 -165.5q0 -111 -53 -186.5t-134 -112.5v-28h162v-68h-234v132q91 35 139 97t48 166q0 117 -63 180t-171 63t-171 -63t-63 -180q0 -104 48 -166t139 -97v-132 h-234z" glyph-name="Omega" horiz-adv-x="704" unicode="Ω"/><glyph d="M599 0h-554v69l237 621h80l237 -621v-69zM322 609l-200 -540h400z" glyph-name="Delta" horiz-adv-x="644" unicode="∆"/><glyph d="M512 690v-66h-77v-734h-72v734h-196v-734h-72v734h-79v66h496z" glyph-name="product" horiz-adv-x="528" unicode="∏"/><glyph d="M489 -110h-427v70l195 337l-185 323v70h407v-68h-330l182 -325l-192 -339h350v-68z" glyph-name="summation" horiz-adv-x="551" unicode="∑"/><glyph d="M326 0h-79l-111 316h-98v60h150l101 -303l199 617h71z" glyph-name="radical" horiz-adv-x="579" unicode="√"/><glyph d="M80 -190v660h68v-320q0 -108 100 -108q40 0 71 20.5t61 65.5v342h68v-470h-58l-10 62q-24 -34 -62 -55t-84 -21q-51 0 -86 20v-196h-68z" glyph-name="mu" horiz-adv-x="528" unicode="µ"/><glyph d="M152 12.5q-47 26.5 -75.5 78t-28.5 124.5t28 124.5t74.5 78t101.5 26.5q49 0 89.5 -24t63.5 -62q-28 215 -246 308l50 51q123 -62 193.5 -166t70.5 -253q0 -153 -56.5 -232.5t-161.5 -79.5q-56 0 -103 26.5zM370 102.5q35 58.5 35 182.5q-56 101 -140 101 q-60 0 -103.5 -42t-43.5 -129q0 -59 21 -97.5t53.5 -56t67.5 -17.5q75 0 110 58.5z" glyph-name="partialdiff" horiz-adv-x="521" unicode="∂"/><glyph d="M75.5 404.5q-35.5 46.5 -35.5 126.5t35.5 126.5t92.5 46.5t92.5 -46.5t35.5 -126.5t-35.5 -126.5t-92.5 -46.5t-92.5 46.5zM178 0h-69l417 690h69zM238 531q0 121 -70 121t-70 -121t70 -121t70 121zM443.5 32.5q-35.5 46.5 -35.5 126.5t35.5 126.5t92.5 46.5t92.5 -46.5 t35.5 -126.5t-35.5 -126.5t-92.5 -46.5t-92.5 46.5zM606 159q0 121 -70 121t-70 -121t70 -121t70 121z" glyph-name="percent" horiz-adv-x="704" unicode="%"/><glyph d="M75.5 404.5q-35.5 46.5 -35.5 126.5t35.5 126.5t92.5 46.5t92.5 -46.5t35.5 -126.5t-35.5 -126.5t-92.5 -46.5t-92.5 46.5zM178 0h-69l417 690h69zM238 531q0 121 -70 121t-70 -121t70 -121t70 121zM443.5 32.5q-35.5 46.5 -35.5 126.5t35.5 126.5t92.5 46.5t92.5 -46.5 t35.5 -126.5t-35.5 -126.5t-92.5 -46.5t-92.5 46.5zM743.5 32.5q-35.5 46.5 -35.5 126.5t35.5 126.5t92.5 46.5t92.5 -46.5t35.5 -126.5t-35.5 -126.5t-92.5 -46.5t-92.5 46.5zM606 159q0 121 -70 121t-70 -121t70 -121t70 121zM906 159q0 121 -70 121t-70 -121t70 -121 t70 121z" glyph-name="perthousand" horiz-adv-x="1004" unicode="‰"/><glyph d="M276 600l204 -200l-48 -46l-137 158v-422h-60v422l-137 -158l-48 46l204 200h22z" glyph-name="arrowup" horiz-adv-x="530" unicode="↑"/><glyph d="M139 540h286l15 -15v-286h-64l15 210l-298 -299l-43 43l299 298l-210 -15v64z" glyph-name="uni2197" horiz-adv-x="490" unicode="↗"/><glyph d="M314 512l46 48l200 -204v-22l-200 -204l-46 48l158 137h-422v60h422z" glyph-name="arrowright" horiz-adv-x="610" unicode="→"/><glyph d="M391 241l-15 210h64v-286l-15 -15h-286v64l210 -15l-299 298l43 43z" glyph-name="uni2198" horiz-adv-x="490" unicode="↘"/><glyph d="M295 178l137 158l48 -46l-204 -200h-22l-204 200l48 46l137 -158v422h60v-422z" glyph-name="arrowdown" horiz-adv-x="530" unicode="↓"/><glyph d="M397 540l43 -43l-299 -298l210 15v-64h-286l-15 15v286h64l-15 -210z" glyph-name="uni2199" horiz-adv-x="490" unicode="↙"/><glyph d="M138 375h422v-60h-422l158 -137l-46 -48l-200 204v22l200 204l46 -48z" glyph-name="arrowleft" horiz-adv-x="610" unicode="←"/><glyph d="M141 491l299 -298l-43 -43l-298 299l15 -210h-64v286l15 15h286v-64z" glyph-name="uni2196" horiz-adv-x="490" unicode="↖"/><glyph d="M296 178l-46 -48l-200 204v22l200 204l46 -48l-158 -137h514l-158 137l46 48l200 -204v-22l-200 -204l-46 48l158 137h-514z" glyph-name="arrowboth" horiz-adv-x="790" unicode="↔"/><glyph d="M276 0h-22l-204 200l48 46l137 -158v514l-137 -158l-48 46l204 200h22l204 -200l-48 -46l-137 158v-514l137 158l48 -46z" glyph-name="arrowupdn" horiz-adv-x="530" unicode="↕"/><glyph d="M306 0h-68l-210 345l210 345h68l210 -345zM108 345l164 -278l164 278l-164 278z" glyph-name="lozenge" horiz-adv-x="544" unicode="◊"/><glyph d="M520 120h-450v450h450v-450zM138 510v-330h314v330h-314z" glyph-name="H22073" horiz-adv-x="590" unicode="□"/><glyph d="M536 294h-506v102h506v-102z" glyph-name="uni2501" horiz-adv-x="566" unicode="━"/><glyph d="M636 294h-606v102h249v334h108v-334h249v-102z" glyph-name="uni253B" horiz-adv-x="666" unicode="┻"/><glyph d="M30 314v62h179q43 0 66.5 20t23.5 69v265h68v-263q0 -73 -43.5 -113t-114.5 -40h-179z" glyph-name="uni256F" horiz-adv-x="427" unicode="╯"/><glyph d="M387 -40h-108v334h-249v102h606v-102h-249v-334z" glyph-name="SF060000" horiz-adv-x="666" unicode="┬"/><glyph d="M536 294h-506v102h506v-102z" glyph-name="SF100000" horiz-adv-x="566" unicode="─"/><glyph d="M645 519l-36 -304q-2 -18 -2 -25q0 -66 50 -66q33 0 64 31t50 86.5t19 123.5q0 99 -41 169.5t-111 106t-156 35.5q-105 0 -187.5 -51t-128.5 -141.5t-46 -202.5q0 -91 32.5 -171t109 -132t200.5 -52q122 0 238 62l23 -53q-58 -33 -122.5 -50t-141.5 -17q-139 0 -230 57.5 t-133.5 151t-42.5 204.5q0 133 57 236.5t155 160t217 56.5q104 0 188.5 -44t133 -126.5t48.5 -194.5q0 -87 -29.5 -154t-78 -104t-102.5 -37q-42 0 -64.5 22.5t-23.5 63.5q-22 -40 -61.5 -63t-83.5 -23q-72 0 -114 58t-42 149q0 73 26.5 130.5t72.5 89t100 31.5 q89 0 120 -87l20 74h53zM492 153q31 24 48.5 68t17.5 104q0 73 -27 113t-76 40q-38 0 -68.5 -24t-48.5 -69t-18 -104q0 -73 27 -112.5t76 -39.5q38 0 69 24z" glyph-name="at" horiz-adv-x="905" unicode="@"/><glyph d="M587 391q-18 -88 -33.5 -140t-48.5 -105q44 -69 77 -146h-79q-20 46 -43 85q-36 -47 -90 -73t-120 -26q-101 0 -157 53.5t-56 147.5q0 66 33.5 118t95.5 84q-61 64 -61 146q0 77 48.5 123t127.5 46q75 0 115 -33.5t56 -90.5l-64 -27q-22 93 -107 93q-46 0 -76 -29 t-30 -75q0 -33 9 -57.5t34 -51t74 -59.5q41 -28 85.5 -71.5t86.5 -98.5q42 89 57 201zM347.5 68q40.5 24 78.5 71q-46 65 -97 116t-91 76l-25 17q-46 -22 -76 -63.5t-30 -93.5q0 -69 38.5 -108t112.5 -39q49 0 89.5 24z" glyph-name="ampersand" horiz-adv-x="613" unicode="&amp;"/><glyph d="M297 -110v517h-116q-60 0 -97 38.5t-37 102.5t37 103t97 39h188v-800h-72zM530 -110h-72v800h72v-800z" glyph-name="paragraph" horiz-adv-x="615" unicode="¶"/><glyph d="M437 38q0 -50 -25.5 -87t-68.5 -56t-93 -19q-68 0 -115.5 33t-68.5 91l62 36q21 -51 48 -71.5t74 -20.5q52 0 84.5 24t32.5 70t-34.5 67.5t-104.5 36.5q-74 16 -116.5 36t-62.5 52.5t-20 82.5q0 70 73 112q-51 41 -51 117q0 50 25.5 87t68.5 56t93 19q68 0 115.5 -33 t68.5 -91l-62 -36q-20 50 -47 71t-75 21q-52 0 -84.5 -24t-32.5 -70t34.5 -67.5t104.5 -36.5q74 -16 116.5 -36t62.5 -52.5t20 -82.5q0 -70 -73 -112q51 -41 51 -117zM116 266q15 -19 49.5 -32.5t100.5 -28.5q40 -8 72 -22q25 18 37 37.5t12 44.5q0 30 -15 49t-49.5 32.5 t-100.5 28.5q-40 8 -72 22q-25 -18 -37 -37.5t-12 -44.5q0 -30 15 -49z" glyph-name="section" horiz-adv-x="500" unicode="§"/><glyph d="M218 30.5q-80 44.5 -126 126t-46 188.5t46 188.5t126 126t178 44.5t178 -44.5t126 -126t46 -188.5t-46 -188.5t-126 -126t-178 -44.5t-178 44.5zM539 87.5q63 35.5 99 102t36 155.5t-36 155.5t-99 102t-143 35.5t-143 -35.5t-99 -102t-36 -155.5t36 -155.5t99 -102 t143 -35.5t143 35.5zM266.5 200.5q-51.5 52.5 -51.5 144.5q0 61 24.5 105.5t67.5 68t96 23.5q58 0 98 -22.5t59 -65.5l-55 -34q-17 33 -40 47.5t-62 14.5q-54 0 -87 -35.5t-33 -101.5t33 -101.5t85 -35.5q44 0 69.5 17.5t42.5 52.5l54 -35q-52 -95 -166 -95 q-83 0 -134.5 52.5z" glyph-name="copyright" horiz-adv-x="792" unicode="©"/><glyph d="M325 679.5q44 -24.5 69.5 -70t25.5 -104.5t-25.5 -104.5t-69.5 -70t-99 -24.5t-99 24.5t-69.5 70t-25.5 104.5t25.5 104.5t69.5 70t99 24.5t99 -24.5zM335.5 388q42.5 43 42.5 117t-42.5 117t-109.5 43t-109.5 -43t-42.5 -117t42.5 -117t109.5 -43t109.5 43zM299 512.5 q-10 -14.5 -27 -21.5l35 -79h-36l-33 74h-43v-74h-32v195h80q30 0 48 -16t18 -45q0 -19 -10 -33.5zM244 518q15 0 24.5 7t9.5 21t-9.5 21.5t-24.5 7.5h-49v-57h49z" glyph-name="registered" horiz-adv-x="452" unicode="®"/><glyph d="M127 330.5q-44 24.5 -69.5 70t-25.5 104.5t25.5 104.5t69.5 70t99 24.5t99 -24.5t69.5 -70t25.5 -104.5t-25.5 -104.5t-69.5 -70t-99 -24.5t-99 24.5zM335.5 388q42.5 43 42.5 117t-42.5 117t-109.5 43t-109.5 -43t-42.5 -117t42.5 -117t109.5 -43t109.5 43zM163 412v195 h80q32 0 49 -17t17 -48t-17 -47.5t-48 -16.5h-49v-66h-32zM244 510q14 0 24 9t10 23q0 15 -9.5 24t-24.5 9h-49v-65h49z" glyph-name="uni2117" horiz-adv-x="452" unicode="℗"/><glyph d="M29 690h200v-40h-79v-236h-43v236h-78v40zM447 690h60l26 -276h-44l-18 223l-57 -180h-46l-56 180l-19 -223h-43l25 276h62l55 -184z" glyph-name="trademark" horiz-adv-x="561" unicode="™"/><glyph d="M134 368.5q-40 22.5 -63 63t-23 93.5t23 93.5t63.5 63t90.5 22.5t90.5 -22.5t63.5 -63t23 -93.5t-23 -93.5t-63 -63t-91 -22.5t-91 22.5zM304 435.5q30 31.5 30 89.5t-30 89.5t-79 31.5t-79 -31.5t-30 -89.5t30 -89.5t79 -31.5t79 31.5z" glyph-name="degree" horiz-adv-x="450" unicode="°"/><glyph d="M155 -110h-70v910h70v-910z" glyph-name="bar" horiz-adv-x="240" unicode="|"/><glyph d="M155 426h-70v374h70v-374zM155 -110h-70v374h70v-374z" glyph-name="brokenbar" horiz-adv-x="240" unicode="¦"/><glyph d="M210 600h86v-52h-86v-276h-56v276h-86v52h86v90h56v-90z" glyph-name="dagger" horiz-adv-x="364" unicode="†"/><glyph d="M325.5 68.5q25.5 18.5 46.5 56.5l42 -37q-23 -47 -61 -74.5t-91 -27.5q-68 0 -108.5 56.5t-43.5 162.5q-11 -6 -65 -29l-27 56q41 17 93 41q5 128 35 226t78 151.5t106 53.5q104 0 104 -121q0 -108 -58.5 -189t-199.5 -156v-20q0 -76 19.5 -122t64.5 -46q40 0 65.5 18.5z M262.5 606.5q-30.5 -41.5 -53 -118.5t-30.5 -179q105 61 147 125t42 146q0 36 -11 52t-34 16q-30 0 -60.5 -41.5z" glyph-name="uni2113" horiz-adv-x="470" unicode="ℓ"/><glyph d="M210 272h-56v90h-86v52h86v134h-86v52h86v90h56v-90h86v-52h-86v-134h86v-52h-86v-90z" glyph-name="daggerdbl" horiz-adv-x="364" unicode="‡"/><glyph d="M196.5 29q-78.5 43 -122.5 124.5t-44 191.5t44 191.5t122.5 124.5t179.5 43t179.5 -43t122.5 -124t44 -192h-506v-244q66 -49 160 -49q100 0 169.5 49.5t95.5 139.5h70q-28 -121 -117.5 -188t-217.5 -67q-101 0 -179.5 43zM216 411h319v179q-67 48 -159 48 q-94 0 -160 -49v-178z" glyph-name="estimated" horiz-adv-x="752" unicode="℮"/><glyph d="M28 463l32 28q13 -22 28.5 -33t39.5 -11t37.5 11.5t13.5 32.5q0 20 -15.5 30t-44.5 17q-80 18 -80 80q0 36 25.5 57t64.5 21q60 0 91 -52l-31 -25q-13 21 -26.5 30t-33.5 9q-22 0 -35 -10t-13 -28q0 -19 14 -28t44 -17q41 -11 62 -28t21 -53q0 -40 -25.5 -63t-69.5 -23 q-68 0 -99 55zM295 414h-43l25 276h61l56 -184l55 184h60l26 -276h-44l-19 223l-56 -180h-46l-56 180z" glyph-name="uni2120" horiz-adv-x="563" unicode="℠"/><glyph d="M273 606h-253v60h253v-60z" glyph-name="uni02C9" horiz-adv-x="293" unicode="ˉ"/><glyph d="M-297 578q-13 13 -13 33t13 33t33 13t33 -13t13 -33t-13 -33t-33 -13t-33 13zM-147 578q-13 13 -13 33t13 33t33 13t33 -13t13 -33t-13 -33t-33 -13t-33 13z" glyph-name="uni0308" unicode="̈"/><glyph d="M-297 578q-13 13 -13 33t13 33t33 13t33 -13t13 -33t-13 -33t-33 -13t-33 13zM-147 578q-13 13 -13 33t13 33t33 13t33 -13t13 -33t-13 -33t-33 -13t-33 13zM-159 690h-60l-99 144h82z" glyph-name="uni0308_gravecomb.ccmp"/><glyph d="M-297 578q-13 13 -13 33t13 33t33 13t33 -13t13 -33t-13 -33t-33 -13t-33 13zM-147 578q-13 13 -13 33t13 33t33 13t33 -13t13 -33t-13 -33t-33 -13t-33 13zM-159 690h-60l77 144h82z" glyph-name="uni0308_acutecomb.ccmp"/><glyph d="M-297 578q-13 13 -13 33t13 33t33 13t33 -13t13 -33t-13 -33t-33 -13t-33 13zM-147 578q-13 13 -13 33t13 33t33 13t33 -13t13 -33t-13 -33t-33 -13t-33 13zM-161 690h-57l-100 144h57l72 -88l71 88h57z" glyph-name="uni0308_uni030C.ccmp"/><glyph d="M-296 578q-13 13 -13 33t13 33t33 13t33 -13t13 -33t-13 -33t-33 -13t-33 13zM-146 578q-13 13 -13 33t13 33t33 13t33 -13t13 -33t-13 -33t-33 -13t-33 13zM-62 750h-253v60h253v-60z" glyph-name="uni0308_uni0304.ccmp"/><glyph d="M-147 600q-13 13 -13 33t13 33t33 13t33 -13t13 -33t-13 -33t-33 -13t-33 13z" glyph-name="uni0307" unicode="̇"/><glyph d="M-33 546h-60l-99 144h82z" glyph-name="gravecomb" unicode="̀"/><glyph d="M-132 546h-60l77 144h82z" glyph-name="acutecomb" unicode="́"/><glyph d="M-244 546h-56l47 144h76zM-100 546h-56l47 144h76z" glyph-name="uni030B" unicode="̋"/><glyph d="M-188 497q30 26 47 49t20 46q-23 0 -38 15t-15 38t15 38t39 15q23 0 38.5 -18.5t15.5 -51.5q0 -98 -85 -162z" glyph-name="glyph583"/><glyph d="M-233 546h-57l100 144h57l100 -144h-57l-71 88z" glyph-name="uni0302" unicode="̂"/><glyph d="M-133 546h-57l-100 144h57l72 -88l71 88h57z" glyph-name="uni030C" unicode="̌"/><glyph d="M-255 583.5q-32 37.5 -32 106.5h53q0 -42 17.5 -67t54.5 -25t54.5 25t17.5 67h53q0 -69 -32 -106.5t-93 -37.5t-93 37.5z" glyph-name="uni0306" unicode="̆"/><glyph d="M-189 559q-27 27 -27 71t27 71t68 27t68 -27t27 -71t-27 -71t-68 -27t-68 27zM-86.5 590.5q12.5 14.5 12.5 39.5t-12.5 39.5t-34.5 14.5t-34.5 -14.5t-12.5 -39.5t12.5 -39.5t34.5 -14.5t34.5 14.5z" glyph-name="uni030A" unicode="̊"/><glyph d="M-177.5 593q-14.5 6 -32.5 17q-13 9 -22 13t-18 4q-19 0 -32.5 -9.5t-27.5 -30.5l-33 40q30 56 89 56q17 0 31.5 -6t32.5 -17q13 -9 22 -13t18 -4q19 0 33 9t27 31l33 -40q-30 -56 -89 -56q-17 0 -31.5 6z" glyph-name="tildecomb" unicode="̃"/><glyph d="M-20 606h-253v60h253v-60z" glyph-name="uni0304" unicode="̄"/><glyph d="M-82 560q11 22 11 40q0 17 -11 26.5t-28 9.5q-21 0 -39 -12l-19 44q27 24 69 24q43 0 66 -21.5t23 -56.5q0 -44 -36 -77z" glyph-name="hookabovecomb" unicode="̉"/><glyph d="M-97.5 552.5q-12.5 13.5 -12.5 38.5q0 39 15 64t43 43l32 -26q-22 -12 -32.5 -23t-12.5 -26q18 0 31 -11.5t13 -30.5q0 -20 -12.5 -31t-31.5 -11q-20 0 -32.5 13.5z" glyph-name="uni0312" unicode="̒"/><glyph d="M-173 406v64h37q29 0 43.5 17t14.5 54v59h68v-50q0 -71 -32.5 -107.5t-83.5 -36.5h-47z" glyph-name="uni031B" unicode="̛"/><glyph d="M-147 -131q-13 13 -13 33t13 33t33 13t33 -13t13 -33t-13 -33t-33 -13t-33 13z" glyph-name="dotbelowcomb" unicode="̣"/><glyph d="M-297 -131q-13 13 -13 33t13 33t33 13t33 -13t13 -33t-13 -33t-33 -13t-33 13zM-147 -131q-13 13 -13 33t13 33t33 13t33 -13t13 -33t-13 -33t-33 -13t-33 13z" glyph-name="uni0324" unicode="̤"/><glyph d="M-110 -185q22 12 32.5 23t12.5 26q-18 0 -31 11.5t-13 30.5q0 20 12.5 31t31.5 11q20 0 32.5 -13.5t12.5 -38.5q0 -39 -15 -64t-43 -43z" glyph-name="uni0326" unicode="̦"/><glyph d="M-30.5 -74.5q20.5 -17.5 20.5 -51.5q0 -33 -21 -52t-61 -19q-45 0 -77 21l25 37q24 -15 52 -15q32 0 32 28q0 12 -9 20t-22 8t-29 -6l-31 22l39 82h59l-39 -57h3q38 0 58.5 -17.5z" glyph-name="uni0327" unicode="̧"/><glyph d="M-131 -163.5q-25 22.5 -25 61.5q0 42 22.5 68.5t63.5 52.5l51 -19q-35 -18 -52 -41t-17 -43q0 -17 9 -26t26 -9q14 0 31 7l12 -57q-12 -9 -24.5 -13t-34.5 -4q-37 0 -62 22.5z" glyph-name="uni0328" unicode="̨"/><glyph d="M-254 -150.5q-32 33.5 -32 96.5h57q0 -34 16.5 -54t51.5 -20t51.5 20t16.5 54h57q0 -63 -32 -96.5t-93 -33.5t-93 33.5z" glyph-name="uni032E" unicode="̮"/><glyph d="M-20 -134h-253v60h253v-60z" glyph-name="uni0331" unicode="̱"/><glyph d="M81 578q-13 13 -13 33t13 33t33 13t33 -13t13 -33t-13 -33t-33 -13t-33 13zM231 578q-13 13 -13 33t13 33t33 13t33 -13t13 -33t-13 -33t-33 -13t-33 13z" glyph-name="dieresis" horiz-adv-x="378" unicode="¨"/><glyph d="M81 600q-13 13 -13 33t13 33t33 13t33 -13t13 -33t-13 -33t-33 -13t-33 13z" glyph-name="dotaccent" horiz-adv-x="228" unicode="˙"/><glyph d="M212 546h-60l-99 144h82z" glyph-name="grave" horiz-adv-x="265" unicode="`"/><glyph d="M93 546h-60l77 144h82z" glyph-name="acute" horiz-adv-x="225" unicode="´"/><glyph d="M89 546h-56l47 144h76zM233 546h-56l47 144h76z" glyph-name="hungarumlaut" horiz-adv-x="333" unicode="˝"/><glyph d="M90 546h-57l100 144h57l100 -144h-57l-71 88z" glyph-name="circumflex" horiz-adv-x="323" unicode="ˆ"/><glyph d="M190 546h-57l-100 144h57l72 -88l71 88h57z" glyph-name="caron" horiz-adv-x="323" unicode="ˇ"/><glyph d="M69 583.5q-32 37.5 -32 106.5h57q0 -40 16.5 -64t51.5 -24t51.5 24t16.5 64h57q0 -69 -32 -106.5t-93 -37.5t-93 37.5z" glyph-name="breve" horiz-adv-x="323" unicode="˘"/><glyph d="M53 559q-27 27 -27 71t27 71t68 27t68 -27t27 -71t-27 -71t-68 -27t-68 27zM155.5 590.5q12.5 14.5 12.5 39.5t-12.5 39.5t-34.5 14.5t-34.5 -14.5t-12.5 -39.5t12.5 -39.5t34.5 -14.5t34.5 14.5z" glyph-name="ring" horiz-adv-x="242" unicode="˚"/><glyph d="M222.5 593q-16.5 6 -36.5 17q-16 9 -25.5 13t-20.5 4q-19 0 -32.5 -9.5t-27.5 -30.5l-33 40q14 26 38 41t55 15q21 0 37.5 -6t36.5 -17q16 -9 25.5 -13t20.5 -4q19 0 33 9t27 31l33 -40q-14 -26 -38 -41t-55 -15q-21 0 -37.5 6z" glyph-name="tilde" horiz-adv-x="400" unicode="˜"/><glyph d="M273 606h-253v60h253v-60z" glyph-name="macron" horiz-adv-x="293" unicode="¯"/><glyph d="M148.5 -74.5q20.5 -17.5 20.5 -51.5q0 -33 -21 -52t-61 -19q-45 0 -77 21l25 37q24 -15 52 -15q32 0 32 28q0 12 -9 20t-22 8t-29 -6l-31 22l39 82h59l-39 -57h3q38 0 58.5 -17.5z" glyph-name="cedilla" horiz-adv-x="179" unicode="¸"/><glyph d="M35 -163.5q-25 22.5 -25 61.5q0 42 22.5 68.5t63.5 52.5l51 -19q-35 -18 -52 -41t-17 -43q0 -17 9.5 -26t25.5 -9q14 0 31 7l12 -57q-12 -9 -24.5 -13t-34.5 -4q-37 0 -62 22.5z" glyph-name="ogonek" horiz-adv-x="166" unicode="˛"/><glyph d="M-255 583.5q-32 37.5 -32 106.5h53q0 -42 17.5 -67t54.5 -25t54.5 25t17.5 67h53q0 -69 -32 -106.5t-93 -37.5t-93 37.5zM-132 723h-60l77 144h82z" glyph-name="uni0306_acutecomb.ccmp"/><glyph d="M-255 583.5q-32 37.5 -32 106.5h53q0 -42 17.5 -67t54.5 -25t54.5 25t17.5 67h53q0 -69 -32 -106.5t-93 -37.5t-93 37.5zM-132 723h-60l-99 144h82z" glyph-name="uni0306_gravecomb.ccmp"/><glyph d="M-255 583.5q-32 37.5 -32 106.5h53q0 -42 17.5 -67t54.5 -25t54.5 25t17.5 67h53q0 -69 -32 -106.5t-93 -37.5t-93 37.5zM-155 737q11 22 11 40q0 17 -11 26.5t-28 9.5q-21 0 -39 -12l-19 44q27 24 69 24q43 0 66 -21.5t23 -56.5q0 -44 -36 -77z" glyph-name="uni0306_hookabovecomb.ccmp"/><glyph d="M-255 583.5q-32 37.5 -32 106.5h53q0 -42 17.5 -67t54.5 -25t54.5 25t17.5 67h53q0 -69 -32 -106.5t-93 -37.5t-93 37.5zM-139.5 756q-14.5 6 -32.5 17q-13 9 -22 13t-18 4q-19 0 -32.5 -9.5t-27.5 -30.5l-33 40q30 56 89 56q17 0 31.5 -6t32.5 -17q13 -9 22 -13t18 -4 q19 0 33 9t27 31l33 -40q-30 -56 -89 -56q-17 0 -31.5 6z" glyph-name="uni0306_tildecomb.ccmp"/><glyph d="M-25 690h-60l57 144h76zM-233 546h-57l100 144h57l100 -144h-57l-71 88z" glyph-name="uni0302_acutecomb.ccmp"/><glyph d="M-12 690h-60l-73 144h76zM-233 546h-57l100 144h57l100 -144h-57l-71 88z" glyph-name="uni0302_gravecomb.ccmp"/><glyph d="M-89 706q11 22 11 40q0 17 -11 26.5t-28 9.5q-21 0 -39 -12l-19 44q27 24 69 24q43 0 66 -21.5t23 -56.5q0 -44 -36 -77zM-233 546h-57l100 144h57l100 -144h-57l-71 88z" glyph-name="uni0302_hookabovecomb.ccmp"/><glyph d="M-304 777q30 56 89 56q17 0 31.5 -6t32.5 -17q13 -9 22 -13t18 -4q19 0 33 9t27 31l33 -40q-30 -56 -89 -56q-17 0 -31.5 6t-32.5 17q-13 9 -22 13t-18 4q-19 0 -32.5 -9.5t-27.5 -30.5zM-233 546h-57l100 144h57l100 -144h-57l-71 88z" glyph-name="uni0302_tildecomb.ccmp"/></font>
</defs>
</svg>
